<svg width="496" height="384" viewBox="0 0 496 384" fill="none" xmlns="http://www.w3.org/2000/svg">
<g filter="url(#filter0_d_537_609)">
<rect x="16" y="12" width="460" height="340" rx="10" fill="white"/>
</g>
<rect x="231" y="94" width="32" height="32" rx="16" fill="#5282FF"/>
<path d="M248 111H250.3C250.7 111.6 251.3 112 252 112C253.1 112 254 111.1 254 110C254 108.9 253.1 108 252 108C251.3 108 250.6 108.4 250.3 109H248V105H250.3C250.7 105.6 251.3 106 252 106C253.1 106 254 105.1 254 104C254 102.9 253.1 102 252 102C251.3 102 250.6 102.4 250.3 103H248C246.9 103 246 103.9 246 105V109.3L241 106V109H238V111H241V114L246 110.7V115C246 116.1 246.9 117 248 117H250.3C250.7 117.6 251.3 118 252 118C253.1 118 254 117.1 254 116C254 114.9 253.1 114 252 114C251.3 114 250.6 114.4 250.3 115H248V111Z" fill="white"/>
<rect x="231" y="228" width="32" height="32" rx="16" fill="#5282FF"/>
<path d="M255 243V241H253V239C253 238.4 252.6 238 252 238H250V236H248V238H246V236H244V238H242C241.4 238 241 238.4 241 239V241H239V243H241V245H239V247H241V249C241 249.6 241.4 250 242 250H244V252H246V250H248V252H250V250H252C252.6 250 253 249.6 253 249V247H255V245H253V243H255ZM250 247H244V241H250V247Z" fill="white"/>
<rect x="87" y="228" width="32" height="32" rx="16" fill="#5282FF"/>
<path d="M111 243V241H109V239C109 238.4 108.6 238 108 238H106V236H104V238H102V236H100V238H98C97.4 238 97 238.4 97 239V241H95V243H97V245H95V247H97V249C97 249.6 97.4 250 98 250H100V252H102V250H104V252H106V250H108C108.6 250 109 249.6 109 249V247H111V245H109V243H111ZM106 247H100V241H106V247Z" fill="white"/>
<path d="M227.094 44.945C227.094 45.4217 227.008 45.855 226.834 46.245C226.67 46.635 226.44 46.973 226.145 47.259C225.851 47.5363 225.5 47.753 225.092 47.909C224.694 48.0563 224.265 48.13 223.805 48.13C223.181 48.13 222.648 48.0303 222.206 47.831C221.773 47.6317 221.418 47.3543 221.14 46.999C220.863 46.635 220.659 46.2017 220.529 45.699C220.408 45.1963 220.347 44.646 220.347 44.048C220.347 43.2333 220.421 42.488 220.568 41.812C220.724 41.136 220.963 40.5597 221.283 40.083C221.604 39.5977 222.011 39.2207 222.505 38.952C223.008 38.6833 223.602 38.549 224.286 38.549C224.806 38.549 225.235 38.5967 225.573 38.692C225.911 38.7787 226.206 38.8913 226.457 39.03V40.187C226.145 39.979 225.807 39.8317 225.443 39.745C225.079 39.6583 224.694 39.615 224.286 39.615C223.853 39.615 223.467 39.7017 223.129 39.875C222.8 40.0483 222.518 40.2867 222.284 40.59C222.059 40.8933 221.881 41.253 221.751 41.669C221.621 42.0763 221.539 42.5183 221.504 42.995C221.808 42.5877 222.163 42.2887 222.57 42.098C222.986 41.9073 223.437 41.812 223.922 41.812C224.364 41.812 224.776 41.8813 225.157 42.02C225.547 42.15 225.885 42.3493 226.171 42.618C226.457 42.8867 226.683 43.216 226.847 43.606C227.012 43.996 227.094 44.4423 227.094 44.945ZM223.766 47.09C224.044 47.09 224.308 47.0467 224.559 46.96C224.819 46.8647 225.045 46.7303 225.235 46.557C225.426 46.3837 225.578 46.167 225.69 45.907C225.803 45.6383 225.859 45.3263 225.859 44.971C225.859 44.6243 225.803 44.3167 225.69 44.048C225.578 43.7793 225.43 43.554 225.248 43.372C225.066 43.19 224.854 43.0557 224.611 42.969C224.377 42.8737 224.139 42.826 223.896 42.826C223.584 42.826 223.294 42.8737 223.025 42.969C222.757 43.0643 222.523 43.203 222.323 43.385C222.124 43.567 221.968 43.7923 221.855 44.061C221.743 44.3297 221.686 44.6417 221.686 44.997C221.686 45.309 221.734 45.595 221.829 45.855C221.925 46.1063 222.063 46.3273 222.245 46.518C222.427 46.7 222.644 46.843 222.895 46.947C223.155 47.0423 223.446 47.09 223.766 47.09ZM232.152 48.13C231.632 48.13 231.142 48.0303 230.683 47.831C230.224 47.6317 229.821 47.3327 229.474 46.934C229.136 46.5353 228.867 46.037 228.668 45.439C228.469 44.8323 228.369 44.1303 228.369 43.333C228.369 42.5357 228.469 41.838 228.668 41.24C228.867 40.642 229.136 40.148 229.474 39.758C229.821 39.3593 230.224 39.0603 230.683 38.861C231.142 38.6617 231.632 38.562 232.152 38.562C232.672 38.562 233.162 38.6617 233.621 38.861C234.08 39.0517 234.479 39.3463 234.817 39.745C235.164 40.135 235.432 40.629 235.623 41.227C235.822 41.8163 235.922 42.5097 235.922 43.307C235.922 44.1043 235.822 44.802 235.623 45.4C235.432 45.998 235.164 46.5007 234.817 46.908C234.479 47.3153 234.08 47.623 233.621 47.831C233.162 48.0303 232.672 48.13 232.152 48.13ZM232.139 47.103C232.494 47.103 232.828 47.038 233.14 46.908C233.452 46.778 233.721 46.5657 233.946 46.271C234.18 45.9677 234.362 45.5777 234.492 45.101C234.631 44.6243 234.7 44.0393 234.7 43.346C234.7 42.6527 234.631 42.0677 234.492 41.591C234.362 41.1143 234.18 40.7287 233.946 40.434C233.721 40.1307 233.452 39.914 233.14 39.784C232.837 39.654 232.507 39.589 232.152 39.589C231.797 39.589 231.463 39.654 231.151 39.784C230.839 39.914 230.566 40.1307 230.332 40.434C230.098 40.7287 229.912 41.1143 229.773 41.591C229.643 42.0677 229.578 42.6527 229.578 43.346C229.578 44.0393 229.643 44.6243 229.773 45.101C229.912 45.5777 230.094 45.9677 230.319 46.271C230.553 46.5657 230.826 46.778 231.138 46.908C231.45 47.038 231.784 47.103 232.139 47.103ZM241.026 48.13C240.506 48.13 240.016 48.0303 239.557 47.831C239.098 47.6317 238.695 47.3327 238.348 46.934C238.01 46.5353 237.741 46.037 237.542 45.439C237.343 44.8323 237.243 44.1303 237.243 43.333C237.243 42.5357 237.343 41.838 237.542 41.24C237.741 40.642 238.01 40.148 238.348 39.758C238.695 39.3593 239.098 39.0603 239.557 38.861C240.016 38.6617 240.506 38.562 241.026 38.562C241.546 38.562 242.036 38.6617 242.495 38.861C242.954 39.0517 243.353 39.3463 243.691 39.745C244.038 40.135 244.306 40.629 244.497 41.227C244.696 41.8163 244.796 42.5097 244.796 43.307C244.796 44.1043 244.696 44.802 244.497 45.4C244.306 45.998 244.038 46.5007 243.691 46.908C243.353 47.3153 242.954 47.623 242.495 47.831C242.036 48.0303 241.546 48.13 241.026 48.13ZM241.013 47.103C241.368 47.103 241.702 47.038 242.014 46.908C242.326 46.778 242.595 46.5657 242.82 46.271C243.054 45.9677 243.236 45.5777 243.366 45.101C243.505 44.6243 243.574 44.0393 243.574 43.346C243.574 42.6527 243.505 42.0677 243.366 41.591C243.236 41.1143 243.054 40.7287 242.82 40.434C242.595 40.1307 242.326 39.914 242.014 39.784C241.711 39.654 241.381 39.589 241.026 39.589C240.671 39.589 240.337 39.654 240.025 39.784C239.713 39.914 239.44 40.1307 239.206 40.434C238.972 40.7287 238.786 41.1143 238.647 41.591C238.517 42.0677 238.452 42.6527 238.452 43.346C238.452 44.0393 238.517 44.6243 238.647 45.101C238.786 45.5777 238.968 45.9677 239.193 46.271C239.427 46.5657 239.7 46.778 240.012 46.908C240.324 47.038 240.658 47.103 241.013 47.103ZM249.403 38.679H252.523C253.623 38.679 254.46 38.8957 255.032 39.329C255.612 39.7537 255.903 40.4253 255.903 41.344C255.903 42.1587 255.703 42.7827 255.305 43.216C254.915 43.6493 254.399 43.9353 253.758 44.074L256.293 48H254.915L252.484 44.217H250.625V48H249.403V38.679ZM250.625 39.797V43.112H252.406C252.735 43.112 253.034 43.0817 253.303 43.021C253.58 42.9603 253.814 42.8607 254.005 42.722C254.204 42.5833 254.356 42.4013 254.46 42.176C254.572 41.942 254.629 41.656 254.629 41.318C254.629 40.7633 254.447 40.3733 254.083 40.148C253.719 39.914 253.199 39.797 252.523 39.797H250.625ZM257.87 38.679H260.847C261.905 38.679 262.724 38.9 263.304 39.342C263.894 39.7753 264.188 40.4557 264.188 41.383C264.188 41.9117 264.102 42.3667 263.928 42.748C263.764 43.1207 263.53 43.4283 263.226 43.671C262.923 43.9137 262.559 44.0913 262.134 44.204C261.718 44.3167 261.255 44.373 260.743 44.373H259.092V48H257.87V38.679ZM259.092 39.797V43.268H260.743C261.073 43.268 261.372 43.2333 261.64 43.164C261.909 43.0947 262.139 42.9863 262.329 42.839C262.529 42.6917 262.68 42.501 262.784 42.267C262.897 42.0243 262.953 41.734 262.953 41.396C262.953 40.8327 262.771 40.4253 262.407 40.174C262.043 39.9227 261.523 39.797 260.847 39.797H259.092ZM268.468 48.13C268.044 48.13 267.662 48.0997 267.324 48.039C266.986 47.987 266.687 47.9177 266.427 47.831C266.176 47.7357 265.959 47.636 265.777 47.532C265.604 47.4193 265.465 47.311 265.361 47.207V46.037C265.491 46.1497 265.66 46.2667 265.868 46.388C266.076 46.5007 266.315 46.6047 266.583 46.7C266.861 46.7953 267.155 46.8733 267.467 46.934C267.788 46.9947 268.122 47.025 268.468 47.025C269.144 47.025 269.682 46.8993 270.08 46.648C270.479 46.388 270.678 45.998 270.678 45.478C270.678 45.218 270.631 45.0057 270.535 44.841C270.44 44.6677 270.301 44.5247 270.119 44.412C269.937 44.2907 269.708 44.191 269.43 44.113C269.162 44.0263 268.845 43.9353 268.481 43.84C268.117 43.7447 267.753 43.6363 267.389 43.515C267.025 43.3937 266.696 43.2333 266.401 43.034C266.115 42.8347 265.881 42.5833 265.699 42.28C265.526 41.9767 265.439 41.591 265.439 41.123C265.439 40.317 265.721 39.6887 266.284 39.238C266.848 38.7873 267.71 38.562 268.871 38.562C269.209 38.562 269.508 38.5837 269.768 38.627C270.037 38.6617 270.271 38.7093 270.47 38.77C270.678 38.822 270.856 38.8827 271.003 38.952C271.159 39.0213 271.298 39.0863 271.419 39.147V40.317C271.055 40.083 270.661 39.9183 270.236 39.823C269.82 39.719 269.365 39.667 268.871 39.667C268.455 39.667 268.104 39.7017 267.818 39.771C267.541 39.8317 267.316 39.9227 267.142 40.044C266.969 40.1653 266.843 40.3127 266.765 40.486C266.687 40.6593 266.648 40.8543 266.648 41.071C266.648 41.331 266.705 41.5477 266.817 41.721C266.939 41.8943 267.095 42.0417 267.285 42.163C267.485 42.2757 267.71 42.371 267.961 42.449C268.213 42.527 268.477 42.5963 268.754 42.657C269.118 42.7437 269.491 42.8433 269.872 42.956C270.254 43.0687 270.596 43.2247 270.899 43.424C271.203 43.6233 271.45 43.8833 271.64 44.204C271.84 44.516 271.939 44.9233 271.939 45.426C271.939 45.92 271.84 46.3403 271.64 46.687C271.45 47.025 271.194 47.3023 270.873 47.519C270.553 47.7357 270.184 47.8917 269.768 47.987C269.352 48.0823 268.919 48.13 268.468 48.13Z" fill="black"/>
<path d="M221.895 273.218L224.924 266.679H226.51V276H225.275V268.499L222.415 274.57L221.804 274.583H221.258L221.271 274.57L218.45 268.395V276H217.293V266.679H218.996L221.895 273.218ZM232.477 274.713C232.399 274.869 232.299 275.034 232.178 275.207C232.057 275.372 231.905 275.523 231.723 275.662C231.541 275.801 231.324 275.913 231.073 276C230.83 276.087 230.544 276.13 230.215 276.13C229.608 276.13 229.119 275.961 228.746 275.623C228.373 275.276 228.187 274.782 228.187 274.141C228.187 273.404 228.443 272.863 228.954 272.516C229.474 272.169 230.211 271.996 231.164 271.996H232.425V271.437C232.425 270.969 232.304 270.635 232.061 270.436C231.818 270.237 231.402 270.137 230.813 270.137C230.397 270.137 230.003 270.206 229.63 270.345C229.257 270.475 228.924 270.627 228.629 270.8V269.773C228.872 269.626 229.197 269.483 229.604 269.344C230.02 269.197 230.475 269.123 230.969 269.123C231.818 269.123 232.464 269.301 232.906 269.656C233.348 270.003 233.569 270.544 233.569 271.281V274.908C233.569 274.986 233.569 275.077 233.569 275.181C233.578 275.276 233.582 275.376 233.582 275.48C233.591 275.584 233.599 275.684 233.608 275.779C233.617 275.866 233.625 275.939 233.634 276H232.594C232.568 275.879 232.542 275.71 232.516 275.493C232.499 275.268 232.49 275.073 232.49 274.908L232.477 274.713ZM230.462 275.103C230.817 275.103 231.121 275.029 231.372 274.882C231.623 274.735 231.827 274.566 231.983 274.375C232.139 274.176 232.252 273.985 232.321 273.803C232.39 273.612 232.425 273.478 232.425 273.4V272.906H231.281C230.596 272.906 230.098 273.006 229.786 273.205C229.483 273.396 229.331 273.686 229.331 274.076C229.331 274.379 229.422 274.626 229.604 274.817C229.786 275.008 230.072 275.103 230.462 275.103ZM237.643 273.322L235.823 276H234.627L237.071 272.503L234.913 269.253H236.239L237.851 271.632L239.476 269.253H240.659L238.423 272.477L240.776 276H239.45L237.643 273.322ZM244.541 270.839V269.929H250.82V270.839H244.541ZM244.541 273.309V272.399H250.82V273.309H244.541ZM261.24 273.309C261.24 273.742 261.153 274.132 260.98 274.479C260.815 274.826 260.581 275.125 260.278 275.376C259.983 275.619 259.623 275.805 259.199 275.935C258.774 276.065 258.31 276.13 257.808 276.13C257.166 276.13 256.612 276.061 256.144 275.922C255.676 275.775 255.299 275.58 255.013 275.337V274.037C255.307 274.314 255.693 274.557 256.17 274.765C256.646 274.964 257.197 275.064 257.821 275.064C258.488 275.064 259.012 274.912 259.394 274.609C259.784 274.306 259.979 273.881 259.979 273.335C259.979 272.815 259.805 272.412 259.459 272.126C259.121 271.831 258.583 271.684 257.847 271.684H256.651V270.579H257.899C258.419 270.579 258.839 270.449 259.16 270.189C259.48 269.929 259.641 269.552 259.641 269.058C259.641 268.616 259.485 268.269 259.173 268.018C258.869 267.758 258.423 267.628 257.834 267.628C257.236 267.628 256.72 267.728 256.287 267.927C255.853 268.126 255.472 268.373 255.143 268.668V267.394C255.455 267.134 255.836 266.93 256.287 266.783C256.746 266.627 257.266 266.549 257.847 266.549C258.315 266.549 258.735 266.61 259.108 266.731C259.48 266.844 259.792 267.008 260.044 267.225C260.304 267.442 260.503 267.702 260.642 268.005C260.78 268.3 260.85 268.629 260.85 268.993C260.85 269.288 260.806 269.552 260.72 269.786C260.633 270.02 260.512 270.224 260.356 270.397C260.208 270.57 260.035 270.718 259.836 270.839C259.636 270.952 259.424 271.034 259.199 271.086C259.476 271.129 259.736 271.212 259.979 271.333C260.23 271.454 260.447 271.61 260.629 271.801C260.819 271.983 260.967 272.204 261.071 272.464C261.183 272.715 261.24 272.997 261.24 273.309ZM266.223 276.13C265.703 276.13 265.214 276.03 264.754 275.831C264.295 275.632 263.892 275.333 263.545 274.934C263.207 274.535 262.939 274.037 262.739 273.439C262.54 272.832 262.44 272.13 262.44 271.333C262.44 270.536 262.54 269.838 262.739 269.24C262.939 268.642 263.207 268.148 263.545 267.758C263.892 267.359 264.295 267.06 264.754 266.861C265.214 266.662 265.703 266.562 266.223 266.562C266.743 266.562 267.233 266.662 267.692 266.861C268.152 267.052 268.55 267.346 268.888 267.745C269.235 268.135 269.504 268.629 269.694 269.227C269.894 269.816 269.993 270.51 269.993 271.307C269.993 272.104 269.894 272.802 269.694 273.4C269.504 273.998 269.235 274.501 268.888 274.908C268.55 275.315 268.152 275.623 267.692 275.831C267.233 276.03 266.743 276.13 266.223 276.13ZM266.21 275.103C266.566 275.103 266.899 275.038 267.211 274.908C267.523 274.778 267.792 274.566 268.017 274.271C268.251 273.968 268.433 273.578 268.563 273.101C268.702 272.624 268.771 272.039 268.771 271.346C268.771 270.653 268.702 270.068 268.563 269.591C268.433 269.114 268.251 268.729 268.017 268.434C267.792 268.131 267.523 267.914 267.211 267.784C266.908 267.654 266.579 267.589 266.223 267.589C265.868 267.589 265.534 267.654 265.222 267.784C264.91 267.914 264.637 268.131 264.403 268.434C264.169 268.729 263.983 269.114 263.844 269.591C263.714 270.068 263.649 270.653 263.649 271.346C263.649 272.039 263.714 272.624 263.844 273.101C263.983 273.578 264.165 273.968 264.39 274.271C264.624 274.566 264.897 274.778 265.209 274.908C265.521 275.038 265.855 275.103 266.21 275.103ZM277.164 272.919C277.164 273.404 277.086 273.846 276.93 274.245C276.774 274.635 276.549 274.973 276.254 275.259C275.968 275.536 275.617 275.753 275.201 275.909C274.785 276.056 274.322 276.13 273.81 276.13C273.238 276.13 272.74 276.074 272.315 275.961C271.899 275.848 271.54 275.684 271.236 275.467V274.193C271.392 274.314 271.553 274.431 271.717 274.544C271.891 274.648 272.081 274.739 272.289 274.817C272.497 274.895 272.727 274.956 272.978 274.999C273.23 275.042 273.507 275.064 273.81 275.064C274.478 275.064 274.998 274.869 275.37 274.479C275.743 274.089 275.929 273.578 275.929 272.945C275.929 272.269 275.747 271.775 275.383 271.463C275.019 271.151 274.56 270.995 274.005 270.995C273.589 270.995 273.256 271.056 273.004 271.177C272.753 271.298 272.567 271.433 272.445 271.58H271.509V266.679H276.644V267.797H272.562V270.475C272.744 270.336 272.97 270.219 273.238 270.124C273.507 270.02 273.828 269.968 274.2 269.968C274.616 269.968 275.002 270.033 275.357 270.163C275.721 270.284 276.038 270.471 276.306 270.722C276.575 270.965 276.783 271.272 276.93 271.645C277.086 272.009 277.164 272.434 277.164 272.919Z" fill="black"/>
<rect x="375" y="228" width="32" height="32" rx="16" fill="#5282FF"/>
<path d="M399 243V241H397V239C397 238.4 396.6 238 396 238H394V236H392V238H390V236H388V238H386C385.4 238 385 238.4 385 239V241H383V243H385V245H383V247H385V249C385 249.6 385.4 250 386 250H388V252H390V250H392V252H394V250H396C396.6 250 397 249.6 397 249V247H399V245H397V243H399ZM394 247H388V241H394V247Z" fill="white"/>
<path d="M365.895 273.218L368.924 266.679H370.51V276H369.275V268.499L366.415 274.57L365.804 274.583H365.258L365.271 274.57L362.45 268.395V276H361.293V266.679H362.996L365.895 273.218ZM376.477 274.713C376.399 274.869 376.299 275.034 376.178 275.207C376.057 275.372 375.905 275.523 375.723 275.662C375.541 275.801 375.324 275.913 375.073 276C374.83 276.087 374.544 276.13 374.215 276.13C373.608 276.13 373.119 275.961 372.746 275.623C372.373 275.276 372.187 274.782 372.187 274.141C372.187 273.404 372.443 272.863 372.954 272.516C373.474 272.169 374.211 271.996 375.164 271.996H376.425V271.437C376.425 270.969 376.304 270.635 376.061 270.436C375.818 270.237 375.402 270.137 374.813 270.137C374.397 270.137 374.003 270.206 373.63 270.345C373.257 270.475 372.924 270.627 372.629 270.8V269.773C372.872 269.626 373.197 269.483 373.604 269.344C374.02 269.197 374.475 269.123 374.969 269.123C375.818 269.123 376.464 269.301 376.906 269.656C377.348 270.003 377.569 270.544 377.569 271.281V274.908C377.569 274.986 377.569 275.077 377.569 275.181C377.578 275.276 377.582 275.376 377.582 275.48C377.591 275.584 377.599 275.684 377.608 275.779C377.617 275.866 377.625 275.939 377.634 276H376.594C376.568 275.879 376.542 275.71 376.516 275.493C376.499 275.268 376.49 275.073 376.49 274.908L376.477 274.713ZM374.462 275.103C374.817 275.103 375.121 275.029 375.372 274.882C375.623 274.735 375.827 274.566 375.983 274.375C376.139 274.176 376.252 273.985 376.321 273.803C376.39 273.612 376.425 273.478 376.425 273.4V272.906H375.281C374.596 272.906 374.098 273.006 373.786 273.205C373.483 273.396 373.331 273.686 373.331 274.076C373.331 274.379 373.422 274.626 373.604 274.817C373.786 275.008 374.072 275.103 374.462 275.103ZM381.643 273.322L379.823 276H378.627L381.071 272.503L378.913 269.253H380.239L381.851 271.632L383.476 269.253H384.659L382.423 272.477L384.776 276H383.45L381.643 273.322ZM388.541 270.839V269.929H394.82V270.839H388.541ZM388.541 273.309V272.399H394.82V273.309H388.541ZM405.24 273.309C405.24 273.742 405.153 274.132 404.98 274.479C404.815 274.826 404.581 275.125 404.278 275.376C403.983 275.619 403.623 275.805 403.199 275.935C402.774 276.065 402.31 276.13 401.808 276.13C401.166 276.13 400.612 276.061 400.144 275.922C399.676 275.775 399.299 275.58 399.013 275.337V274.037C399.307 274.314 399.693 274.557 400.17 274.765C400.646 274.964 401.197 275.064 401.821 275.064C402.488 275.064 403.012 274.912 403.394 274.609C403.784 274.306 403.979 273.881 403.979 273.335C403.979 272.815 403.805 272.412 403.459 272.126C403.121 271.831 402.583 271.684 401.847 271.684H400.651V270.579H401.899C402.419 270.579 402.839 270.449 403.16 270.189C403.48 269.929 403.641 269.552 403.641 269.058C403.641 268.616 403.485 268.269 403.173 268.018C402.869 267.758 402.423 267.628 401.834 267.628C401.236 267.628 400.72 267.728 400.287 267.927C399.853 268.126 399.472 268.373 399.143 268.668V267.394C399.455 267.134 399.836 266.93 400.287 266.783C400.746 266.627 401.266 266.549 401.847 266.549C402.315 266.549 402.735 266.61 403.108 266.731C403.48 266.844 403.792 267.008 404.044 267.225C404.304 267.442 404.503 267.702 404.642 268.005C404.78 268.3 404.85 268.629 404.85 268.993C404.85 269.288 404.806 269.552 404.72 269.786C404.633 270.02 404.512 270.224 404.356 270.397C404.208 270.57 404.035 270.718 403.836 270.839C403.636 270.952 403.424 271.034 403.199 271.086C403.476 271.129 403.736 271.212 403.979 271.333C404.23 271.454 404.447 271.61 404.629 271.801C404.819 271.983 404.967 272.204 405.071 272.464C405.183 272.715 405.24 272.997 405.24 273.309ZM410.223 276.13C409.703 276.13 409.214 276.03 408.754 275.831C408.295 275.632 407.892 275.333 407.545 274.934C407.207 274.535 406.939 274.037 406.739 273.439C406.54 272.832 406.44 272.13 406.44 271.333C406.44 270.536 406.54 269.838 406.739 269.24C406.939 268.642 407.207 268.148 407.545 267.758C407.892 267.359 408.295 267.06 408.754 266.861C409.214 266.662 409.703 266.562 410.223 266.562C410.743 266.562 411.233 266.662 411.692 266.861C412.152 267.052 412.55 267.346 412.888 267.745C413.235 268.135 413.504 268.629 413.694 269.227C413.894 269.816 413.993 270.51 413.993 271.307C413.993 272.104 413.894 272.802 413.694 273.4C413.504 273.998 413.235 274.501 412.888 274.908C412.55 275.315 412.152 275.623 411.692 275.831C411.233 276.03 410.743 276.13 410.223 276.13ZM410.21 275.103C410.566 275.103 410.899 275.038 411.211 274.908C411.523 274.778 411.792 274.566 412.017 274.271C412.251 273.968 412.433 273.578 412.563 273.101C412.702 272.624 412.771 272.039 412.771 271.346C412.771 270.653 412.702 270.068 412.563 269.591C412.433 269.114 412.251 268.729 412.017 268.434C411.792 268.131 411.523 267.914 411.211 267.784C410.908 267.654 410.579 267.589 410.223 267.589C409.868 267.589 409.534 267.654 409.222 267.784C408.91 267.914 408.637 268.131 408.403 268.434C408.169 268.729 407.983 269.114 407.844 269.591C407.714 270.068 407.649 270.653 407.649 271.346C407.649 272.039 407.714 272.624 407.844 273.101C407.983 273.578 408.165 273.968 408.39 274.271C408.624 274.566 408.897 274.778 409.209 274.908C409.521 275.038 409.855 275.103 410.21 275.103ZM421.164 272.919C421.164 273.404 421.086 273.846 420.93 274.245C420.774 274.635 420.549 274.973 420.254 275.259C419.968 275.536 419.617 275.753 419.201 275.909C418.785 276.056 418.322 276.13 417.81 276.13C417.238 276.13 416.74 276.074 416.315 275.961C415.899 275.848 415.54 275.684 415.236 275.467V274.193C415.392 274.314 415.553 274.431 415.717 274.544C415.891 274.648 416.081 274.739 416.289 274.817C416.497 274.895 416.727 274.956 416.978 274.999C417.23 275.042 417.507 275.064 417.81 275.064C418.478 275.064 418.998 274.869 419.37 274.479C419.743 274.089 419.929 273.578 419.929 272.945C419.929 272.269 419.747 271.775 419.383 271.463C419.019 271.151 418.56 270.995 418.005 270.995C417.589 270.995 417.256 271.056 417.004 271.177C416.753 271.298 416.567 271.433 416.445 271.58H415.509V266.679H420.644V267.797H416.562V270.475C416.744 270.336 416.97 270.219 417.238 270.124C417.507 270.02 417.828 269.968 418.2 269.968C418.616 269.968 419.002 270.033 419.357 270.163C419.721 270.284 420.038 270.471 420.306 270.722C420.575 270.965 420.783 271.272 420.93 271.645C421.086 272.009 421.164 272.434 421.164 272.919Z" fill="black"/>
<path d="M95.9141 310.931H91.1301V315H89.9081V305.679H91.1301V309.826H95.9141V305.679H97.1491V315H95.9141V310.931ZM103.112 313.713C103.034 313.869 102.934 314.034 102.813 314.207C102.691 314.372 102.54 314.523 102.358 314.662C102.176 314.801 101.959 314.913 101.708 315C101.465 315.087 101.179 315.13 100.85 315.13C100.243 315.13 99.7533 314.961 99.3806 314.623C99.008 314.276 98.8216 313.782 98.8216 313.141C98.8216 312.404 99.0773 311.863 99.5886 311.516C100.109 311.169 100.845 310.996 101.799 310.996H103.06V310.437C103.06 309.969 102.938 309.635 102.696 309.436C102.453 309.237 102.037 309.137 101.448 309.137C101.032 309.137 100.637 309.206 100.265 309.345C99.892 309.475 99.5583 309.627 99.2636 309.8V308.773C99.5063 308.626 99.8313 308.483 100.239 308.344C100.655 308.197 101.11 308.123 101.604 308.123C102.453 308.123 103.099 308.301 103.541 308.656C103.983 309.003 104.204 309.544 104.204 310.281V313.908C104.204 313.986 104.204 314.077 104.204 314.181C104.212 314.276 104.217 314.376 104.217 314.48C104.225 314.584 104.234 314.684 104.243 314.779C104.251 314.866 104.26 314.939 104.269 315H103.229C103.203 314.879 103.177 314.71 103.151 314.493C103.133 314.268 103.125 314.073 103.125 313.908L103.112 313.713ZM101.097 314.103C101.452 314.103 101.755 314.029 102.007 313.882C102.258 313.735 102.462 313.566 102.618 313.375C102.774 313.176 102.886 312.985 102.956 312.803C103.025 312.612 103.06 312.478 103.06 312.4V311.906H101.916C101.231 311.906 100.733 312.006 100.421 312.205C100.117 312.396 99.9656 312.686 99.9656 313.076C99.9656 313.379 100.057 313.626 100.239 313.817C100.421 314.008 100.707 314.103 101.097 314.103ZM106.002 308.253H110.292V309.228H107.146V315H106.002V308.253ZM115.07 315.13C114.55 315.13 114.1 315.009 113.718 314.766C113.346 314.523 113.047 314.19 112.821 313.765V317.301H111.677V308.253H112.678L112.795 309.566C113.021 309.124 113.324 308.773 113.705 308.513C114.087 308.253 114.559 308.123 115.122 308.123C115.512 308.123 115.885 308.197 116.24 308.344C116.604 308.483 116.921 308.699 117.189 308.994C117.467 309.28 117.683 309.644 117.839 310.086C118.004 310.519 118.086 311.031 118.086 311.62C118.086 312.218 118.004 312.738 117.839 313.18C117.675 313.613 117.454 313.977 117.176 314.272C116.899 314.558 116.578 314.775 116.214 314.922C115.85 315.061 115.469 315.13 115.07 315.13ZM114.901 314.103C115.499 314.103 115.98 313.899 116.344 313.492C116.717 313.076 116.903 312.452 116.903 311.62C116.903 310.805 116.717 310.19 116.344 309.774C115.98 309.349 115.499 309.137 114.901 309.137C114.607 309.137 114.329 309.189 114.069 309.293C113.818 309.397 113.597 309.553 113.406 309.761C113.224 309.96 113.077 310.216 112.964 310.528C112.86 310.84 112.808 311.204 112.808 311.62C112.808 312.036 112.86 312.4 112.964 312.712C113.077 313.024 113.224 313.284 113.406 313.492C113.597 313.7 113.818 313.856 114.069 313.96C114.329 314.055 114.607 314.103 114.901 314.103ZM122.724 314.922C122.568 315.329 122.403 315.685 122.23 315.988C122.056 316.3 121.861 316.564 121.645 316.781C121.428 316.998 121.185 317.158 120.917 317.262C120.648 317.375 120.34 317.431 119.994 317.431C119.82 317.431 119.66 317.418 119.513 317.392C119.365 317.375 119.231 317.34 119.11 317.288V316.183C119.205 316.252 119.326 316.304 119.474 316.339C119.621 316.382 119.781 316.404 119.955 316.404C120.275 316.404 120.54 316.326 120.748 316.17C120.956 316.023 121.155 315.784 121.346 315.455L118.603 308.253H119.864L122.009 313.947L124.141 308.253H125.246L122.724 314.922ZM131.162 313.037C131.162 313.418 131.084 313.743 130.928 314.012C130.781 314.272 130.577 314.489 130.317 314.662C130.057 314.827 129.754 314.944 129.407 315.013C129.069 315.091 128.714 315.13 128.341 315.13C127.847 315.13 127.41 315.078 127.028 314.974C126.656 314.87 126.361 314.744 126.144 314.597V313.57C126.413 313.735 126.734 313.865 127.106 313.96C127.479 314.055 127.882 314.103 128.315 314.103C128.809 314.103 129.221 314.025 129.55 313.869C129.888 313.704 130.057 313.427 130.057 313.037C130.057 312.656 129.914 312.387 129.628 312.231C129.351 312.075 128.922 311.997 128.341 311.997H127.444V311.074H128.38C128.857 311.074 129.221 310.987 129.472 310.814C129.724 310.641 129.849 310.389 129.849 310.06C129.849 309.887 129.806 309.744 129.719 309.631C129.641 309.51 129.533 309.414 129.394 309.345C129.256 309.267 129.091 309.215 128.9 309.189C128.718 309.154 128.523 309.137 128.315 309.137C127.917 309.137 127.544 309.185 127.197 309.28C126.859 309.375 126.552 309.51 126.274 309.683V308.656C126.5 308.509 126.79 308.383 127.145 308.279C127.509 308.175 127.93 308.123 128.406 308.123C129.23 308.123 129.849 308.279 130.265 308.591C130.69 308.903 130.902 309.354 130.902 309.943C130.902 310.385 130.781 310.732 130.538 310.983C130.304 311.234 129.971 311.408 129.537 311.503C130.075 311.572 130.478 311.741 130.746 312.01C131.024 312.279 131.162 312.621 131.162 313.037ZM134.582 312.127H133.984V315H132.84V308.253H133.984V311.152H134.634L137 308.253H138.3L135.531 311.581L138.352 315H136.961L134.582 312.127ZM143.381 313.713C143.303 313.869 143.203 314.034 143.082 314.207C142.961 314.372 142.809 314.523 142.627 314.662C142.445 314.801 142.228 314.913 141.977 315C141.734 315.087 141.448 315.13 141.119 315.13C140.512 315.13 140.023 314.961 139.65 314.623C139.277 314.276 139.091 313.782 139.091 313.141C139.091 312.404 139.347 311.863 139.858 311.516C140.378 311.169 141.115 310.996 142.068 310.996H143.329V310.437C143.329 309.969 143.208 309.635 142.965 309.436C142.722 309.237 142.306 309.137 141.717 309.137C141.301 309.137 140.907 309.206 140.534 309.345C140.161 309.475 139.828 309.627 139.533 309.8V308.773C139.776 308.626 140.101 308.483 140.508 308.344C140.924 308.197 141.379 308.123 141.873 308.123C142.722 308.123 143.368 308.301 143.81 308.656C144.252 309.003 144.473 309.544 144.473 310.281V313.908C144.473 313.986 144.473 314.077 144.473 314.181C144.482 314.276 144.486 314.376 144.486 314.48C144.495 314.584 144.503 314.684 144.512 314.779C144.521 314.866 144.529 314.939 144.538 315H143.498C143.472 314.879 143.446 314.71 143.42 314.493C143.403 314.268 143.394 314.073 143.394 313.908L143.381 313.713ZM141.366 314.103C141.721 314.103 142.025 314.029 142.276 313.882C142.527 313.735 142.731 313.566 142.887 313.375C143.043 313.176 143.156 312.985 143.225 312.803C143.294 312.612 143.329 312.478 143.329 312.4V311.906H142.185C141.5 311.906 141.002 312.006 140.69 312.205C140.387 312.396 140.235 312.686 140.235 313.076C140.235 313.379 140.326 313.626 140.508 313.817C140.69 314.008 140.976 314.103 141.366 314.103ZM149.128 308.253H151.65C152.465 308.253 153.08 308.396 153.496 308.682C153.912 308.959 154.12 309.397 154.12 309.995C154.12 310.394 154.016 310.714 153.808 310.957C153.609 311.191 153.323 311.36 152.95 311.464C153.912 311.62 154.393 312.153 154.393 313.063C154.393 313.41 154.324 313.709 154.185 313.96C154.047 314.203 153.856 314.402 153.613 314.558C153.371 314.714 153.076 314.827 152.729 314.896C152.391 314.965 152.023 315 151.624 315H149.128V308.253ZM150.272 309.228V311.061H151.546C151.98 311.061 152.326 310.983 152.586 310.827C152.855 310.671 152.989 310.446 152.989 310.151C152.989 309.796 152.872 309.553 152.638 309.423C152.404 309.293 152.071 309.228 151.637 309.228H150.272ZM150.272 311.971V314.025H151.611C151.854 314.025 152.071 314.012 152.261 313.986C152.461 313.951 152.63 313.895 152.768 313.817C152.916 313.739 153.028 313.635 153.106 313.505C153.184 313.375 153.223 313.215 153.223 313.024C153.223 312.634 153.089 312.361 152.82 312.205C152.552 312.049 152.149 311.971 151.611 311.971H150.272ZM163.374 312.01H160.111V315H158.967V308.253H160.111V311.035H163.374V308.253H164.518V315H163.374V312.01ZM169.163 315.13C168.704 315.13 168.275 315.052 167.876 314.896C167.477 314.74 167.131 314.515 166.836 314.22C166.55 313.917 166.325 313.548 166.16 313.115C165.995 312.682 165.913 312.183 165.913 311.62C165.913 311.065 165.995 310.571 166.16 310.138C166.325 309.696 166.55 309.328 166.836 309.033C167.131 308.738 167.477 308.513 167.876 308.357C168.275 308.201 168.704 308.123 169.163 308.123C169.631 308.123 170.064 308.201 170.463 308.357C170.862 308.513 171.204 308.738 171.49 309.033C171.785 309.328 172.014 309.696 172.179 310.138C172.352 310.571 172.439 311.065 172.439 311.62C172.439 312.183 172.352 312.682 172.179 313.115C172.014 313.548 171.785 313.917 171.49 314.22C171.204 314.515 170.862 314.74 170.463 314.896C170.064 315.052 169.631 315.13 169.163 315.13ZM169.163 314.103C169.466 314.103 169.744 314.055 169.995 313.96C170.255 313.856 170.48 313.704 170.671 313.505C170.862 313.297 171.009 313.037 171.113 312.725C171.217 312.413 171.269 312.045 171.269 311.62C171.269 311.195 171.217 310.827 171.113 310.515C171.009 310.203 170.862 309.947 170.671 309.748C170.48 309.54 170.255 309.388 169.995 309.293C169.744 309.189 169.466 309.137 169.163 309.137C168.86 309.137 168.582 309.189 168.331 309.293C168.08 309.388 167.859 309.54 167.668 309.748C167.486 309.947 167.343 310.203 167.239 310.515C167.135 310.827 167.083 311.195 167.083 311.62C167.083 312.045 167.135 312.413 167.239 312.725C167.343 313.037 167.486 313.297 167.668 313.505C167.859 313.704 168.08 313.856 168.331 313.96C168.582 314.055 168.86 314.103 169.163 314.103ZM177.226 315.13C176.706 315.13 176.256 315.009 175.874 314.766C175.502 314.523 175.203 314.19 174.977 313.765V317.301H173.833V308.253H174.834L174.951 309.566C175.177 309.124 175.48 308.773 175.861 308.513C176.243 308.253 176.715 308.123 177.278 308.123C177.668 308.123 178.041 308.197 178.396 308.344C178.76 308.483 179.077 308.699 179.345 308.994C179.623 309.28 179.839 309.644 179.995 310.086C180.16 310.519 180.242 311.031 180.242 311.62C180.242 312.218 180.16 312.738 179.995 313.18C179.831 313.613 179.61 313.977 179.332 314.272C179.055 314.558 178.734 314.775 178.37 314.922C178.006 315.061 177.625 315.13 177.226 315.13ZM177.057 314.103C177.655 314.103 178.136 313.899 178.5 313.492C178.873 313.076 179.059 312.452 179.059 311.62C179.059 310.805 178.873 310.19 178.5 309.774C178.136 309.349 177.655 309.137 177.057 309.137C176.763 309.137 176.485 309.189 176.225 309.293C175.974 309.397 175.753 309.553 175.562 309.761C175.38 309.96 175.233 310.216 175.12 310.528C175.016 310.84 174.964 311.204 174.964 311.62C174.964 312.036 175.016 312.4 175.12 312.712C175.233 313.024 175.38 313.284 175.562 313.492C175.753 313.7 175.974 313.856 176.225 313.96C176.485 314.055 176.763 314.103 177.057 314.103ZM188.063 309.579L185.775 314.246H184.865L182.707 309.553V315H181.628V308.253H183.331L185.398 312.777L187.608 308.253H189.194V315H188.063V309.579ZM195.013 313.713C194.935 313.869 194.835 314.034 194.714 314.207C194.593 314.372 194.441 314.523 194.259 314.662C194.077 314.801 193.86 314.913 193.609 315C193.366 315.087 193.08 315.13 192.751 315.13C192.144 315.13 191.655 314.961 191.282 314.623C190.909 314.276 190.723 313.782 190.723 313.141C190.723 312.404 190.979 311.863 191.49 311.516C192.01 311.169 192.747 310.996 193.7 310.996H194.961V310.437C194.961 309.969 194.84 309.635 194.597 309.436C194.354 309.237 193.938 309.137 193.349 309.137C192.933 309.137 192.539 309.206 192.166 309.345C191.793 309.475 191.46 309.627 191.165 309.8V308.773C191.408 308.626 191.733 308.483 192.14 308.344C192.556 308.197 193.011 308.123 193.505 308.123C194.354 308.123 195 308.301 195.442 308.656C195.884 309.003 196.105 309.544 196.105 310.281V313.908C196.105 313.986 196.105 314.077 196.105 314.181C196.114 314.276 196.118 314.376 196.118 314.48C196.127 314.584 196.135 314.684 196.144 314.779C196.153 314.866 196.161 314.939 196.17 315H195.13C195.104 314.879 195.078 314.71 195.052 314.493C195.035 314.268 195.026 314.073 195.026 313.908L195.013 313.713ZM192.998 314.103C193.353 314.103 193.657 314.029 193.908 313.882C194.159 313.735 194.363 313.566 194.519 313.375C194.675 313.176 194.788 312.985 194.857 312.803C194.926 312.612 194.961 312.478 194.961 312.4V311.906H193.817C193.132 311.906 192.634 312.006 192.322 312.205C192.019 312.396 191.867 312.686 191.867 313.076C191.867 313.379 191.958 313.626 192.14 313.817C192.322 314.008 192.608 314.103 192.998 314.103ZM198.424 312.907C198.545 312.465 198.623 311.867 198.658 311.113C198.692 310.359 198.71 309.406 198.71 308.253H203.247V315H202.09V309.228H199.789C199.78 310.155 199.75 310.979 199.698 311.698C199.654 312.417 199.555 313.024 199.399 313.518C199.251 314.012 199.03 314.389 198.736 314.649C198.45 314.9 198.064 315.026 197.579 315.026C197.544 315.026 197.509 315.026 197.475 315.026C197.44 315.026 197.401 315.022 197.358 315.013V313.882C197.401 313.891 197.457 313.895 197.527 313.895C197.969 313.895 198.268 313.566 198.424 312.907ZM210.12 312.751C210.12 313.141 210.051 313.479 209.912 313.765C209.773 314.051 209.578 314.285 209.327 314.467C209.076 314.649 208.777 314.783 208.43 314.87C208.083 314.957 207.706 315 207.299 315H205.063V308.253H206.207V310.606H207.377C208.235 310.606 208.907 310.775 209.392 311.113C209.877 311.451 210.12 311.997 210.12 312.751ZM206.207 311.581V314.025H207.299C207.793 314.025 208.192 313.934 208.495 313.752C208.807 313.561 208.963 313.249 208.963 312.816C208.963 312.374 208.824 312.058 208.547 311.867C208.27 311.676 207.88 311.581 207.377 311.581H206.207ZM215.984 312.01H212.721V315H211.577V308.253H212.721V311.035H215.984V308.253H217.128V315H215.984V312.01ZM221.772 315.13C221.313 315.13 220.884 315.052 220.485 314.896C220.087 314.74 219.74 314.515 219.445 314.22C219.159 313.917 218.934 313.548 218.769 313.115C218.605 312.682 218.522 312.183 218.522 311.62C218.522 311.065 218.605 310.571 218.769 310.138C218.934 309.696 219.159 309.328 219.445 309.033C219.74 308.738 220.087 308.513 220.485 308.357C220.884 308.201 221.313 308.123 221.772 308.123C222.24 308.123 222.674 308.201 223.072 308.357C223.471 308.513 223.813 308.738 224.099 309.033C224.394 309.328 224.624 309.696 224.788 310.138C224.962 310.571 225.048 311.065 225.048 311.62C225.048 312.183 224.962 312.682 224.788 313.115C224.624 313.548 224.394 313.917 224.099 314.22C223.813 314.515 223.471 314.74 223.072 314.896C222.674 315.052 222.24 315.13 221.772 315.13ZM221.772 314.103C222.076 314.103 222.353 314.055 222.604 313.96C222.864 313.856 223.09 313.704 223.28 313.505C223.471 313.297 223.618 313.037 223.722 312.725C223.826 312.413 223.878 312.045 223.878 311.62C223.878 311.195 223.826 310.827 223.722 310.515C223.618 310.203 223.471 309.947 223.28 309.748C223.09 309.54 222.864 309.388 222.604 309.293C222.353 309.189 222.076 309.137 221.772 309.137C221.469 309.137 221.192 309.189 220.94 309.293C220.689 309.388 220.468 309.54 220.277 309.748C220.095 309.947 219.952 310.203 219.848 310.515C219.744 310.827 219.692 311.195 219.692 311.62C219.692 312.045 219.744 312.413 219.848 312.725C219.952 313.037 220.095 313.297 220.277 313.505C220.468 313.704 220.689 313.856 220.94 313.96C221.192 314.055 221.469 314.103 221.772 314.103ZM232.878 309.579L230.59 314.246H229.68L227.522 309.553V315H226.443V308.253H228.146L230.213 312.777L232.423 308.253H234.009V315H232.878V309.579ZM241.644 315.13C241.124 315.13 240.652 315.052 240.227 314.896C239.811 314.731 239.456 314.502 239.161 314.207C238.866 313.904 238.641 313.535 238.485 313.102C238.329 312.669 238.251 312.175 238.251 311.62C238.251 311.074 238.329 310.584 238.485 310.151C238.65 309.718 238.879 309.354 239.174 309.059C239.469 308.756 239.828 308.526 240.253 308.37C240.678 308.205 241.159 308.123 241.696 308.123C242.112 308.123 242.493 308.171 242.84 308.266C243.187 308.353 243.473 308.483 243.698 308.656V309.683C243.421 309.501 243.109 309.367 242.762 309.28C242.424 309.185 242.073 309.137 241.709 309.137C240.92 309.137 240.34 309.341 239.967 309.748C239.603 310.155 239.421 310.779 239.421 311.62C239.421 312.461 239.599 313.085 239.954 313.492C240.309 313.899 240.873 314.103 241.644 314.103C242.051 314.103 242.424 314.055 242.762 313.96C243.109 313.856 243.421 313.726 243.698 313.57V314.597C243.455 314.744 243.161 314.87 242.814 314.974C242.476 315.078 242.086 315.13 241.644 315.13ZM248.001 315.13C247.542 315.13 247.113 315.052 246.714 314.896C246.315 314.74 245.969 314.515 245.674 314.22C245.388 313.917 245.163 313.548 244.998 313.115C244.833 312.682 244.751 312.183 244.751 311.62C244.751 311.065 244.833 310.571 244.998 310.138C245.163 309.696 245.388 309.328 245.674 309.033C245.969 308.738 246.315 308.513 246.714 308.357C247.113 308.201 247.542 308.123 248.001 308.123C248.469 308.123 248.902 308.201 249.301 308.357C249.7 308.513 250.042 308.738 250.328 309.033C250.623 309.328 250.852 309.696 251.017 310.138C251.19 310.571 251.277 311.065 251.277 311.62C251.277 312.183 251.19 312.682 251.017 313.115C250.852 313.548 250.623 313.917 250.328 314.22C250.042 314.515 249.7 314.74 249.301 314.896C248.902 315.052 248.469 315.13 248.001 315.13ZM248.001 314.103C248.304 314.103 248.582 314.055 248.833 313.96C249.093 313.856 249.318 313.704 249.509 313.505C249.7 313.297 249.847 313.037 249.951 312.725C250.055 312.413 250.107 312.045 250.107 311.62C250.107 311.195 250.055 310.827 249.951 310.515C249.847 310.203 249.7 309.947 249.509 309.748C249.318 309.54 249.093 309.388 248.833 309.293C248.582 309.189 248.304 309.137 248.001 309.137C247.698 309.137 247.42 309.189 247.169 309.293C246.918 309.388 246.697 309.54 246.506 309.748C246.324 309.947 246.181 310.203 246.077 310.515C245.973 310.827 245.921 311.195 245.921 311.62C245.921 312.045 245.973 312.413 246.077 312.725C246.181 313.037 246.324 313.297 246.506 313.505C246.697 313.704 246.918 313.856 247.169 313.96C247.42 314.055 247.698 314.103 248.001 314.103ZM255.583 315.13C255.063 315.13 254.591 315.052 254.166 314.896C253.75 314.731 253.395 314.502 253.1 314.207C252.806 313.904 252.58 313.535 252.424 313.102C252.268 312.669 252.19 312.175 252.19 311.62C252.19 311.074 252.268 310.584 252.424 310.151C252.589 309.718 252.819 309.354 253.113 309.059C253.408 308.756 253.768 308.526 254.192 308.37C254.617 308.205 255.098 308.123 255.635 308.123C256.051 308.123 256.433 308.171 256.779 308.266C257.126 308.353 257.412 308.483 257.637 308.656V309.683C257.36 309.501 257.048 309.367 256.701 309.28C256.363 309.185 256.012 309.137 255.648 309.137C254.86 309.137 254.279 309.341 253.906 309.748C253.542 310.155 253.36 310.779 253.36 311.62C253.36 312.461 253.538 313.085 253.893 313.492C254.249 313.899 254.812 314.103 255.583 314.103C255.991 314.103 256.363 314.055 256.701 313.96C257.048 313.856 257.36 313.726 257.637 313.57V314.597C257.395 314.744 257.1 314.87 256.753 314.974C256.415 315.078 256.025 315.13 255.583 315.13ZM261.888 309.228V315H260.744V309.228H258.625V308.253H264.046V309.228H261.888ZM267.945 315.13C267.486 315.13 267.057 315.052 266.658 314.896C266.26 314.74 265.913 314.515 265.618 314.22C265.332 313.917 265.107 313.548 264.942 313.115C264.778 312.682 264.695 312.183 264.695 311.62C264.695 311.065 264.778 310.571 264.942 310.138C265.107 309.696 265.332 309.328 265.618 309.033C265.913 308.738 266.26 308.513 266.658 308.357C267.057 308.201 267.486 308.123 267.945 308.123C268.413 308.123 268.847 308.201 269.245 308.357C269.644 308.513 269.986 308.738 270.272 309.033C270.567 309.328 270.797 309.696 270.961 310.138C271.135 310.571 271.221 311.065 271.221 311.62C271.221 312.183 271.135 312.682 270.961 313.115C270.797 313.548 270.567 313.917 270.272 314.22C269.986 314.515 269.644 314.74 269.245 314.896C268.847 315.052 268.413 315.13 267.945 315.13ZM267.945 314.103C268.249 314.103 268.526 314.055 268.777 313.96C269.037 313.856 269.263 313.704 269.453 313.505C269.644 313.297 269.791 313.037 269.895 312.725C269.999 312.413 270.051 312.045 270.051 311.62C270.051 311.195 269.999 310.827 269.895 310.515C269.791 310.203 269.644 309.947 269.453 309.748C269.263 309.54 269.037 309.388 268.777 309.293C268.526 309.189 268.249 309.137 267.945 309.137C267.642 309.137 267.365 309.189 267.113 309.293C266.862 309.388 266.641 309.54 266.45 309.748C266.268 309.947 266.125 310.203 266.021 310.515C265.917 310.827 265.865 311.195 265.865 311.62C265.865 312.045 265.917 312.413 266.021 312.725C266.125 313.037 266.268 313.297 266.45 313.505C266.641 313.704 266.862 313.856 267.113 313.96C267.365 314.055 267.642 314.103 267.945 314.103ZM272.552 310.437C272.552 310.056 272.622 309.731 272.76 309.462C272.899 309.185 273.094 308.959 273.345 308.786C273.597 308.604 273.896 308.47 274.242 308.383C274.589 308.296 274.966 308.253 275.373 308.253H277.544V315H276.4V312.556H275.165L273.436 315H272.071L274.021 312.27C273.553 312.131 273.189 311.919 272.929 311.633C272.678 311.347 272.552 310.948 272.552 310.437ZM276.4 311.581V309.228H275.373C274.888 309.228 274.489 309.319 274.177 309.501C273.865 309.683 273.709 309.978 273.709 310.385C273.709 310.81 273.848 311.117 274.125 311.308C274.403 311.49 274.797 311.581 275.308 311.581H276.4ZM283.827 312.01H280.564V315H279.42V308.253H280.564V311.035H283.827V308.253H284.971V315H283.827V312.01ZM287.991 313.44L291.592 308.253H292.749V315H291.605V309.826L288.017 315H286.847V308.253H287.991V313.44ZM295.761 313.44L299.362 308.253H300.519V315H299.375V309.826L295.787 315H294.617V308.253H295.761V313.44ZM308.636 315.13C308.116 315.13 307.665 315.009 307.284 314.766C306.911 314.523 306.612 314.19 306.387 313.765V317.301H305.243V308.253H306.244L306.361 309.566C306.586 309.124 306.889 308.773 307.271 308.513C307.652 308.253 308.124 308.123 308.688 308.123C309.078 308.123 309.45 308.197 309.806 308.344C310.17 308.483 310.486 308.699 310.755 308.994C311.032 309.28 311.249 309.644 311.405 310.086C311.569 310.519 311.652 311.031 311.652 311.62C311.652 312.218 311.569 312.738 311.405 313.18C311.24 313.613 311.019 313.977 310.742 314.272C310.464 314.558 310.144 314.775 309.78 314.922C309.416 315.061 309.034 315.13 308.636 315.13ZM308.467 314.103C309.065 314.103 309.546 313.899 309.91 313.492C310.282 313.076 310.469 312.452 310.469 311.62C310.469 310.805 310.282 310.19 309.91 309.774C309.546 309.349 309.065 309.137 308.467 309.137C308.172 309.137 307.895 309.189 307.635 309.293C307.383 309.397 307.162 309.553 306.972 309.761C306.79 309.96 306.642 310.216 306.53 310.528C306.426 310.84 306.374 311.204 306.374 311.62C306.374 312.036 306.426 312.4 306.53 312.712C306.642 313.024 306.79 313.284 306.972 313.492C307.162 313.7 307.383 313.856 307.635 313.96C307.895 314.055 308.172 314.103 308.467 314.103ZM316.926 313.713C316.848 313.869 316.748 314.034 316.627 314.207C316.506 314.372 316.354 314.523 316.172 314.662C315.99 314.801 315.773 314.913 315.522 315C315.279 315.087 314.993 315.13 314.664 315.13C314.057 315.13 313.568 314.961 313.195 314.623C312.822 314.276 312.636 313.782 312.636 313.141C312.636 312.404 312.892 311.863 313.403 311.516C313.923 311.169 314.66 310.996 315.613 310.996H316.874V310.437C316.874 309.969 316.753 309.635 316.51 309.436C316.267 309.237 315.851 309.137 315.262 309.137C314.846 309.137 314.452 309.206 314.079 309.345C313.706 309.475 313.373 309.627 313.078 309.8V308.773C313.321 308.626 313.646 308.483 314.053 308.344C314.469 308.197 314.924 308.123 315.418 308.123C316.267 308.123 316.913 308.301 317.355 308.656C317.797 309.003 318.018 309.544 318.018 310.281V313.908C318.018 313.986 318.018 314.077 318.018 314.181C318.027 314.276 318.031 314.376 318.031 314.48C318.04 314.584 318.048 314.684 318.057 314.779C318.066 314.866 318.074 314.939 318.083 315H317.043C317.017 314.879 316.991 314.71 316.965 314.493C316.948 314.268 316.939 314.073 316.939 313.908L316.926 313.713ZM314.911 314.103C315.266 314.103 315.57 314.029 315.821 313.882C316.072 313.735 316.276 313.566 316.432 313.375C316.588 313.176 316.701 312.985 316.77 312.803C316.839 312.612 316.874 312.478 316.874 312.4V311.906H315.73C315.045 311.906 314.547 312.006 314.235 312.205C313.932 312.396 313.78 312.686 313.78 313.076C313.78 313.379 313.871 313.626 314.053 313.817C314.235 314.008 314.521 314.103 314.911 314.103ZM322.729 315.13C322.209 315.13 321.737 315.052 321.312 314.896C320.896 314.731 320.541 314.502 320.246 314.207C319.951 313.904 319.726 313.535 319.57 313.102C319.414 312.669 319.336 312.175 319.336 311.62C319.336 311.074 319.414 310.584 319.57 310.151C319.735 309.718 319.964 309.354 320.259 309.059C320.554 308.756 320.913 308.526 321.338 308.37C321.763 308.205 322.244 308.123 322.781 308.123C323.197 308.123 323.578 308.171 323.925 308.266C324.272 308.353 324.558 308.483 324.783 308.656V309.683C324.506 309.501 324.194 309.367 323.847 309.28C323.509 309.185 323.158 309.137 322.794 309.137C322.005 309.137 321.425 309.341 321.052 309.748C320.688 310.155 320.506 310.779 320.506 311.62C320.506 312.461 320.684 313.085 321.039 313.492C321.394 313.899 321.958 314.103 322.729 314.103C323.136 314.103 323.509 314.055 323.847 313.96C324.194 313.856 324.506 313.726 324.783 313.57V314.597C324.54 314.744 324.246 314.87 323.899 314.974C323.561 315.078 323.171 315.13 322.729 315.13ZM326.317 308.253H331.725V315H330.581V309.228H327.461V315H326.317V308.253ZM336.984 315.13C336.464 315.13 336.014 315.009 335.632 314.766C335.26 314.523 334.961 314.19 334.735 313.765V317.301H333.591V308.253H334.592L334.709 309.566C334.935 309.124 335.238 308.773 335.619 308.513C336.001 308.253 336.473 308.123 337.036 308.123C337.426 308.123 337.799 308.197 338.154 308.344C338.518 308.483 338.835 308.699 339.103 308.994C339.381 309.28 339.597 309.644 339.753 310.086C339.918 310.519 340 311.031 340 311.62C340 312.218 339.918 312.738 339.753 313.18C339.589 313.613 339.368 313.977 339.09 314.272C338.813 314.558 338.492 314.775 338.128 314.922C337.764 315.061 337.383 315.13 336.984 315.13ZM336.815 314.103C337.413 314.103 337.894 313.899 338.258 313.492C338.631 313.076 338.817 312.452 338.817 311.62C338.817 310.805 338.631 310.19 338.258 309.774C337.894 309.349 337.413 309.137 336.815 309.137C336.521 309.137 336.243 309.189 335.983 309.293C335.732 309.397 335.511 309.553 335.32 309.761C335.138 309.96 334.991 310.216 334.878 310.528C334.774 310.84 334.722 311.204 334.722 311.62C334.722 312.036 334.774 312.4 334.878 312.712C334.991 313.024 335.138 313.284 335.32 313.492C335.511 313.7 335.732 313.856 335.983 313.96C336.243 314.055 336.521 314.103 336.815 314.103ZM346.755 314.428C346.66 314.497 346.543 314.571 346.404 314.649C346.266 314.727 346.097 314.805 345.897 314.883C345.698 314.952 345.473 315.009 345.221 315.052C344.97 315.104 344.688 315.13 344.376 315.13C343.241 315.13 342.379 314.822 341.789 314.207C341.2 313.592 340.905 312.729 340.905 311.62C340.905 311.074 340.983 310.584 341.139 310.151C341.304 309.718 341.529 309.354 341.815 309.059C342.101 308.756 342.439 308.526 342.829 308.37C343.219 308.205 343.644 308.123 344.103 308.123C344.589 308.123 345.022 308.205 345.403 308.37C345.785 308.535 346.097 308.777 346.339 309.098C346.591 309.419 346.76 309.817 346.846 310.294C346.942 310.762 346.942 311.308 346.846 311.932H342.088C342.132 312.66 342.348 313.206 342.738 313.57C343.128 313.925 343.709 314.103 344.48 314.103C345 314.103 345.447 314.029 345.819 313.882C346.192 313.735 346.504 313.574 346.755 313.401V314.428ZM344.077 309.137C343.583 309.137 343.159 309.289 342.803 309.592C342.448 309.895 342.223 310.355 342.127 310.97H345.754C345.789 310.346 345.646 309.887 345.325 309.592C345.005 309.289 344.589 309.137 344.077 309.137ZM348.017 314.025C348.26 313.878 348.451 313.648 348.589 313.336C348.728 313.024 348.836 312.63 348.914 312.153C348.992 311.676 349.044 311.113 349.07 310.463C349.105 309.813 349.135 309.076 349.161 308.253H353.802V314.025H354.816V316.924H353.815L353.672 315H348.654L348.537 316.924H347.51V314.025H348.017ZM352.658 314.025V309.228H350.188C350.145 310.502 350.063 311.525 349.941 312.296C349.829 313.059 349.629 313.635 349.343 314.025H352.658ZM361.253 314.428C361.158 314.497 361.041 314.571 360.902 314.649C360.764 314.727 360.595 314.805 360.395 314.883C360.196 314.952 359.971 315.009 359.719 315.052C359.468 315.104 359.186 315.13 358.874 315.13C357.739 315.13 356.877 314.822 356.287 314.207C355.698 313.592 355.403 312.729 355.403 311.62C355.403 311.074 355.481 310.584 355.637 310.151C355.802 309.718 356.027 309.354 356.313 309.059C356.599 308.756 356.937 308.526 357.327 308.37C357.717 308.205 358.142 308.123 358.601 308.123C359.087 308.123 359.52 308.205 359.901 308.37C360.283 308.535 360.595 308.777 360.837 309.098C361.089 309.419 361.258 309.817 361.344 310.294C361.44 310.762 361.44 311.308 361.344 311.932H356.586C356.63 312.66 356.846 313.206 357.236 313.57C357.626 313.925 358.207 314.103 358.978 314.103C359.498 314.103 359.945 314.029 360.317 313.882C360.69 313.735 361.002 313.574 361.253 313.401V314.428ZM358.575 309.137C358.081 309.137 357.657 309.289 357.301 309.592C356.946 309.895 356.721 310.355 356.625 310.97H360.252C360.287 310.346 360.144 309.887 359.823 309.592C359.503 309.289 359.087 309.137 358.575 309.137ZM363.399 312.907C363.521 312.465 363.599 311.867 363.633 311.113C363.668 310.359 363.685 309.406 363.685 308.253H368.222V315H367.065V309.228H364.764C364.756 310.155 364.725 310.979 364.673 311.698C364.63 312.417 364.53 313.024 364.374 313.518C364.227 314.012 364.006 314.389 363.711 314.649C363.425 314.9 363.04 315.026 362.554 315.026C362.52 315.026 362.485 315.026 362.45 315.026C362.416 315.026 362.377 315.022 362.333 315.013V313.882C362.377 313.891 362.433 313.895 362.502 313.895C362.944 313.895 363.243 313.566 363.399 312.907ZM370.078 310.437C370.078 310.056 370.147 309.731 370.286 309.462C370.424 309.185 370.619 308.959 370.871 308.786C371.122 308.604 371.421 308.47 371.768 308.383C372.114 308.296 372.491 308.253 372.899 308.253H375.07V315H373.926V312.556H372.691L370.962 315H369.597L371.547 312.27C371.079 312.131 370.715 311.919 370.455 311.633C370.203 311.347 370.078 310.948 370.078 310.437ZM373.926 311.581V309.228H372.899C372.413 309.228 372.015 309.319 371.703 309.501C371.391 309.683 371.235 309.978 371.235 310.385C371.235 310.81 371.373 311.117 371.651 311.308C371.928 311.49 372.322 311.581 372.834 311.581H373.926ZM382.315 314.428C382.219 314.497 382.102 314.571 381.964 314.649C381.825 314.727 381.656 314.805 381.457 314.883C381.257 314.952 381.032 315.009 380.781 315.052C380.529 315.104 380.248 315.13 379.936 315.13C378.8 315.13 377.938 314.822 377.349 314.207C376.759 313.592 376.465 312.729 376.465 311.62C376.465 311.074 376.543 310.584 376.699 310.151C376.863 309.718 377.089 309.354 377.375 309.059C377.661 308.756 377.999 308.526 378.389 308.37C378.779 308.205 379.203 308.123 379.663 308.123C380.148 308.123 380.581 308.205 380.963 308.37C381.344 308.535 381.656 308.777 381.899 309.098C382.15 309.419 382.319 309.817 382.406 310.294C382.501 310.762 382.501 311.308 382.406 311.932H377.648C377.691 312.66 377.908 313.206 378.298 313.57C378.688 313.925 379.268 314.103 380.04 314.103C380.56 314.103 381.006 314.029 381.379 313.882C381.751 313.735 382.063 313.574 382.315 313.401V314.428ZM379.637 309.137C379.143 309.137 378.718 309.289 378.363 309.592C378.007 309.895 377.782 310.355 377.687 310.97H381.314C381.348 310.346 381.205 309.887 380.885 309.592C380.564 309.289 380.148 309.137 379.637 309.137ZM386.594 309.228V315H385.45V309.228H383.331V308.253H388.752V309.228H386.594ZM392.794 315.13C392.274 315.13 391.802 315.052 391.377 314.896C390.961 314.731 390.606 314.502 390.311 314.207C390.017 313.904 389.791 313.535 389.635 313.102C389.479 312.669 389.401 312.175 389.401 311.62C389.401 311.074 389.479 310.584 389.635 310.151C389.8 309.718 390.03 309.354 390.324 309.059C390.619 308.756 390.979 308.526 391.403 308.37C391.828 308.205 392.309 308.123 392.846 308.123C393.262 308.123 393.644 308.171 393.99 308.266C394.337 308.353 394.623 308.483 394.848 308.656V309.683C394.571 309.501 394.259 309.367 393.912 309.28C393.574 309.185 393.223 309.137 392.859 309.137C392.071 309.137 391.49 309.341 391.117 309.748C390.753 310.155 390.571 310.779 390.571 311.62C390.571 312.461 390.749 313.085 391.104 313.492C391.46 313.899 392.023 314.103 392.794 314.103C393.202 314.103 393.574 314.055 393.912 313.96C394.259 313.856 394.571 313.726 394.848 313.57V314.597C394.606 314.744 394.311 314.87 393.964 314.974C393.626 315.078 393.236 315.13 392.794 315.13ZM396.382 310.437C396.382 310.056 396.452 309.731 396.59 309.462C396.729 309.185 396.924 308.959 397.175 308.786C397.427 308.604 397.726 308.47 398.072 308.383C398.419 308.296 398.796 308.253 399.203 308.253H401.374V315H400.23V312.556H398.995L397.266 315H395.901L397.851 312.27C397.383 312.131 397.019 311.919 396.759 311.633C396.508 311.347 396.382 310.948 396.382 310.437ZM400.23 311.581V309.228H399.203C398.718 309.228 398.319 309.319 398.007 309.501C397.695 309.683 397.539 309.978 397.539 310.385C397.539 310.81 397.678 311.117 397.955 311.308C398.233 311.49 398.627 311.581 399.138 311.581H400.23ZM126.924 322.253H132.332V329H131.188V323.228H128.068V329H126.924V322.253ZM136.968 329.13C136.508 329.13 136.079 329.052 135.681 328.896C135.282 328.74 134.935 328.515 134.641 328.22C134.355 327.917 134.129 327.548 133.965 327.115C133.8 326.682 133.718 326.183 133.718 325.62C133.718 325.065 133.8 324.571 133.965 324.138C134.129 323.696 134.355 323.328 134.641 323.033C134.935 322.738 135.282 322.513 135.681 322.357C136.079 322.201 136.508 322.123 136.968 322.123C137.436 322.123 137.869 322.201 138.268 322.357C138.666 322.513 139.009 322.738 139.295 323.033C139.589 323.328 139.819 323.696 139.984 324.138C140.157 324.571 140.244 325.065 140.244 325.62C140.244 326.183 140.157 326.682 139.984 327.115C139.819 327.548 139.589 327.917 139.295 328.22C139.009 328.515 138.666 328.74 138.268 328.896C137.869 329.052 137.436 329.13 136.968 329.13ZM136.968 328.103C137.271 328.103 137.548 328.055 137.8 327.96C138.06 327.856 138.285 327.704 138.476 327.505C138.666 327.297 138.814 327.037 138.918 326.725C139.022 326.413 139.074 326.045 139.074 325.62C139.074 325.195 139.022 324.827 138.918 324.515C138.814 324.203 138.666 323.947 138.476 323.748C138.285 323.54 138.06 323.388 137.8 323.293C137.548 323.189 137.271 323.137 136.968 323.137C136.664 323.137 136.387 323.189 136.136 323.293C135.884 323.388 135.663 323.54 135.473 323.748C135.291 323.947 135.148 324.203 135.044 324.515C134.94 324.827 134.888 325.195 134.888 325.62C134.888 326.045 134.94 326.413 135.044 326.725C135.148 327.037 135.291 327.297 135.473 327.505C135.663 327.704 135.884 327.856 136.136 327.96C136.387 328.055 136.664 328.103 136.968 328.103ZM144.495 322.253H147.017C147.831 322.253 148.447 322.396 148.863 322.682C149.279 322.959 149.487 323.397 149.487 323.995C149.487 324.394 149.383 324.714 149.175 324.957C148.975 325.191 148.689 325.36 148.317 325.464C149.279 325.62 149.76 326.153 149.76 327.063C149.76 327.41 149.69 327.709 149.552 327.96C149.413 328.203 149.222 328.402 148.98 328.558C148.737 328.714 148.442 328.827 148.096 328.896C147.758 328.965 147.389 329 146.991 329H144.495V322.253ZM145.639 323.228V325.061H146.913C147.346 325.061 147.693 324.983 147.953 324.827C148.221 324.671 148.356 324.446 148.356 324.151C148.356 323.796 148.239 323.553 148.005 323.423C147.771 323.293 147.437 323.228 147.004 323.228H145.639ZM145.639 325.971V328.025H146.978C147.22 328.025 147.437 328.012 147.628 327.986C147.827 327.951 147.996 327.895 148.135 327.817C148.282 327.739 148.395 327.635 148.473 327.505C148.551 327.375 148.59 327.215 148.59 327.024C148.59 326.634 148.455 326.361 148.187 326.205C147.918 326.049 147.515 325.971 146.978 325.971H145.639ZM154.389 329.13C153.869 329.13 153.397 329.052 152.972 328.896C152.556 328.731 152.201 328.502 151.906 328.207C151.611 327.904 151.386 327.535 151.23 327.102C151.074 326.669 150.996 326.175 150.996 325.62C150.996 325.074 151.074 324.584 151.23 324.151C151.395 323.718 151.624 323.354 151.919 323.059C152.214 322.756 152.573 322.526 152.998 322.37C153.423 322.205 153.904 322.123 154.441 322.123C154.857 322.123 155.238 322.171 155.585 322.266C155.932 322.353 156.218 322.483 156.443 322.656V323.683C156.166 323.501 155.854 323.367 155.507 323.28C155.169 323.185 154.818 323.137 154.454 323.137C153.665 323.137 153.085 323.341 152.712 323.748C152.348 324.155 152.166 324.779 152.166 325.62C152.166 326.461 152.344 327.085 152.699 327.492C153.054 327.899 153.618 328.103 154.389 328.103C154.796 328.103 155.169 328.055 155.507 327.96C155.854 327.856 156.166 327.726 156.443 327.57V328.597C156.2 328.744 155.906 328.87 155.559 328.974C155.221 329.078 154.831 329.13 154.389 329.13ZM163.346 328.428C163.251 328.497 163.134 328.571 162.995 328.649C162.856 328.727 162.687 328.805 162.488 328.883C162.289 328.952 162.063 329.009 161.812 329.052C161.561 329.104 161.279 329.13 160.967 329.13C159.832 329.13 158.969 328.822 158.38 328.207C157.791 327.592 157.496 326.729 157.496 325.62C157.496 325.074 157.574 324.584 157.73 324.151C157.895 323.718 158.12 323.354 158.406 323.059C158.692 322.756 159.03 322.526 159.42 322.37C159.81 322.205 160.235 322.123 160.694 322.123C161.179 322.123 161.613 322.205 161.994 322.37C162.375 322.535 162.687 322.777 162.93 323.098C163.181 323.419 163.35 323.817 163.437 324.294C163.532 324.762 163.532 325.308 163.437 325.932H158.679C158.722 326.66 158.939 327.206 159.329 327.57C159.719 327.925 160.3 328.103 161.071 328.103C161.591 328.103 162.037 328.029 162.41 327.882C162.783 327.735 163.095 327.574 163.346 327.401V328.428ZM160.668 323.137C160.174 323.137 159.749 323.289 159.394 323.592C159.039 323.895 158.813 324.355 158.718 324.97H162.345C162.38 324.346 162.237 323.887 161.916 323.592C161.595 323.289 161.179 323.137 160.668 323.137ZM167.949 321.356C167.602 321.356 167.299 321.313 167.039 321.226C166.788 321.131 166.575 321.005 166.402 320.849C166.237 320.684 166.112 320.498 166.025 320.29C165.947 320.073 165.908 319.839 165.908 319.588H167.052C167.052 319.917 167.13 320.156 167.286 320.303C167.451 320.45 167.672 320.524 167.949 320.524C168.226 320.524 168.443 320.45 168.599 320.303C168.755 320.156 168.833 319.917 168.833 319.588H169.977C169.977 320.082 169.808 320.502 169.47 320.849C169.141 321.187 168.634 321.356 167.949 321.356ZM166.116 327.44L169.717 322.253H170.874V329H169.73V323.826L166.142 329H164.972V322.253H166.116V327.44ZM178.51 329.13C177.99 329.13 177.518 329.052 177.093 328.896C176.677 328.731 176.322 328.502 176.027 328.207C175.732 327.904 175.507 327.535 175.351 327.102C175.195 326.669 175.117 326.175 175.117 325.62C175.117 325.074 175.195 324.584 175.351 324.151C175.516 323.718 175.745 323.354 176.04 323.059C176.335 322.756 176.694 322.526 177.119 322.37C177.544 322.205 178.025 322.123 178.562 322.123C178.978 322.123 179.359 322.171 179.706 322.266C180.053 322.353 180.339 322.483 180.564 322.656V323.683C180.287 323.501 179.975 323.367 179.628 323.28C179.29 323.185 178.939 323.137 178.575 323.137C177.786 323.137 177.206 323.341 176.833 323.748C176.469 324.155 176.287 324.779 176.287 325.62C176.287 326.461 176.465 327.085 176.82 327.492C177.175 327.899 177.739 328.103 178.51 328.103C178.917 328.103 179.29 328.055 179.628 327.96C179.975 327.856 180.287 327.726 180.564 327.57V328.597C180.321 328.744 180.027 328.87 179.68 328.974C179.342 329.078 178.952 329.13 178.51 329.13ZM183.242 327.44L186.843 322.253H188V329H186.856V323.826L183.268 329H182.098V322.253H183.242V327.44ZM192.78 329.13C192.26 329.13 191.787 329.052 191.363 328.896C190.947 328.731 190.591 328.502 190.297 328.207C190.002 327.904 189.777 327.535 189.621 327.102C189.465 326.669 189.387 326.175 189.387 325.62C189.387 325.074 189.465 324.584 189.621 324.151C189.785 323.718 190.015 323.354 190.31 323.059C190.604 322.756 190.964 322.526 191.389 322.37C191.813 322.205 192.294 322.123 192.832 322.123C193.248 322.123 193.629 322.171 193.976 322.266C194.322 322.353 194.608 322.483 194.834 322.656V323.683C194.556 323.501 194.244 323.367 193.898 323.28C193.56 323.185 193.209 323.137 192.845 323.137C192.056 323.137 191.475 323.341 191.103 323.748C190.739 324.155 190.557 324.779 190.557 325.62C190.557 326.461 190.734 327.085 191.09 327.492C191.445 327.899 192.008 328.103 192.78 328.103C193.187 328.103 193.56 328.055 193.898 327.96C194.244 327.856 194.556 327.726 194.834 327.57V328.597C194.591 328.744 194.296 328.87 193.95 328.974C193.612 329.078 193.222 329.13 192.78 329.13ZM199.085 323.228V329H197.941V323.228H195.822V322.253H201.243V323.228H199.085ZM207.742 328.428C207.646 328.497 207.529 328.571 207.391 328.649C207.252 328.727 207.083 328.805 206.884 328.883C206.684 328.952 206.459 329.009 206.208 329.052C205.956 329.104 205.675 329.13 205.363 329.13C204.227 329.13 203.365 328.822 202.776 328.207C202.186 327.592 201.892 326.729 201.892 325.62C201.892 325.074 201.97 324.584 202.126 324.151C202.29 323.718 202.516 323.354 202.802 323.059C203.088 322.756 203.426 322.526 203.816 322.37C204.206 322.205 204.63 322.123 205.09 322.123C205.575 322.123 206.008 322.205 206.39 322.37C206.771 322.535 207.083 322.777 207.326 323.098C207.577 323.419 207.746 323.817 207.833 324.294C207.928 324.762 207.928 325.308 207.833 325.932H203.075C203.118 326.66 203.335 327.206 203.725 327.57C204.115 327.925 204.695 328.103 205.467 328.103C205.987 328.103 206.433 328.029 206.806 327.882C207.178 327.735 207.49 327.574 207.742 327.401V328.428ZM205.064 323.137C204.57 323.137 204.145 323.289 203.79 323.592C203.434 323.895 203.209 324.355 203.114 324.97H206.741C206.775 324.346 206.632 323.887 206.312 323.592C205.991 323.289 205.575 323.137 205.064 323.137ZM215.803 323.579L213.515 328.246H212.605L210.447 323.553V329H209.368V322.253H211.071L213.138 326.777L215.348 322.253H216.934V329H215.803V323.579ZM224.169 328.428C224.074 328.497 223.957 328.571 223.818 328.649C223.68 328.727 223.511 328.805 223.311 328.883C223.112 328.952 222.887 329.009 222.635 329.052C222.384 329.104 222.102 329.13 221.79 329.13C220.655 329.13 219.793 328.822 219.203 328.207C218.614 327.592 218.319 326.729 218.319 325.62C218.319 325.074 218.397 324.584 218.553 324.151C218.718 323.718 218.943 323.354 219.229 323.059C219.515 322.756 219.853 322.526 220.243 322.37C220.633 322.205 221.058 322.123 221.517 322.123C222.003 322.123 222.436 322.205 222.817 322.37C223.199 322.535 223.511 322.777 223.753 323.098C224.005 323.419 224.174 323.817 224.26 324.294C224.356 324.762 224.356 325.308 224.26 325.932H219.502C219.546 326.66 219.762 327.206 220.152 327.57C220.542 327.925 221.123 328.103 221.894 328.103C222.414 328.103 222.861 328.029 223.233 327.882C223.606 327.735 223.918 327.574 224.169 327.401V328.428ZM221.491 323.137C220.997 323.137 220.573 323.289 220.217 323.592C219.862 323.895 219.637 324.355 219.541 324.97H223.168C223.203 324.346 223.06 323.887 222.739 323.592C222.419 323.289 222.003 323.137 221.491 323.137ZM228.652 322.253H234.06V329H232.916V323.228H229.796V329H228.652V322.253ZM239.319 329.13C238.799 329.13 238.349 329.009 237.967 328.766C237.595 328.523 237.296 328.19 237.07 327.765V331.301H235.926V322.253H236.927L237.044 323.566C237.27 323.124 237.573 322.773 237.954 322.513C238.336 322.253 238.808 322.123 239.371 322.123C239.761 322.123 240.134 322.197 240.489 322.344C240.853 322.483 241.17 322.699 241.438 322.994C241.716 323.28 241.932 323.644 242.088 324.086C242.253 324.519 242.335 325.031 242.335 325.62C242.335 326.218 242.253 326.738 242.088 327.18C241.924 327.613 241.703 327.977 241.425 328.272C241.148 328.558 240.827 328.775 240.463 328.922C240.099 329.061 239.718 329.13 239.319 329.13ZM239.15 328.103C239.748 328.103 240.229 327.899 240.593 327.492C240.966 327.076 241.152 326.452 241.152 325.62C241.152 324.805 240.966 324.19 240.593 323.774C240.229 323.349 239.748 323.137 239.15 323.137C238.856 323.137 238.578 323.189 238.318 323.293C238.067 323.397 237.846 323.553 237.655 323.761C237.473 323.96 237.326 324.216 237.213 324.528C237.109 324.84 237.057 325.204 237.057 325.62C237.057 326.036 237.109 326.4 237.213 326.712C237.326 327.024 237.473 327.284 237.655 327.492C237.846 327.7 238.067 327.856 238.318 327.96C238.578 328.055 238.856 328.103 239.15 328.103ZM244.865 327.44L248.466 322.253H249.623V329H248.479V323.826L244.891 329H243.721V322.253H244.865V327.44ZM257.926 323.579L255.638 328.246H254.728L252.57 323.553V329H251.491V322.253H253.194L255.261 326.777L257.471 322.253H259.057V329H257.926V323.579ZM266.292 328.428C266.197 328.497 266.08 328.571 265.941 328.649C265.803 328.727 265.634 328.805 265.434 328.883C265.235 328.952 265.01 329.009 264.758 329.052C264.507 329.104 264.225 329.13 263.913 329.13C262.778 329.13 261.916 328.822 261.326 328.207C260.737 327.592 260.442 326.729 260.442 325.62C260.442 325.074 260.52 324.584 260.676 324.151C260.841 323.718 261.066 323.354 261.352 323.059C261.638 322.756 261.976 322.526 262.366 322.37C262.756 322.205 263.181 322.123 263.64 322.123C264.126 322.123 264.559 322.205 264.94 322.37C265.322 322.535 265.634 322.777 265.876 323.098C266.128 323.419 266.297 323.817 266.383 324.294C266.479 324.762 266.479 325.308 266.383 325.932H261.625C261.669 326.66 261.885 327.206 262.275 327.57C262.665 327.925 263.246 328.103 264.017 328.103C264.537 328.103 264.984 328.029 265.356 327.882C265.729 327.735 266.041 327.574 266.292 327.401V328.428ZM263.614 323.137C263.12 323.137 262.696 323.289 262.34 323.592C261.985 323.895 261.76 324.355 261.664 324.97H265.291C265.326 324.346 265.183 323.887 264.862 323.592C264.542 323.289 264.126 323.137 263.614 323.137ZM271.311 329.13C270.791 329.13 270.341 329.009 269.959 328.766C269.587 328.523 269.288 328.19 269.062 327.765V331.301H267.918V322.253H268.919L269.036 323.566C269.262 323.124 269.565 322.773 269.946 322.513C270.328 322.253 270.8 322.123 271.363 322.123C271.753 322.123 272.126 322.197 272.481 322.344C272.845 322.483 273.162 322.699 273.43 322.994C273.708 323.28 273.924 323.644 274.08 324.086C274.245 324.519 274.327 325.031 274.327 325.62C274.327 326.218 274.245 326.738 274.08 327.18C273.916 327.613 273.695 327.977 273.417 328.272C273.14 328.558 272.819 328.775 272.455 328.922C272.091 329.061 271.71 329.13 271.311 329.13ZM271.142 328.103C271.74 328.103 272.221 327.899 272.585 327.492C272.958 327.076 273.144 326.452 273.144 325.62C273.144 324.805 272.958 324.19 272.585 323.774C272.221 323.349 271.74 323.137 271.142 323.137C270.848 323.137 270.57 323.189 270.31 323.293C270.059 323.397 269.838 323.553 269.647 323.761C269.465 323.96 269.318 324.216 269.205 324.528C269.101 324.84 269.049 325.204 269.049 325.62C269.049 326.036 269.101 326.4 269.205 326.712C269.318 327.024 269.465 327.284 269.647 327.492C269.838 327.7 270.059 327.856 270.31 327.96C270.57 328.055 270.848 328.103 271.142 328.103ZM280.12 326.01H276.857V329H275.713V322.253H276.857V325.035H280.12V322.253H281.264V329H280.12V326.01ZM285.909 329.13C285.45 329.13 285.021 329.052 284.622 328.896C284.223 328.74 283.877 328.515 283.582 328.22C283.296 327.917 283.071 327.548 282.906 327.115C282.741 326.682 282.659 326.183 282.659 325.62C282.659 325.065 282.741 324.571 282.906 324.138C283.071 323.696 283.296 323.328 283.582 323.033C283.877 322.738 284.223 322.513 284.622 322.357C285.021 322.201 285.45 322.123 285.909 322.123C286.377 322.123 286.81 322.201 287.209 322.357C287.608 322.513 287.95 322.738 288.236 323.033C288.531 323.328 288.76 323.696 288.925 324.138C289.098 324.571 289.185 325.065 289.185 325.62C289.185 326.183 289.098 326.682 288.925 327.115C288.76 327.548 288.531 327.917 288.236 328.22C287.95 328.515 287.608 328.74 287.209 328.896C286.81 329.052 286.377 329.13 285.909 329.13ZM285.909 328.103C286.212 328.103 286.49 328.055 286.741 327.96C287.001 327.856 287.226 327.704 287.417 327.505C287.608 327.297 287.755 327.037 287.859 326.725C287.963 326.413 288.015 326.045 288.015 325.62C288.015 325.195 287.963 324.827 287.859 324.515C287.755 324.203 287.608 323.947 287.417 323.748C287.226 323.54 287.001 323.388 286.741 323.293C286.49 323.189 286.212 323.137 285.909 323.137C285.606 323.137 285.328 323.189 285.077 323.293C284.826 323.388 284.605 323.54 284.414 323.748C284.232 323.947 284.089 324.203 283.985 324.515C283.881 324.827 283.829 325.195 283.829 325.62C283.829 326.045 283.881 326.413 283.985 326.725C284.089 327.037 284.232 327.297 284.414 327.505C284.605 327.704 284.826 327.856 285.077 327.96C285.328 328.055 285.606 328.103 285.909 328.103ZM296.829 329.13C296.309 329.13 295.858 329.009 295.477 328.766C295.104 328.523 294.805 328.19 294.58 327.765V331.301H293.436V322.253H294.437L294.554 323.566C294.779 323.124 295.083 322.773 295.464 322.513C295.845 322.253 296.318 322.123 296.881 322.123C297.271 322.123 297.644 322.197 297.999 322.344C298.363 322.483 298.679 322.699 298.948 322.994C299.225 323.28 299.442 323.644 299.598 324.086C299.763 324.519 299.845 325.031 299.845 325.62C299.845 326.218 299.763 326.738 299.598 327.18C299.433 327.613 299.212 327.977 298.935 328.272C298.658 328.558 298.337 328.775 297.973 328.922C297.609 329.061 297.228 329.13 296.829 329.13ZM296.66 328.103C297.258 328.103 297.739 327.899 298.103 327.492C298.476 327.076 298.662 326.452 298.662 325.62C298.662 324.805 298.476 324.19 298.103 323.774C297.739 323.349 297.258 323.137 296.66 323.137C296.365 323.137 296.088 323.189 295.828 323.293C295.577 323.397 295.356 323.553 295.165 323.761C294.983 323.96 294.836 324.216 294.723 324.528C294.619 324.84 294.567 325.204 294.567 325.62C294.567 326.036 294.619 326.4 294.723 326.712C294.836 327.024 294.983 327.284 295.165 327.492C295.356 327.7 295.577 327.856 295.828 327.96C296.088 328.055 296.365 328.103 296.66 328.103ZM305.119 327.713C305.041 327.869 304.942 328.034 304.82 328.207C304.699 328.372 304.547 328.523 304.365 328.662C304.183 328.801 303.967 328.913 303.715 329C303.473 329.087 303.187 329.13 302.857 329.13C302.251 329.13 301.761 328.961 301.388 328.623C301.016 328.276 300.829 327.782 300.829 327.141C300.829 326.404 301.085 325.863 301.596 325.516C302.116 325.169 302.853 324.996 303.806 324.996H305.067V324.437C305.067 323.969 304.946 323.635 304.703 323.436C304.461 323.237 304.045 323.137 303.455 323.137C303.039 323.137 302.645 323.206 302.272 323.345C301.9 323.475 301.566 323.627 301.271 323.8V322.773C301.514 322.626 301.839 322.483 302.246 322.344C302.662 322.197 303.117 322.123 303.611 322.123C304.461 322.123 305.106 322.301 305.548 322.656C305.99 323.003 306.211 323.544 306.211 324.281V327.908C306.211 327.986 306.211 328.077 306.211 328.181C306.22 328.276 306.224 328.376 306.224 328.48C306.233 328.584 306.242 328.684 306.25 328.779C306.259 328.866 306.268 328.939 306.276 329H305.236C305.21 328.879 305.184 328.71 305.158 328.493C305.141 328.268 305.132 328.073 305.132 327.908L305.119 327.713ZM303.104 328.103C303.46 328.103 303.763 328.029 304.014 327.882C304.266 327.735 304.469 327.566 304.625 327.375C304.781 327.176 304.894 326.985 304.963 326.803C305.033 326.612 305.067 326.478 305.067 326.4V325.906H303.923C303.239 325.906 302.74 326.006 302.428 326.205C302.125 326.396 301.973 326.686 301.973 327.076C301.973 327.379 302.064 327.626 302.246 327.817C302.428 328.008 302.714 328.103 303.104 328.103ZM308.01 322.253H310.532C311.347 322.253 311.962 322.396 312.378 322.682C312.794 322.959 313.002 323.397 313.002 323.995C313.002 324.394 312.898 324.714 312.69 324.957C312.491 325.191 312.205 325.36 311.832 325.464C312.794 325.62 313.275 326.153 313.275 327.063C313.275 327.41 313.206 327.709 313.067 327.96C312.929 328.203 312.738 328.402 312.495 328.558C312.253 328.714 311.958 328.827 311.611 328.896C311.273 328.965 310.905 329 310.506 329H308.01V322.253ZM309.154 323.228V325.061H310.428C310.862 325.061 311.208 324.983 311.468 324.827C311.737 324.671 311.871 324.446 311.871 324.151C311.871 323.796 311.754 323.553 311.52 323.423C311.286 323.293 310.953 323.228 310.519 323.228H309.154ZM309.154 325.971V328.025H310.493C310.736 328.025 310.953 328.012 311.143 327.986C311.343 327.951 311.512 327.895 311.65 327.817C311.798 327.739 311.91 327.635 311.988 327.505C312.066 327.375 312.105 327.215 312.105 327.024C312.105 326.634 311.971 326.361 311.702 326.205C311.434 326.049 311.031 325.971 310.493 325.971H309.154ZM319.4 326.01H316.137V329H314.993V322.253H316.137V325.035H319.4V322.253H320.544V329H319.4V326.01ZM325.188 329.13C324.729 329.13 324.3 329.052 323.901 328.896C323.503 328.74 323.156 328.515 322.861 328.22C322.575 327.917 322.35 327.548 322.185 327.115C322.021 326.682 321.938 326.183 321.938 325.62C321.938 325.065 322.021 324.571 322.185 324.138C322.35 323.696 322.575 323.328 322.861 323.033C323.156 322.738 323.503 322.513 323.901 322.357C324.3 322.201 324.729 322.123 325.188 322.123C325.656 322.123 326.09 322.201 326.488 322.357C326.887 322.513 327.229 322.738 327.515 323.033C327.81 323.328 328.04 323.696 328.204 324.138C328.378 324.571 328.464 325.065 328.464 325.62C328.464 326.183 328.378 326.682 328.204 327.115C328.04 327.548 327.81 327.917 327.515 328.22C327.229 328.515 326.887 328.74 326.488 328.896C326.09 329.052 325.656 329.13 325.188 329.13ZM325.188 328.103C325.492 328.103 325.769 328.055 326.02 327.96C326.28 327.856 326.506 327.704 326.696 327.505C326.887 327.297 327.034 327.037 327.138 326.725C327.242 326.413 327.294 326.045 327.294 325.62C327.294 325.195 327.242 324.827 327.138 324.515C327.034 324.203 326.887 323.947 326.696 323.748C326.506 323.54 326.28 323.388 326.02 323.293C325.769 323.189 325.492 323.137 325.188 323.137C324.885 323.137 324.608 323.189 324.356 323.293C324.105 323.388 323.884 323.54 323.693 323.748C323.511 323.947 323.368 324.203 323.264 324.515C323.16 324.827 323.108 325.195 323.108 325.62C323.108 326.045 323.16 326.413 323.264 326.725C323.368 327.037 323.511 327.297 323.693 327.505C323.884 327.704 324.105 327.856 324.356 327.96C324.608 328.055 324.885 328.103 325.188 328.103ZM336.294 323.579L334.006 328.246H333.096L330.938 323.553V329H329.859V322.253H331.562L333.629 326.777L335.839 322.253H337.425V329H336.294V323.579ZM344.66 328.428C344.565 328.497 344.448 328.571 344.309 328.649C344.171 328.727 344.002 328.805 343.802 328.883C343.603 328.952 343.378 329.009 343.126 329.052C342.875 329.104 342.593 329.13 342.281 329.13C341.146 329.13 340.284 328.822 339.694 328.207C339.105 327.592 338.81 326.729 338.81 325.62C338.81 325.074 338.888 324.584 339.044 324.151C339.209 323.718 339.434 323.354 339.72 323.059C340.006 322.756 340.344 322.526 340.734 322.37C341.124 322.205 341.549 322.123 342.008 322.123C342.494 322.123 342.927 322.205 343.308 322.37C343.69 322.535 344.002 322.777 344.244 323.098C344.496 323.419 344.665 323.817 344.751 324.294C344.847 324.762 344.847 325.308 344.751 325.932H339.993C340.037 326.66 340.253 327.206 340.643 327.57C341.033 327.925 341.614 328.103 342.385 328.103C342.905 328.103 343.352 328.029 343.724 327.882C344.097 327.735 344.409 327.574 344.66 327.401V328.428ZM341.982 323.137C341.488 323.137 341.064 323.289 340.708 323.592C340.353 323.895 340.128 324.355 340.032 324.97H343.659C343.694 324.346 343.551 323.887 343.23 323.592C342.91 323.289 342.494 323.137 341.982 323.137ZM349.68 329.13C349.16 329.13 348.709 329.009 348.328 328.766C347.955 328.523 347.656 328.19 347.431 327.765V331.301H346.287V322.253H347.288L347.405 323.566C347.63 323.124 347.933 322.773 348.315 322.513C348.696 322.253 349.168 322.123 349.732 322.123C350.122 322.123 350.494 322.197 350.85 322.344C351.214 322.483 351.53 322.699 351.799 322.994C352.076 323.28 352.293 323.644 352.449 324.086C352.613 324.519 352.696 325.031 352.696 325.62C352.696 326.218 352.613 326.738 352.449 327.18C352.284 327.613 352.063 327.977 351.786 328.272C351.508 328.558 351.188 328.775 350.824 328.922C350.46 329.061 350.078 329.13 349.68 329.13ZM349.511 328.103C350.109 328.103 350.59 327.899 350.954 327.492C351.326 327.076 351.513 326.452 351.513 325.62C351.513 324.805 351.326 324.19 350.954 323.774C350.59 323.349 350.109 323.137 349.511 323.137C349.216 323.137 348.939 323.189 348.679 323.293C348.427 323.397 348.206 323.553 348.016 323.761C347.834 323.96 347.686 324.216 347.574 324.528C347.47 324.84 347.418 325.204 347.418 325.62C347.418 326.036 347.47 326.4 347.574 326.712C347.686 327.024 347.834 327.284 348.016 327.492C348.206 327.7 348.427 327.856 348.679 327.96C348.939 328.055 349.216 328.103 349.511 328.103ZM358.489 326.01H355.226V329H354.082V322.253H355.226V325.035H358.489V322.253H359.633V329H358.489V326.01ZM364.277 329.13C363.818 329.13 363.389 329.052 362.99 328.896C362.592 328.74 362.245 328.515 361.95 328.22C361.664 327.917 361.439 327.548 361.274 327.115C361.11 326.682 361.027 326.183 361.027 325.62C361.027 325.065 361.11 324.571 361.274 324.138C361.439 323.696 361.664 323.328 361.95 323.033C362.245 322.738 362.592 322.513 362.99 322.357C363.389 322.201 363.818 322.123 364.277 322.123C364.745 322.123 365.179 322.201 365.577 322.357C365.976 322.513 366.318 322.738 366.604 323.033C366.899 323.328 367.129 323.696 367.293 324.138C367.467 324.571 367.553 325.065 367.553 325.62C367.553 326.183 367.467 326.682 367.293 327.115C367.129 327.548 366.899 327.917 366.604 328.22C366.318 328.515 365.976 328.74 365.577 328.896C365.179 329.052 364.745 329.13 364.277 329.13ZM364.277 328.103C364.581 328.103 364.858 328.055 365.109 327.96C365.369 327.856 365.595 327.704 365.785 327.505C365.976 327.297 366.123 327.037 366.227 326.725C366.331 326.413 366.383 326.045 366.383 325.62C366.383 325.195 366.331 324.827 366.227 324.515C366.123 324.203 365.976 323.947 365.785 323.748C365.595 323.54 365.369 323.388 365.109 323.293C364.858 323.189 364.581 323.137 364.277 323.137C363.974 323.137 363.697 323.189 363.445 323.293C363.194 323.388 362.973 323.54 362.782 323.748C362.6 323.947 362.457 324.203 362.353 324.515C362.249 324.827 362.197 325.195 362.197 325.62C362.197 326.045 362.249 326.413 362.353 326.725C362.457 327.037 362.6 327.297 362.782 327.505C362.973 327.704 363.194 327.856 363.445 327.96C363.697 328.055 363.974 328.103 364.277 328.103Z" fill="black"/>
<path d="M77.8952 273.218L80.9242 266.679H82.5102V276H81.2752V268.499L78.4152 274.57L77.8042 274.583H77.2582L77.2712 274.57L74.4502 268.395V276H73.2932V266.679H74.9962L77.8952 273.218ZM88.4769 274.713C88.3989 274.869 88.2992 275.034 88.1779 275.207C88.0565 275.372 87.9049 275.523 87.7229 275.662C87.5409 275.801 87.3242 275.913 87.0729 276C86.8302 276.087 86.5442 276.13 86.2149 276.13C85.6082 276.13 85.1185 275.961 84.7459 275.623C84.3732 275.276 84.1869 274.782 84.1869 274.141C84.1869 273.404 84.4425 272.863 84.9539 272.516C85.4739 272.169 86.2105 271.996 87.1639 271.996H88.4249V271.437C88.4249 270.969 88.3035 270.635 88.0609 270.436C87.8182 270.237 87.4022 270.137 86.8129 270.137C86.3969 270.137 86.0025 270.206 85.6299 270.345C85.2572 270.475 84.9235 270.627 84.6289 270.8V269.773C84.8715 269.626 85.1965 269.483 85.6039 269.344C86.0199 269.197 86.4749 269.123 86.9689 269.123C87.8182 269.123 88.4639 269.301 88.9059 269.656C89.3479 270.003 89.5689 270.544 89.5689 271.281V274.908C89.5689 274.986 89.5689 275.077 89.5689 275.181C89.5775 275.276 89.5819 275.376 89.5819 275.48C89.5905 275.584 89.5992 275.684 89.6079 275.779C89.6165 275.866 89.6252 275.939 89.6339 276H88.5939C88.5679 275.879 88.5419 275.71 88.5159 275.493C88.4985 275.268 88.4899 275.073 88.4899 274.908L88.4769 274.713ZM86.4619 275.103C86.8172 275.103 87.1205 275.029 87.3719 274.882C87.6232 274.735 87.8269 274.566 87.9829 274.375C88.1389 274.176 88.2515 273.985 88.3209 273.803C88.3902 273.612 88.4249 273.478 88.4249 273.4V272.906H87.2809C86.5962 272.906 86.0979 273.006 85.7859 273.205C85.4825 273.396 85.3309 273.686 85.3309 274.076C85.3309 274.379 85.4219 274.626 85.6039 274.817C85.7859 275.008 86.0719 275.103 86.4619 275.103ZM93.6426 273.322L91.8226 276H90.6266L93.0706 272.503L90.9126 269.253H92.2386L93.8506 271.632L95.4756 269.253H96.6586L94.4226 272.477L96.7756 276H95.4496L93.6426 273.322ZM100.541 270.839V269.929H106.82V270.839H100.541ZM100.541 273.309V272.399H106.82V273.309H100.541ZM117.24 273.309C117.24 273.742 117.153 274.132 116.98 274.479C116.815 274.826 116.581 275.125 116.278 275.376C115.983 275.619 115.623 275.805 115.199 275.935C114.774 276.065 114.31 276.13 113.808 276.13C113.166 276.13 112.612 276.061 112.144 275.922C111.676 275.775 111.299 275.58 111.013 275.337V274.037C111.307 274.314 111.693 274.557 112.17 274.765C112.646 274.964 113.197 275.064 113.821 275.064C114.488 275.064 115.012 274.912 115.394 274.609C115.784 274.306 115.979 273.881 115.979 273.335C115.979 272.815 115.805 272.412 115.459 272.126C115.121 271.831 114.583 271.684 113.847 271.684H112.651V270.579H113.899C114.419 270.579 114.839 270.449 115.16 270.189C115.48 269.929 115.641 269.552 115.641 269.058C115.641 268.616 115.485 268.269 115.173 268.018C114.869 267.758 114.423 267.628 113.834 267.628C113.236 267.628 112.72 267.728 112.287 267.927C111.853 268.126 111.472 268.373 111.143 268.668V267.394C111.455 267.134 111.836 266.93 112.287 266.783C112.746 266.627 113.266 266.549 113.847 266.549C114.315 266.549 114.735 266.61 115.108 266.731C115.48 266.844 115.792 267.008 116.044 267.225C116.304 267.442 116.503 267.702 116.642 268.005C116.78 268.3 116.85 268.629 116.85 268.993C116.85 269.288 116.806 269.552 116.72 269.786C116.633 270.02 116.512 270.224 116.356 270.397C116.208 270.57 116.035 270.718 115.836 270.839C115.636 270.952 115.424 271.034 115.199 271.086C115.476 271.129 115.736 271.212 115.979 271.333C116.23 271.454 116.447 271.61 116.629 271.801C116.819 271.983 116.967 272.204 117.071 272.464C117.183 272.715 117.24 272.997 117.24 273.309ZM122.223 276.13C121.703 276.13 121.214 276.03 120.754 275.831C120.295 275.632 119.892 275.333 119.545 274.934C119.207 274.535 118.939 274.037 118.739 273.439C118.54 272.832 118.44 272.13 118.44 271.333C118.44 270.536 118.54 269.838 118.739 269.24C118.939 268.642 119.207 268.148 119.545 267.758C119.892 267.359 120.295 267.06 120.754 266.861C121.214 266.662 121.703 266.562 122.223 266.562C122.743 266.562 123.233 266.662 123.692 266.861C124.152 267.052 124.55 267.346 124.888 267.745C125.235 268.135 125.504 268.629 125.694 269.227C125.894 269.816 125.993 270.51 125.993 271.307C125.993 272.104 125.894 272.802 125.694 273.4C125.504 273.998 125.235 274.501 124.888 274.908C124.55 275.315 124.152 275.623 123.692 275.831C123.233 276.03 122.743 276.13 122.223 276.13ZM122.21 275.103C122.566 275.103 122.899 275.038 123.211 274.908C123.523 274.778 123.792 274.566 124.017 274.271C124.251 273.968 124.433 273.578 124.563 273.101C124.702 272.624 124.771 272.039 124.771 271.346C124.771 270.653 124.702 270.068 124.563 269.591C124.433 269.114 124.251 268.729 124.017 268.434C123.792 268.131 123.523 267.914 123.211 267.784C122.908 267.654 122.579 267.589 122.223 267.589C121.868 267.589 121.534 267.654 121.222 267.784C120.91 267.914 120.637 268.131 120.403 268.434C120.169 268.729 119.983 269.114 119.844 269.591C119.714 270.068 119.649 270.653 119.649 271.346C119.649 272.039 119.714 272.624 119.844 273.101C119.983 273.578 120.165 273.968 120.39 274.271C120.624 274.566 120.897 274.778 121.209 274.908C121.521 275.038 121.855 275.103 122.21 275.103ZM133.164 272.919C133.164 273.404 133.086 273.846 132.93 274.245C132.774 274.635 132.549 274.973 132.254 275.259C131.968 275.536 131.617 275.753 131.201 275.909C130.785 276.056 130.322 276.13 129.81 276.13C129.238 276.13 128.74 276.074 128.315 275.961C127.899 275.848 127.54 275.684 127.236 275.467V274.193C127.392 274.314 127.553 274.431 127.717 274.544C127.891 274.648 128.081 274.739 128.289 274.817C128.497 274.895 128.727 274.956 128.978 274.999C129.23 275.042 129.507 275.064 129.81 275.064C130.478 275.064 130.998 274.869 131.37 274.479C131.743 274.089 131.929 273.578 131.929 272.945C131.929 272.269 131.747 271.775 131.383 271.463C131.019 271.151 130.56 270.995 130.005 270.995C129.589 270.995 129.256 271.056 129.004 271.177C128.753 271.298 128.567 271.433 128.445 271.58H127.509V266.679H132.644V267.797H128.562V270.475C128.744 270.336 128.97 270.219 129.238 270.124C129.507 270.02 129.828 269.968 130.2 269.968C130.616 269.968 131.002 270.033 131.357 270.163C131.721 270.284 132.038 270.471 132.306 270.722C132.575 270.965 132.783 271.272 132.93 271.645C133.086 272.009 133.164 272.434 133.164 272.919Z" fill="black"/>
<path d="M247 224L252.774 214L241.227 214L247 224ZM246 132L246 215L248 215L248 132L246 132Z" fill="#4E496B"/>
<path d="M247 92L252.774 82L241.227 82L247 92ZM246 53L246 83L248 83L248 53L246 53Z" fill="#4E496B"/>
<path d="M391 224L396.773 214L385.226 214L391 224ZM390 115L390 215L392 215L392 115L390 115ZM381 104L266 104L266 106L381 106L381 104ZM392 115C392 108.925 387.075 104 381 104L381 106C385.971 106 390 110.029 390 115L392 115Z" fill="#4E496B"/>
<path d="M103 224L97.2265 214L108.774 214L103 224ZM104 115L104 215L102 215L102 115L104 115ZM113 104L228 104L228 106L113 106L113 104ZM102 115C102 108.925 106.925 104 113 104L113 106C108.029 106 104 110.029 104 115L102 115Z" fill="#4E496B"/>
<path d="M317.283 101H311.212V99.765C312.009 99.1237 312.698 98.556 313.279 98.062C313.868 97.568 314.354 97.113 314.735 96.697C315.125 96.281 315.411 95.8867 315.593 95.514C315.784 95.1413 315.879 94.7513 315.879 94.344C315.879 93.8327 315.723 93.421 315.411 93.109C315.099 92.7883 314.644 92.628 314.046 92.628C313.535 92.628 313.062 92.7493 312.629 92.992C312.196 93.226 311.806 93.5337 311.459 93.915V92.602C311.788 92.2727 312.165 92.017 312.59 91.835C313.015 91.6443 313.513 91.549 314.085 91.549C314.57 91.549 315.004 91.614 315.385 91.744C315.766 91.874 316.087 92.056 316.347 92.29C316.607 92.524 316.802 92.8057 316.932 93.135C317.071 93.4643 317.14 93.8283 317.14 94.227C317.14 94.7297 317.036 95.202 316.828 95.644C316.629 96.086 316.334 96.528 315.944 96.97C315.554 97.4033 315.073 97.8583 314.501 98.335C313.938 98.803 313.292 99.3187 312.564 99.882H317.283V101ZM322.142 101.13C321.622 101.13 321.133 101.03 320.673 100.831C320.214 100.632 319.811 100.333 319.464 99.934C319.126 99.5353 318.858 99.037 318.658 98.439C318.459 97.8323 318.359 97.1303 318.359 96.333C318.359 95.5357 318.459 94.838 318.658 94.24C318.858 93.642 319.126 93.148 319.464 92.758C319.811 92.3593 320.214 92.0603 320.673 91.861C321.133 91.6617 321.622 91.562 322.142 91.562C322.662 91.562 323.152 91.6617 323.611 91.861C324.071 92.0517 324.469 92.3463 324.807 92.745C325.154 93.135 325.423 93.629 325.613 94.227C325.813 94.8163 325.912 95.5097 325.912 96.307C325.912 97.1043 325.813 97.802 325.613 98.4C325.423 98.998 325.154 99.5007 324.807 99.908C324.469 100.315 324.071 100.623 323.611 100.831C323.152 101.03 322.662 101.13 322.142 101.13ZM322.129 100.103C322.485 100.103 322.818 100.038 323.13 99.908C323.442 99.778 323.711 99.5657 323.936 99.271C324.17 98.9677 324.352 98.5777 324.482 98.101C324.621 97.6243 324.69 97.0393 324.69 96.346C324.69 95.6527 324.621 95.0677 324.482 94.591C324.352 94.1143 324.17 93.7287 323.936 93.434C323.711 93.1307 323.442 92.914 323.13 92.784C322.827 92.654 322.498 92.589 322.142 92.589C321.787 92.589 321.453 92.654 321.141 92.784C320.829 92.914 320.556 93.1307 320.322 93.434C320.088 93.7287 319.902 94.1143 319.763 94.591C319.633 95.0677 319.568 95.6527 319.568 96.346C319.568 97.0393 319.633 97.6243 319.763 98.101C319.902 98.5777 320.084 98.9677 320.309 99.271C320.543 99.5657 320.816 99.778 321.128 99.908C321.44 100.038 321.774 100.103 322.129 100.103ZM332.924 101H326.853V99.765C327.65 99.1237 328.339 98.556 328.92 98.062C329.509 97.568 329.994 97.113 330.376 96.697C330.766 96.281 331.052 95.8867 331.234 95.514C331.424 95.1413 331.52 94.7513 331.52 94.344C331.52 93.8327 331.364 93.421 331.052 93.109C330.74 92.7883 330.285 92.628 329.687 92.628C329.175 92.628 328.703 92.7493 328.27 92.992C327.836 93.226 327.446 93.5337 327.1 93.915V92.602C327.429 92.2727 327.806 92.017 328.231 91.835C328.655 91.6443 329.154 91.549 329.726 91.549C330.211 91.549 330.644 91.614 331.026 91.744C331.407 91.874 331.728 92.056 331.988 92.29C332.248 92.524 332.443 92.8057 332.573 93.135C332.711 93.4643 332.781 93.8283 332.781 94.227C332.781 94.7297 332.677 95.202 332.469 95.644C332.269 96.086 331.975 96.528 331.585 96.97C331.195 97.4033 330.714 97.8583 330.142 98.335C329.578 98.803 328.933 99.3187 328.205 99.882H332.924V101Z" fill="black"/>
<path d="M161.788 101H155.717V99.765C156.514 99.1237 157.203 98.556 157.784 98.062C158.373 97.568 158.859 97.113 159.24 96.697C159.63 96.281 159.916 95.8867 160.098 95.514C160.289 95.1413 160.384 94.7513 160.384 94.344C160.384 93.8327 160.228 93.421 159.916 93.109C159.604 92.7883 159.149 92.628 158.551 92.628C158.04 92.628 157.567 92.7493 157.134 92.992C156.701 93.226 156.311 93.5337 155.964 93.915V92.602C156.293 92.2727 156.67 92.017 157.095 91.835C157.52 91.6443 158.018 91.549 158.59 91.549C159.075 91.549 159.509 91.614 159.89 91.744C160.271 91.874 160.592 92.056 160.852 92.29C161.112 92.524 161.307 92.8057 161.437 93.135C161.576 93.4643 161.645 93.8283 161.645 94.227C161.645 94.7297 161.541 95.202 161.333 95.644C161.134 96.086 160.839 96.528 160.449 96.97C160.059 97.4033 159.578 97.8583 159.006 98.335C158.443 98.803 157.797 99.3187 157.069 99.882H161.788V101ZM166.647 101.13C166.127 101.13 165.638 101.03 165.178 100.831C164.719 100.632 164.316 100.333 163.969 99.934C163.631 99.5353 163.363 99.037 163.163 98.439C162.964 97.8323 162.864 97.1303 162.864 96.333C162.864 95.5357 162.964 94.838 163.163 94.24C163.363 93.642 163.631 93.148 163.969 92.758C164.316 92.3593 164.719 92.0603 165.178 91.861C165.638 91.6617 166.127 91.562 166.647 91.562C167.167 91.562 167.657 91.6617 168.116 91.861C168.576 92.0517 168.974 92.3463 169.312 92.745C169.659 93.135 169.928 93.629 170.118 94.227C170.318 94.8163 170.417 95.5097 170.417 96.307C170.417 97.1043 170.318 97.802 170.118 98.4C169.928 98.998 169.659 99.5007 169.312 99.908C168.974 100.315 168.576 100.623 168.116 100.831C167.657 101.03 167.167 101.13 166.647 101.13ZM166.634 100.103C166.99 100.103 167.323 100.038 167.635 99.908C167.947 99.778 168.216 99.5657 168.441 99.271C168.675 98.9677 168.857 98.5777 168.987 98.101C169.126 97.6243 169.195 97.0393 169.195 96.346C169.195 95.6527 169.126 95.0677 168.987 94.591C168.857 94.1143 168.675 93.7287 168.441 93.434C168.216 93.1307 167.947 92.914 167.635 92.784C167.332 92.654 167.003 92.589 166.647 92.589C166.292 92.589 165.958 92.654 165.646 92.784C165.334 92.914 165.061 93.1307 164.827 93.434C164.593 93.7287 164.407 94.1143 164.268 94.591C164.138 95.0677 164.073 95.6527 164.073 96.346C164.073 97.0393 164.138 97.6243 164.268 98.101C164.407 98.5777 164.589 98.9677 164.814 99.271C165.048 99.5657 165.321 99.778 165.633 99.908C165.945 100.038 166.279 100.103 166.634 100.103ZM177.198 98.79V101H176.067V98.79H171.569V97.932L175.664 91.679H177.198V97.737H178.459V98.79H177.198ZM176.067 97.737V92.836L172.856 97.737H176.067Z" fill="black"/>
<path d="M256.796 182H255.6V174.2L253.624 176.124V174.811L255.821 172.679H256.796V182ZM265.487 176.644C265.487 177.459 265.409 178.204 265.253 178.88C265.097 179.547 264.859 180.124 264.538 180.609C264.217 181.086 263.81 181.458 263.316 181.727C262.822 181.996 262.233 182.13 261.548 182.13C261.063 182.13 260.642 182.087 260.287 182C259.932 181.913 259.628 181.796 259.377 181.649V180.505C259.68 180.704 260.014 180.852 260.378 180.947C260.751 181.034 261.141 181.077 261.548 181.077C261.981 181.077 262.363 180.99 262.692 180.817C263.021 180.644 263.299 180.41 263.524 180.115C263.758 179.812 263.94 179.456 264.07 179.049C264.2 178.633 264.282 178.191 264.317 177.723C264.014 178.122 263.654 178.416 263.238 178.607C262.831 178.789 262.389 178.88 261.912 178.88C261.47 178.88 261.054 178.811 260.664 178.672C260.274 178.533 259.936 178.334 259.65 178.074C259.364 177.805 259.139 177.476 258.974 177.086C258.809 176.696 258.727 176.25 258.727 175.747C258.727 175.27 258.809 174.837 258.974 174.447C259.147 174.048 259.381 173.71 259.676 173.433C259.979 173.147 260.33 172.93 260.729 172.783C261.136 172.627 261.574 172.549 262.042 172.549C262.657 172.549 263.182 172.649 263.615 172.848C264.057 173.047 264.417 173.329 264.694 173.693C264.971 174.048 265.171 174.477 265.292 174.98C265.422 175.483 265.487 176.037 265.487 176.644ZM262.042 173.602C261.773 173.602 261.513 173.645 261.262 173.732C261.011 173.819 260.79 173.953 260.599 174.135C260.408 174.308 260.252 174.529 260.131 174.798C260.018 175.058 259.962 175.361 259.962 175.708C259.962 176.063 260.018 176.375 260.131 176.644C260.244 176.913 260.391 177.138 260.573 177.32C260.764 177.493 260.976 177.628 261.21 177.723C261.444 177.81 261.687 177.853 261.938 177.853C262.25 177.853 262.54 177.81 262.809 177.723C263.078 177.628 263.312 177.489 263.511 177.307C263.71 177.125 263.866 176.9 263.979 176.631C264.092 176.354 264.148 176.037 264.148 175.682C264.148 175.37 264.096 175.088 263.992 174.837C263.897 174.577 263.758 174.356 263.576 174.174C263.394 173.992 263.173 173.853 262.913 173.758C262.653 173.654 262.363 173.602 262.042 173.602ZM271.958 179.79V182H270.827V179.79H266.329V178.932L270.424 172.679H271.958V178.737H273.219V179.79H271.958ZM270.827 178.737V173.836L267.616 178.737H270.827Z" fill="black"/>
<defs>
<filter id="filter0_d_537_609" x="8" y="6" width="476" height="356" filterUnits="userSpaceOnUse" color-interpolation-filters="sRGB">
<feFlood flood-opacity="0" result="BackgroundImageFix"/>
<feColorMatrix in="SourceAlpha" type="matrix" values="0 0 0 0 0 0 0 0 0 0 0 0 0 0 0 0 0 0 127 0" result="hardAlpha"/>
<feOffset dy="2"/>
<feGaussianBlur stdDeviation="4"/>
<feColorMatrix type="matrix" values="0 0 0 0 0.321569 0 0 0 0 0.509804 0 0 0 0 1 0 0 0 0.5 0"/>
<feBlend mode="normal" in2="BackgroundImageFix" result="effect1_dropShadow_537_609"/>
<feBlend mode="normal" in="SourceGraphic" in2="effect1_dropShadow_537_609" result="shape"/>
</filter>
</defs>
</svg>
