<svg width="559" height="425" viewBox="0 0 559 425" fill="none" xmlns="http://www.w3.org/2000/svg">
<g filter="url(#filter0_d_530_441)">
<rect x="76" y="168" width="150" height="102" rx="12" fill="white"/>
<rect x="77" y="169" width="148" height="100" rx="11" stroke="#5282FF" stroke-width="2"/>
</g>
<rect x="537" y="56" width="96" height="266" rx="12" transform="rotate(90 537 56)" fill="#D6E1FF"/>
<rect x="537" y="174" width="96" height="266" rx="12" transform="rotate(90 537 174)" fill="#D6E1FF"/>
<rect x="537" y="292" width="96" height="266" rx="12" transform="rotate(90 537 292)" fill="#D6E1FF"/>
<rect x="293" y="48" width="160" height="352" rx="11" stroke="#5282FF" stroke-width="2"/>
<path d="M485.062 79H478.328V78.116L483.528 70.797H478.471V69.679H485.049V70.576L479.81 77.895H485.062V79ZM489.268 79.13C488.809 79.13 488.38 79.052 487.981 78.896C487.583 78.74 487.236 78.5147 486.941 78.22C486.655 77.9167 486.43 77.5483 486.265 77.115C486.101 76.6817 486.018 76.1833 486.018 75.62C486.018 75.0653 486.101 74.5713 486.265 74.138C486.43 73.696 486.655 73.3277 486.941 73.033C487.236 72.7383 487.583 72.513 487.981 72.357C488.38 72.201 488.809 72.123 489.268 72.123C489.736 72.123 490.17 72.201 490.568 72.357C490.967 72.513 491.309 72.7383 491.595 73.033C491.89 73.3277 492.12 73.696 492.284 74.138C492.458 74.5713 492.544 75.0653 492.544 75.62C492.544 76.1833 492.458 76.6817 492.284 77.115C492.12 77.5483 491.89 77.9167 491.595 78.22C491.309 78.5147 490.967 78.74 490.568 78.896C490.17 79.052 489.736 79.13 489.268 79.13ZM489.268 78.103C489.572 78.103 489.849 78.0553 490.1 77.96C490.36 77.856 490.586 77.7043 490.776 77.505C490.967 77.297 491.114 77.037 491.218 76.725C491.322 76.413 491.374 76.0447 491.374 75.62C491.374 75.1953 491.322 74.827 491.218 74.515C491.114 74.203 490.967 73.9473 490.776 73.748C490.586 73.54 490.36 73.3883 490.1 73.293C489.849 73.189 489.572 73.137 489.268 73.137C488.965 73.137 488.688 73.189 488.436 73.293C488.185 73.3883 487.964 73.54 487.773 73.748C487.591 73.9473 487.448 74.203 487.344 74.515C487.24 74.827 487.188 75.1953 487.188 75.62C487.188 76.0447 487.24 76.413 487.344 76.725C487.448 77.037 487.591 77.297 487.773 77.505C487.964 77.7043 488.185 77.856 488.436 77.96C488.688 78.0553 488.965 78.103 489.268 78.103ZM497.137 73.137C496.617 73.137 496.192 73.2583 495.863 73.501C495.542 73.735 495.282 74.0383 495.083 74.411V79H493.939V72.253H495.018L495.057 73.462H495.083C495.265 73.072 495.551 72.7513 495.941 72.5C496.331 72.2487 496.825 72.123 497.423 72.123C498.09 72.123 498.619 72.3007 499.009 72.656C499.408 73.0027 499.607 73.54 499.607 74.268V79H498.463V74.385C498.463 73.917 498.346 73.592 498.112 73.41C497.878 73.228 497.553 73.137 497.137 73.137ZM506.785 78.428C506.69 78.4973 506.573 78.571 506.434 78.649C506.296 78.727 506.127 78.805 505.927 78.883C505.728 78.9523 505.503 79.0087 505.251 79.052C505 79.104 504.718 79.13 504.406 79.13C503.271 79.13 502.409 78.8223 501.819 78.207C501.23 77.5917 500.935 76.7293 500.935 75.62C500.935 75.074 501.013 74.5843 501.169 74.151C501.334 73.7177 501.559 73.3537 501.845 73.059C502.131 72.7557 502.469 72.526 502.859 72.37C503.249 72.2053 503.674 72.123 504.133 72.123C504.619 72.123 505.052 72.2053 505.433 72.37C505.815 72.5347 506.127 72.7773 506.369 73.098C506.621 73.4187 506.79 73.8173 506.876 74.294C506.972 74.762 506.972 75.308 506.876 75.932H502.118C502.162 76.66 502.378 77.206 502.768 77.57C503.158 77.9253 503.739 78.103 504.51 78.103C505.03 78.103 505.477 78.0293 505.849 77.882C506.222 77.7347 506.534 77.5743 506.785 77.401V78.428ZM504.107 73.137C503.613 73.137 503.189 73.2887 502.833 73.592C502.478 73.8953 502.253 74.3547 502.157 74.97H505.784C505.819 74.346 505.676 73.8867 505.355 73.592C505.035 73.2887 504.619 73.137 504.107 73.137ZM513.805 69.679H515.625L518.966 79H517.666L516.704 76.335H512.583L511.634 79H510.49L513.805 69.679ZM516.314 75.23L514.65 70.589L512.986 75.23H516.314Z" fill="black"/>
<path d="M485.873 193H479.139V192.116L484.339 184.797H479.282V183.679H485.86V184.576L480.621 191.895H485.873V193ZM490.08 193.13C489.62 193.13 489.191 193.052 488.793 192.896C488.394 192.74 488.047 192.515 487.753 192.22C487.467 191.917 487.241 191.548 487.077 191.115C486.912 190.682 486.83 190.183 486.83 189.62C486.83 189.065 486.912 188.571 487.077 188.138C487.241 187.696 487.467 187.328 487.753 187.033C488.047 186.738 488.394 186.513 488.793 186.357C489.191 186.201 489.62 186.123 490.08 186.123C490.548 186.123 490.981 186.201 491.38 186.357C491.778 186.513 492.121 186.738 492.407 187.033C492.701 187.328 492.931 187.696 493.096 188.138C493.269 188.571 493.356 189.065 493.356 189.62C493.356 190.183 493.269 190.682 493.096 191.115C492.931 191.548 492.701 191.917 492.407 192.22C492.121 192.515 491.778 192.74 491.38 192.896C490.981 193.052 490.548 193.13 490.08 193.13ZM490.08 192.103C490.383 192.103 490.66 192.055 490.912 191.96C491.172 191.856 491.397 191.704 491.588 191.505C491.778 191.297 491.926 191.037 492.03 190.725C492.134 190.413 492.186 190.045 492.186 189.62C492.186 189.195 492.134 188.827 492.03 188.515C491.926 188.203 491.778 187.947 491.588 187.748C491.397 187.54 491.172 187.388 490.912 187.293C490.66 187.189 490.383 187.137 490.08 187.137C489.776 187.137 489.499 187.189 489.248 187.293C488.996 187.388 488.775 187.54 488.585 187.748C488.403 187.947 488.26 188.203 488.156 188.515C488.052 188.827 488 189.195 488 189.62C488 190.045 488.052 190.413 488.156 190.725C488.26 191.037 488.403 191.297 488.585 191.505C488.775 191.704 488.996 191.856 489.248 191.96C489.499 192.055 489.776 192.103 490.08 192.103ZM497.948 187.137C497.428 187.137 497.003 187.258 496.674 187.501C496.353 187.735 496.093 188.038 495.894 188.411V193H494.75V186.253H495.829L495.868 187.462H495.894C496.076 187.072 496.362 186.751 496.752 186.5C497.142 186.249 497.636 186.123 498.234 186.123C498.901 186.123 499.43 186.301 499.82 186.656C500.219 187.003 500.418 187.54 500.418 188.268V193H499.274V188.385C499.274 187.917 499.157 187.592 498.923 187.41C498.689 187.228 498.364 187.137 497.948 187.137ZM507.597 192.428C507.501 192.497 507.384 192.571 507.246 192.649C507.107 192.727 506.938 192.805 506.739 192.883C506.539 192.952 506.314 193.009 506.063 193.052C505.811 193.104 505.53 193.13 505.218 193.13C504.082 193.13 503.22 192.822 502.631 192.207C502.041 191.592 501.747 190.729 501.747 189.62C501.747 189.074 501.825 188.584 501.981 188.151C502.145 187.718 502.371 187.354 502.657 187.059C502.943 186.756 503.281 186.526 503.671 186.37C504.061 186.205 504.485 186.123 504.945 186.123C505.43 186.123 505.863 186.205 506.245 186.37C506.626 186.535 506.938 186.777 507.181 187.098C507.432 187.419 507.601 187.817 507.688 188.294C507.783 188.762 507.783 189.308 507.688 189.932H502.93C502.973 190.66 503.19 191.206 503.58 191.57C503.97 191.925 504.55 192.103 505.322 192.103C505.842 192.103 506.288 192.029 506.661 191.882C507.033 191.735 507.345 191.574 507.597 191.401V192.428ZM504.919 187.137C504.425 187.137 504 187.289 503.645 187.592C503.289 187.895 503.064 188.355 502.969 188.97H506.596C506.63 188.346 506.487 187.887 506.167 187.592C505.846 187.289 505.43 187.137 504.919 187.137ZM512.134 183.679H515.293C516.315 183.679 517.091 183.852 517.62 184.199C518.157 184.546 518.426 185.131 518.426 185.954C518.426 186.292 518.378 186.587 518.283 186.838C518.196 187.081 518.07 187.293 517.906 187.475C517.75 187.648 517.555 187.791 517.321 187.904C517.095 188.017 516.844 188.103 516.567 188.164C517.295 188.251 517.841 188.463 518.205 188.801C518.577 189.13 518.764 189.633 518.764 190.309C518.764 190.794 518.673 191.21 518.491 191.557C518.317 191.895 518.075 192.172 517.763 192.389C517.451 192.597 517.082 192.753 516.658 192.857C516.233 192.952 515.769 193 515.267 193H512.134V183.679ZM513.356 184.797V187.657H515.202C515.496 187.657 515.765 187.627 516.008 187.566C516.25 187.497 516.458 187.397 516.632 187.267C516.805 187.128 516.939 186.959 517.035 186.76C517.139 186.552 517.191 186.305 517.191 186.019C517.191 185.542 517.026 185.222 516.697 185.057C516.367 184.884 515.899 184.797 515.293 184.797H513.356ZM513.356 188.762V191.895H515.267C515.596 191.895 515.895 191.869 516.164 191.817C516.432 191.765 516.662 191.678 516.853 191.557C517.052 191.436 517.204 191.275 517.308 191.076C517.42 190.877 517.477 190.63 517.477 190.335C517.477 189.746 517.286 189.338 516.905 189.113C516.532 188.879 515.938 188.762 515.124 188.762H513.356Z" fill="black"/>
<path d="M488.473 311H481.739V310.116L486.939 302.797H481.882V301.679H488.46V302.576L483.221 309.895H488.473V311ZM492.68 311.13C492.22 311.13 491.791 311.052 491.393 310.896C490.994 310.74 490.647 310.515 490.353 310.22C490.067 309.917 489.841 309.548 489.677 309.115C489.512 308.682 489.43 308.183 489.43 307.62C489.43 307.065 489.512 306.571 489.677 306.138C489.841 305.696 490.067 305.328 490.353 305.033C490.647 304.738 490.994 304.513 491.393 304.357C491.791 304.201 492.22 304.123 492.68 304.123C493.148 304.123 493.581 304.201 493.98 304.357C494.378 304.513 494.721 304.738 495.007 305.033C495.301 305.328 495.531 305.696 495.696 306.138C495.869 306.571 495.956 307.065 495.956 307.62C495.956 308.183 495.869 308.682 495.696 309.115C495.531 309.548 495.301 309.917 495.007 310.22C494.721 310.515 494.378 310.74 493.98 310.896C493.581 311.052 493.148 311.13 492.68 311.13ZM492.68 310.103C492.983 310.103 493.26 310.055 493.512 309.96C493.772 309.856 493.997 309.704 494.188 309.505C494.378 309.297 494.526 309.037 494.63 308.725C494.734 308.413 494.786 308.045 494.786 307.62C494.786 307.195 494.734 306.827 494.63 306.515C494.526 306.203 494.378 305.947 494.188 305.748C493.997 305.54 493.772 305.388 493.512 305.293C493.26 305.189 492.983 305.137 492.68 305.137C492.376 305.137 492.099 305.189 491.848 305.293C491.596 305.388 491.375 305.54 491.185 305.748C491.003 305.947 490.86 306.203 490.756 306.515C490.652 306.827 490.6 307.195 490.6 307.62C490.6 308.045 490.652 308.413 490.756 308.725C490.86 309.037 491.003 309.297 491.185 309.505C491.375 309.704 491.596 309.856 491.848 309.96C492.099 310.055 492.376 310.103 492.68 310.103ZM500.548 305.137C500.028 305.137 499.603 305.258 499.274 305.501C498.953 305.735 498.693 306.038 498.494 306.411V311H497.35V304.253H498.429L498.468 305.462H498.494C498.676 305.072 498.962 304.751 499.352 304.5C499.742 304.249 500.236 304.123 500.834 304.123C501.501 304.123 502.03 304.301 502.42 304.656C502.819 305.003 503.018 305.54 503.018 306.268V311H501.874V306.385C501.874 305.917 501.757 305.592 501.523 305.41C501.289 305.228 500.964 305.137 500.548 305.137ZM510.197 310.428C510.101 310.497 509.984 310.571 509.846 310.649C509.707 310.727 509.538 310.805 509.339 310.883C509.139 310.952 508.914 311.009 508.663 311.052C508.411 311.104 508.13 311.13 507.818 311.13C506.682 311.13 505.82 310.822 505.231 310.207C504.641 309.592 504.347 308.729 504.347 307.62C504.347 307.074 504.425 306.584 504.581 306.151C504.745 305.718 504.971 305.354 505.257 305.059C505.543 304.756 505.881 304.526 506.271 304.37C506.661 304.205 507.085 304.123 507.545 304.123C508.03 304.123 508.463 304.205 508.845 304.37C509.226 304.535 509.538 304.777 509.781 305.098C510.032 305.419 510.201 305.817 510.288 306.294C510.383 306.762 510.383 307.308 510.288 307.932H505.53C505.573 308.66 505.79 309.206 506.18 309.57C506.57 309.925 507.15 310.103 507.922 310.103C508.442 310.103 508.888 310.029 509.261 309.882C509.633 309.735 509.945 309.574 510.197 309.401V310.428ZM507.519 305.137C507.025 305.137 506.6 305.289 506.245 305.592C505.889 305.895 505.664 306.355 505.569 306.97H509.196C509.23 306.346 509.087 305.887 508.767 305.592C508.446 305.289 508.03 305.137 507.519 305.137ZM514.734 301.679H517.867C518.491 301.679 519.071 301.753 519.609 301.9C520.146 302.047 520.614 302.29 521.013 302.628C521.411 302.966 521.723 303.412 521.949 303.967C522.174 304.522 522.287 305.206 522.287 306.021C522.287 306.844 522.17 307.568 521.936 308.192C521.71 308.807 521.394 309.323 520.987 309.739C520.588 310.155 520.107 310.471 519.544 310.688C518.989 310.896 518.382 311 517.724 311H514.734V301.679ZM515.956 302.797V309.895H517.724C518.2 309.895 518.638 309.821 519.037 309.674C519.435 309.527 519.778 309.301 520.064 308.998C520.35 308.686 520.571 308.292 520.727 307.815C520.883 307.338 520.961 306.771 520.961 306.112C520.961 305.462 520.883 304.925 520.727 304.5C520.571 304.067 520.354 303.724 520.077 303.473C519.808 303.222 519.483 303.048 519.102 302.953C518.72 302.849 518.309 302.797 517.867 302.797H515.956Z" fill="black"/>
<path d="M319 104L309 109.774V98.2265L319 104ZM249.023 114L248.023 114L249.023 114ZM239.023 222L239.023 221L239.023 222ZM229 221L239.023 221L239.023 223L229 223L229 221ZM248.023 212L248.023 114L250.023 114L250.023 212L248.023 212ZM259.023 103L310 103V105L259.023 105V103ZM248.023 114C248.023 107.925 252.948 103 259.023 103V105C254.053 105 250.023 109.029 250.023 114L248.023 114ZM239.023 221C243.994 221 248.023 216.971 248.023 212L250.023 212C250.023 218.075 245.098 223 239.023 223L239.023 221Z" fill="#4E496B"/>
<path d="M319 340L309 334.226V345.774L319 340ZM249.023 330L248.023 330L249.023 330ZM239.023 222L239.023 223L239.023 222ZM229 223L239.023 223L239.023 221L229 221L229 223ZM248.023 232L248.023 330L250.023 330L250.023 232L248.023 232ZM259.023 341L310 341V339L259.023 339V341ZM248.023 330C248.023 336.075 252.948 341 259.023 341V339C254.053 339 250.023 334.971 250.023 330L248.023 330ZM239.023 223C243.994 223 248.023 227.029 248.023 232L250.023 232C250.023 225.925 245.098 221 239.023 221L239.023 223Z" fill="#4E496B"/>
<path d="M319 222L309 216.227L309 227.774L319 222ZM229 223L310 223L310 221L229 221L229 223Z" fill="#4E496B"/>
<path d="M72 222L62 216.227L62 227.774L72 222ZM22 223L63 223L63 221L22 221L22 223Z" fill="#4E496B"/>
<rect x="135" y="189" width="32" height="32" rx="16" fill="#5282FF"/>
<path d="M152 206H154.3C154.7 206.6 155.3 207 156 207C157.1 207 158 206.1 158 205C158 203.9 157.1 203 156 203C155.3 203 154.6 203.4 154.3 204H152V200H154.3C154.7 200.6 155.3 201 156 201C157.1 201 158 200.1 158 199C158 197.9 157.1 197 156 197C155.3 197 154.6 197.4 154.3 198H152C150.9 198 150 198.9 150 200V204.3L145 201V204H142V206H145V209L150 205.7V210C150 211.1 150.9 212 152 212H154.3C154.7 212.6 155.3 213 156 213C157.1 213 158 212.1 158 211C158 209.9 157.1 209 156 209C155.3 209 154.6 209.4 154.3 210H152V206Z" fill="white"/>
<path d="M107.243 234.957V239H105.995V234.996L102.81 229.679H104.214L106.658 233.917L109.154 229.679H110.402L107.243 234.957ZM114.839 237.713C114.761 237.869 114.662 238.034 114.54 238.207C114.419 238.372 114.267 238.523 114.085 238.662C113.903 238.801 113.687 238.913 113.435 239C113.193 239.087 112.907 239.13 112.577 239.13C111.971 239.13 111.481 238.961 111.108 238.623C110.736 238.276 110.549 237.782 110.549 237.141C110.549 236.404 110.805 235.863 111.316 235.516C111.836 235.169 112.573 234.996 113.526 234.996H114.787V234.437C114.787 233.969 114.666 233.635 114.423 233.436C114.181 233.237 113.765 233.137 113.175 233.137C112.759 233.137 112.365 233.206 111.992 233.345C111.62 233.475 111.286 233.627 110.991 233.8V232.773C111.234 232.626 111.559 232.483 111.966 232.344C112.382 232.197 112.837 232.123 113.331 232.123C114.181 232.123 114.826 232.301 115.268 232.656C115.71 233.003 115.931 233.544 115.931 234.281V237.908C115.931 237.986 115.931 238.077 115.931 238.181C115.94 238.276 115.944 238.376 115.944 238.48C115.953 238.584 115.962 238.684 115.97 238.779C115.979 238.866 115.988 238.939 115.996 239H114.956C114.93 238.879 114.904 238.71 114.878 238.493C114.861 238.268 114.852 238.073 114.852 237.908L114.839 237.713ZM112.824 238.103C113.18 238.103 113.483 238.029 113.734 237.882C113.986 237.735 114.189 237.566 114.345 237.375C114.501 237.176 114.614 236.985 114.683 236.803C114.753 236.612 114.787 236.478 114.787 236.4V235.906H113.643C112.959 235.906 112.46 236.006 112.148 236.205C111.845 236.396 111.693 236.686 111.693 237.076C111.693 237.379 111.784 237.626 111.966 237.817C112.148 238.008 112.434 238.103 112.824 238.103ZM120.928 233.137C120.408 233.137 119.983 233.258 119.654 233.501C119.333 233.735 119.073 234.038 118.874 234.411V239H117.73V232.253H118.809L118.848 233.462H118.874C119.056 233.072 119.342 232.751 119.732 232.5C120.122 232.249 120.616 232.123 121.214 232.123C121.881 232.123 122.41 232.301 122.8 232.656C123.199 233.003 123.398 233.54 123.398 234.268V239H122.254V234.385C122.254 233.917 122.137 233.592 121.903 233.41C121.669 233.228 121.344 233.137 120.928 233.137ZM130.043 237.674C129.835 238.116 129.545 238.471 129.172 238.74C128.8 239 128.327 239.13 127.755 239.13C127.348 239.13 126.962 239.061 126.598 238.922C126.234 238.775 125.914 238.558 125.636 238.272C125.359 237.977 125.138 237.613 124.973 237.18C124.809 236.738 124.726 236.218 124.726 235.62C124.726 235.031 124.809 234.519 124.973 234.086C125.138 233.644 125.359 233.28 125.636 232.994C125.914 232.699 126.234 232.483 126.598 232.344C126.971 232.197 127.361 232.123 127.768 232.123C128.28 232.123 128.722 232.231 129.094 232.448C129.467 232.656 129.766 232.955 129.991 233.345V229.679H131.135V239H130.134L130.043 237.674ZM127.924 238.103C128.219 238.103 128.492 238.055 128.743 237.96C128.995 237.856 129.211 237.7 129.393 237.492C129.584 237.284 129.731 237.024 129.835 236.712C129.948 236.4 130.004 236.036 130.004 235.62C130.004 235.204 129.948 234.84 129.835 234.528C129.731 234.216 129.584 233.956 129.393 233.748C129.211 233.54 128.995 233.388 128.743 233.293C128.492 233.189 128.219 233.137 127.924 233.137C127.326 233.137 126.837 233.349 126.455 233.774C126.083 234.19 125.896 234.805 125.896 235.62C125.896 236.443 126.087 237.063 126.468 237.479C126.85 237.895 127.335 238.103 127.924 238.103ZM138.371 238.428C138.276 238.497 138.159 238.571 138.02 238.649C137.882 238.727 137.713 238.805 137.513 238.883C137.314 238.952 137.089 239.009 136.837 239.052C136.586 239.104 136.304 239.13 135.992 239.13C134.857 239.13 133.995 238.822 133.405 238.207C132.816 237.592 132.521 236.729 132.521 235.62C132.521 235.074 132.599 234.584 132.755 234.151C132.92 233.718 133.145 233.354 133.431 233.059C133.717 232.756 134.055 232.526 134.445 232.37C134.835 232.205 135.26 232.123 135.719 232.123C136.205 232.123 136.638 232.205 137.019 232.37C137.401 232.535 137.713 232.777 137.955 233.098C138.207 233.419 138.376 233.817 138.462 234.294C138.558 234.762 138.558 235.308 138.462 235.932H133.704C133.748 236.66 133.964 237.206 134.354 237.57C134.744 237.925 135.325 238.103 136.096 238.103C136.616 238.103 137.063 238.029 137.435 237.882C137.808 237.735 138.12 237.574 138.371 237.401V238.428ZM135.693 233.137C135.199 233.137 134.775 233.289 134.419 233.592C134.064 233.895 133.839 234.355 133.743 234.97H137.37C137.405 234.346 137.262 233.887 136.941 233.592C136.621 233.289 136.205 233.137 135.693 233.137ZM142.107 236.322L140.287 239H139.091L141.535 235.503L139.377 232.253H140.703L142.315 234.632L143.94 232.253H145.123L142.887 235.477L145.24 239H143.914L142.107 236.322ZM156.884 239H155.22L150.54 231.174V239H149.383V229.679H151.034L155.714 237.505V229.679H156.884V239ZM164.27 238.428C164.175 238.497 164.058 238.571 163.919 238.649C163.78 238.727 163.611 238.805 163.412 238.883C163.213 238.952 162.987 239.009 162.736 239.052C162.485 239.104 162.203 239.13 161.891 239.13C160.756 239.13 159.893 238.822 159.304 238.207C158.715 237.592 158.42 236.729 158.42 235.62C158.42 235.074 158.498 234.584 158.654 234.151C158.819 233.718 159.044 233.354 159.33 233.059C159.616 232.756 159.954 232.526 160.344 232.37C160.734 232.205 161.159 232.123 161.618 232.123C162.103 232.123 162.537 232.205 162.918 232.37C163.299 232.535 163.611 232.777 163.854 233.098C164.105 233.419 164.274 233.817 164.361 234.294C164.456 234.762 164.456 235.308 164.361 235.932H159.603C159.646 236.66 159.863 237.206 160.253 237.57C160.643 237.925 161.224 238.103 161.995 238.103C162.515 238.103 162.961 238.029 163.334 237.882C163.707 237.735 164.019 237.574 164.27 237.401V238.428ZM161.592 233.137C161.098 233.137 160.673 233.289 160.318 233.592C159.963 233.895 159.737 234.355 159.642 234.97H163.269C163.304 234.346 163.161 233.887 162.84 233.592C162.519 233.289 162.103 233.137 161.592 233.137ZM169.096 238.857C168.958 238.935 168.78 239 168.563 239.052C168.347 239.104 168.117 239.13 167.874 239.13C167.545 239.13 167.263 239.082 167.029 238.987C166.804 238.892 166.618 238.766 166.47 238.61C166.323 238.445 166.215 238.263 166.145 238.064C166.085 237.856 166.054 237.644 166.054 237.427V233.228H165.248V232.253H166.054V230.836H167.198V232.253H169.161V233.228H167.198V237.284C167.198 237.57 167.268 237.778 167.406 237.908C167.554 238.038 167.809 238.103 168.173 238.103C168.511 238.103 168.819 238.008 169.096 237.817V238.857ZM177.964 239H176.209L174.779 233.787L173.31 239H171.607L170.073 232.253H171.282L172.569 238.142L174.207 232.253H175.494L177.093 238.077L178.367 232.253H179.498L177.964 239ZM183.531 239.13C183.072 239.13 182.643 239.052 182.244 238.896C181.846 238.74 181.499 238.515 181.204 238.22C180.918 237.917 180.693 237.548 180.528 237.115C180.364 236.682 180.281 236.183 180.281 235.62C180.281 235.065 180.364 234.571 180.528 234.138C180.693 233.696 180.918 233.328 181.204 233.033C181.499 232.738 181.846 232.513 182.244 232.357C182.643 232.201 183.072 232.123 183.531 232.123C183.999 232.123 184.433 232.201 184.831 232.357C185.23 232.513 185.572 232.738 185.858 233.033C186.153 233.328 186.383 233.696 186.547 234.138C186.721 234.571 186.807 235.065 186.807 235.62C186.807 236.183 186.721 236.682 186.547 237.115C186.383 237.548 186.153 237.917 185.858 238.22C185.572 238.515 185.23 238.74 184.831 238.896C184.433 239.052 183.999 239.13 183.531 239.13ZM183.531 238.103C183.835 238.103 184.112 238.055 184.363 237.96C184.623 237.856 184.849 237.704 185.039 237.505C185.23 237.297 185.377 237.037 185.481 236.725C185.585 236.413 185.637 236.045 185.637 235.62C185.637 235.195 185.585 234.827 185.481 234.515C185.377 234.203 185.23 233.947 185.039 233.748C184.849 233.54 184.623 233.388 184.363 233.293C184.112 233.189 183.835 233.137 183.531 233.137C183.228 233.137 182.951 233.189 182.699 233.293C182.448 233.388 182.227 233.54 182.036 233.748C181.854 233.947 181.711 234.203 181.607 234.515C181.503 234.827 181.451 235.195 181.451 235.62C181.451 236.045 181.503 236.413 181.607 236.725C181.711 237.037 181.854 237.297 182.036 237.505C182.227 237.704 182.448 237.856 182.699 237.96C182.951 238.055 183.228 238.103 183.531 238.103ZM191.543 233.397C191.057 233.44 190.615 233.566 190.217 233.774C189.827 233.973 189.536 234.285 189.346 234.71V239H188.202V232.253H189.203L189.32 233.722H189.346C189.536 233.323 189.809 232.977 190.165 232.682C190.529 232.379 190.988 232.192 191.543 232.123V233.397ZM194.679 236.127H194.081V239H192.937V229.679H194.081V235.152H194.731L197.097 232.253H198.397L195.628 235.581L198.449 239H197.058L194.679 236.127ZM116.021 253H110.262V243.679H111.484V251.895H116.021V253ZM120.188 253.13C119.729 253.13 119.3 253.052 118.901 252.896C118.502 252.74 118.156 252.515 117.861 252.22C117.575 251.917 117.35 251.548 117.185 251.115C117.02 250.682 116.938 250.183 116.938 249.62C116.938 249.065 117.02 248.571 117.185 248.138C117.35 247.696 117.575 247.328 117.861 247.033C118.156 246.738 118.502 246.513 118.901 246.357C119.3 246.201 119.729 246.123 120.188 246.123C120.656 246.123 121.089 246.201 121.488 246.357C121.887 246.513 122.229 246.738 122.515 247.033C122.81 247.328 123.039 247.696 123.204 248.138C123.377 248.571 123.464 249.065 123.464 249.62C123.464 250.183 123.377 250.682 123.204 251.115C123.039 251.548 122.81 251.917 122.515 252.22C122.229 252.515 121.887 252.74 121.488 252.896C121.089 253.052 120.656 253.13 120.188 253.13ZM120.188 252.103C120.491 252.103 120.769 252.055 121.02 251.96C121.28 251.856 121.505 251.704 121.696 251.505C121.887 251.297 122.034 251.037 122.138 250.725C122.242 250.413 122.294 250.045 122.294 249.62C122.294 249.195 122.242 248.827 122.138 248.515C122.034 248.203 121.887 247.947 121.696 247.748C121.505 247.54 121.28 247.388 121.02 247.293C120.769 247.189 120.491 247.137 120.188 247.137C119.885 247.137 119.607 247.189 119.356 247.293C119.105 247.388 118.884 247.54 118.693 247.748C118.511 247.947 118.368 248.203 118.264 248.515C118.16 248.827 118.108 249.195 118.108 249.62C118.108 250.045 118.16 250.413 118.264 250.725C118.368 251.037 118.511 251.297 118.693 251.505C118.884 251.704 119.105 251.856 119.356 251.96C119.607 252.055 119.885 252.103 120.188 252.103ZM128.683 251.713C128.605 251.869 128.506 252.034 128.384 252.207C128.263 252.372 128.111 252.523 127.929 252.662C127.747 252.801 127.531 252.913 127.279 253C127.037 253.087 126.751 253.13 126.421 253.13C125.815 253.13 125.325 252.961 124.952 252.623C124.58 252.276 124.393 251.782 124.393 251.141C124.393 250.404 124.649 249.863 125.16 249.516C125.68 249.169 126.417 248.996 127.37 248.996H128.631V248.437C128.631 247.969 128.51 247.635 128.267 247.436C128.025 247.237 127.609 247.137 127.019 247.137C126.603 247.137 126.209 247.206 125.836 247.345C125.464 247.475 125.13 247.627 124.835 247.8V246.773C125.078 246.626 125.403 246.483 125.81 246.344C126.226 246.197 126.681 246.123 127.175 246.123C128.025 246.123 128.67 246.301 129.112 246.656C129.554 247.003 129.775 247.544 129.775 248.281V251.908C129.775 251.986 129.775 252.077 129.775 252.181C129.784 252.276 129.788 252.376 129.788 252.48C129.797 252.584 129.806 252.684 129.814 252.779C129.823 252.866 129.832 252.939 129.84 253H128.8C128.774 252.879 128.748 252.71 128.722 252.493C128.705 252.268 128.696 252.073 128.696 251.908L128.683 251.713ZM126.668 252.103C127.024 252.103 127.327 252.029 127.578 251.882C127.83 251.735 128.033 251.566 128.189 251.375C128.345 251.176 128.458 250.985 128.527 250.803C128.597 250.612 128.631 250.478 128.631 250.4V249.906H127.487C126.803 249.906 126.304 250.006 125.992 250.205C125.689 250.396 125.537 250.686 125.537 251.076C125.537 251.379 125.628 251.626 125.81 251.817C125.992 252.008 126.278 252.103 126.668 252.103ZM136.41 251.674C136.202 252.116 135.912 252.471 135.539 252.74C135.167 253 134.694 253.13 134.122 253.13C133.715 253.13 133.329 253.061 132.965 252.922C132.601 252.775 132.281 252.558 132.003 252.272C131.726 251.977 131.505 251.613 131.34 251.18C131.176 250.738 131.093 250.218 131.093 249.62C131.093 249.031 131.176 248.519 131.34 248.086C131.505 247.644 131.726 247.28 132.003 246.994C132.281 246.699 132.601 246.483 132.965 246.344C133.338 246.197 133.728 246.123 134.135 246.123C134.647 246.123 135.089 246.231 135.461 246.448C135.834 246.656 136.133 246.955 136.358 247.345V243.679H137.502V253H136.501L136.41 251.674ZM134.291 252.103C134.586 252.103 134.859 252.055 135.11 251.96C135.362 251.856 135.578 251.7 135.76 251.492C135.951 251.284 136.098 251.024 136.202 250.712C136.315 250.4 136.371 250.036 136.371 249.62C136.371 249.204 136.315 248.84 136.202 248.528C136.098 248.216 135.951 247.956 135.76 247.748C135.578 247.54 135.362 247.388 135.11 247.293C134.859 247.189 134.586 247.137 134.291 247.137C133.693 247.137 133.204 247.349 132.822 247.774C132.45 248.19 132.263 248.805 132.263 249.62C132.263 250.443 132.454 251.063 132.835 251.479C133.217 251.895 133.702 252.103 134.291 252.103ZM142.382 243.679H145.541C146.563 243.679 147.339 243.852 147.868 244.199C148.405 244.546 148.674 245.131 148.674 245.954C148.674 246.292 148.626 246.587 148.531 246.838C148.444 247.081 148.318 247.293 148.154 247.475C147.998 247.648 147.803 247.791 147.569 247.904C147.343 248.017 147.092 248.103 146.815 248.164C147.543 248.251 148.089 248.463 148.453 248.801C148.825 249.13 149.012 249.633 149.012 250.309C149.012 250.794 148.921 251.21 148.739 251.557C148.565 251.895 148.323 252.172 148.011 252.389C147.699 252.597 147.33 252.753 146.906 252.857C146.481 252.952 146.017 253 145.515 253H142.382V243.679ZM143.604 244.797V247.657H145.45C145.744 247.657 146.013 247.627 146.256 247.566C146.498 247.497 146.706 247.397 146.88 247.267C147.053 247.128 147.187 246.959 147.283 246.76C147.387 246.552 147.439 246.305 147.439 246.019C147.439 245.542 147.274 245.222 146.945 245.057C146.615 244.884 146.147 244.797 145.541 244.797H143.604ZM143.604 248.762V251.895H145.515C145.844 251.895 146.143 251.869 146.412 251.817C146.68 251.765 146.91 251.678 147.101 251.557C147.3 251.436 147.452 251.275 147.556 251.076C147.668 250.877 147.725 250.63 147.725 250.335C147.725 249.746 147.534 249.338 147.153 249.113C146.78 248.879 146.186 248.762 145.372 248.762H143.604ZM154.556 251.713C154.478 251.869 154.379 252.034 154.257 252.207C154.136 252.372 153.984 252.523 153.802 252.662C153.62 252.801 153.404 252.913 153.152 253C152.91 253.087 152.624 253.13 152.294 253.13C151.688 253.13 151.198 252.961 150.825 252.623C150.453 252.276 150.266 251.782 150.266 251.141C150.266 250.404 150.522 249.863 151.033 249.516C151.553 249.169 152.29 248.996 153.243 248.996H154.504V248.437C154.504 247.969 154.383 247.635 154.14 247.436C153.898 247.237 153.482 247.137 152.892 247.137C152.476 247.137 152.082 247.206 151.709 247.345C151.337 247.475 151.003 247.627 150.708 247.8V246.773C150.951 246.626 151.276 246.483 151.683 246.344C152.099 246.197 152.554 246.123 153.048 246.123C153.898 246.123 154.543 246.301 154.985 246.656C155.427 247.003 155.648 247.544 155.648 248.281V251.908C155.648 251.986 155.648 252.077 155.648 252.181C155.657 252.276 155.661 252.376 155.661 252.48C155.67 252.584 155.679 252.684 155.687 252.779C155.696 252.866 155.705 252.939 155.713 253H154.673C154.647 252.879 154.621 252.71 154.595 252.493C154.578 252.268 154.569 252.073 154.569 251.908L154.556 251.713ZM152.541 252.103C152.897 252.103 153.2 252.029 153.451 251.882C153.703 251.735 153.906 251.566 154.062 251.375C154.218 251.176 154.331 250.985 154.4 250.803C154.47 250.612 154.504 250.478 154.504 250.4V249.906H153.36C152.676 249.906 152.177 250.006 151.865 250.205C151.562 250.396 151.41 250.686 151.41 251.076C151.41 251.379 151.501 251.626 151.683 251.817C151.865 252.008 152.151 252.103 152.541 252.103ZM158.591 243.679V253H157.447V243.679H158.591ZM164.408 251.713C164.33 251.869 164.23 252.034 164.109 252.207C163.988 252.372 163.836 252.523 163.654 252.662C163.472 252.801 163.255 252.913 163.004 253C162.761 253.087 162.475 253.13 162.146 253.13C161.539 253.13 161.05 252.961 160.677 252.623C160.304 252.276 160.118 251.782 160.118 251.141C160.118 250.404 160.374 249.863 160.885 249.516C161.405 249.169 162.142 248.996 163.095 248.996H164.356V248.437C164.356 247.969 164.235 247.635 163.992 247.436C163.749 247.237 163.333 247.137 162.744 247.137C162.328 247.137 161.934 247.206 161.561 247.345C161.188 247.475 160.855 247.627 160.56 247.8V246.773C160.803 246.626 161.128 246.483 161.535 246.344C161.951 246.197 162.406 246.123 162.9 246.123C163.749 246.123 164.395 246.301 164.837 246.656C165.279 247.003 165.5 247.544 165.5 248.281V251.908C165.5 251.986 165.5 252.077 165.5 252.181C165.509 252.276 165.513 252.376 165.513 252.48C165.522 252.584 165.53 252.684 165.539 252.779C165.548 252.866 165.556 252.939 165.565 253H164.525C164.499 252.879 164.473 252.71 164.447 252.493C164.43 252.268 164.421 252.073 164.421 251.908L164.408 251.713ZM162.393 252.103C162.748 252.103 163.052 252.029 163.303 251.882C163.554 251.735 163.758 251.566 163.914 251.375C164.07 251.176 164.183 250.985 164.252 250.803C164.321 250.612 164.356 250.478 164.356 250.4V249.906H163.212C162.527 249.906 162.029 250.006 161.717 250.205C161.414 250.396 161.262 250.686 161.262 251.076C161.262 251.379 161.353 251.626 161.535 251.817C161.717 252.008 162.003 252.103 162.393 252.103ZM170.497 247.137C169.977 247.137 169.552 247.258 169.223 247.501C168.902 247.735 168.642 248.038 168.443 248.411V253H167.299V246.253H168.378L168.417 247.462H168.443C168.625 247.072 168.911 246.751 169.301 246.5C169.691 246.249 170.185 246.123 170.783 246.123C171.45 246.123 171.979 246.301 172.369 246.656C172.767 247.003 172.967 247.54 172.967 248.268V253H171.823V248.385C171.823 247.917 171.706 247.592 171.472 247.41C171.238 247.228 170.913 247.137 170.497 247.137ZM177.688 253.13C177.168 253.13 176.696 253.052 176.271 252.896C175.855 252.731 175.5 252.502 175.205 252.207C174.911 251.904 174.685 251.535 174.529 251.102C174.373 250.669 174.295 250.175 174.295 249.62C174.295 249.074 174.373 248.584 174.529 248.151C174.694 247.718 174.924 247.354 175.218 247.059C175.513 246.756 175.873 246.526 176.297 246.37C176.722 246.205 177.203 246.123 177.74 246.123C178.156 246.123 178.538 246.171 178.884 246.266C179.231 246.353 179.517 246.483 179.742 246.656V247.683C179.465 247.501 179.153 247.367 178.806 247.28C178.468 247.185 178.117 247.137 177.753 247.137C176.965 247.137 176.384 247.341 176.011 247.748C175.647 248.155 175.465 248.779 175.465 249.62C175.465 250.461 175.643 251.085 175.998 251.492C176.354 251.899 176.917 252.103 177.688 252.103C178.096 252.103 178.468 252.055 178.806 251.96C179.153 251.856 179.465 251.726 179.742 251.57V252.597C179.5 252.744 179.205 252.87 178.858 252.974C178.52 253.078 178.13 253.13 177.688 253.13ZM186.506 252.428C186.41 252.497 186.293 252.571 186.155 252.649C186.016 252.727 185.847 252.805 185.648 252.883C185.448 252.952 185.223 253.009 184.972 253.052C184.72 253.104 184.439 253.13 184.127 253.13C182.991 253.13 182.129 252.822 181.54 252.207C180.95 251.592 180.656 250.729 180.656 249.62C180.656 249.074 180.734 248.584 180.89 248.151C181.054 247.718 181.28 247.354 181.566 247.059C181.852 246.756 182.19 246.526 182.58 246.37C182.97 246.205 183.394 246.123 183.854 246.123C184.339 246.123 184.772 246.205 185.154 246.37C185.535 246.535 185.847 246.777 186.09 247.098C186.341 247.419 186.51 247.817 186.597 248.294C186.692 248.762 186.692 249.308 186.597 249.932H181.839C181.882 250.66 182.099 251.206 182.489 251.57C182.879 251.925 183.459 252.103 184.231 252.103C184.751 252.103 185.197 252.029 185.57 251.882C185.942 251.735 186.254 251.574 186.506 251.401V252.428ZM183.828 247.137C183.334 247.137 182.909 247.289 182.554 247.592C182.198 247.895 181.973 248.355 181.878 248.97H185.505C185.539 248.346 185.396 247.887 185.076 247.592C184.755 247.289 184.339 247.137 183.828 247.137ZM191.371 247.397C190.886 247.44 190.444 247.566 190.045 247.774C189.655 247.973 189.365 248.285 189.174 248.71V253H188.03V246.253H189.031L189.148 247.722H189.174C189.365 247.323 189.638 246.977 189.993 246.682C190.357 246.379 190.817 246.192 191.371 246.123V247.397Z" fill="black"/>
<rect x="323" y="68" width="100" height="75" rx="12" fill="white"/>
<rect x="357" y="81" width="32" height="32" rx="16" fill="#5282FF"/>
<path d="M381 96V94H379V92C379 91.4 378.6 91 378 91H376V89H374V91H372V89H370V91H368C367.4 91 367 91.4 367 92V94H365V96H367V98H365V100H367V102C367 102.6 367.4 103 368 103H370V105H372V103H374V105H376V103H378C378.6 103 379 102.6 379 102V100H381V98H379V96H381ZM376 100H370V94H376V100Z" fill="white"/>
<path d="M354.265 121.679H356.085L359.426 131H358.126L357.164 128.335H353.043L352.094 131H350.95L354.265 121.679ZM356.774 127.23L355.11 122.589L353.446 127.23H356.774ZM364.02 131.13C363.5 131.13 363.049 131.009 362.668 130.766C362.295 130.523 361.996 130.19 361.771 129.765V133.301H360.627V124.253H361.628L361.745 125.566C361.97 125.124 362.274 124.773 362.655 124.513C363.036 124.253 363.509 124.123 364.072 124.123C364.462 124.123 364.835 124.197 365.19 124.344C365.554 124.483 365.87 124.699 366.139 124.994C366.416 125.28 366.633 125.644 366.789 126.086C366.954 126.519 367.036 127.031 367.036 127.62C367.036 128.218 366.954 128.738 366.789 129.18C366.624 129.613 366.403 129.977 366.126 130.272C365.849 130.558 365.528 130.775 365.164 130.922C364.8 131.061 364.419 131.13 364.02 131.13ZM363.851 130.103C364.449 130.103 364.93 129.899 365.294 129.492C365.667 129.076 365.853 128.452 365.853 127.62C365.853 126.805 365.667 126.19 365.294 125.774C364.93 125.349 364.449 125.137 363.851 125.137C363.556 125.137 363.279 125.189 363.019 125.293C362.768 125.397 362.547 125.553 362.356 125.761C362.174 125.96 362.027 126.216 361.914 126.528C361.81 126.84 361.758 127.204 361.758 127.62C361.758 128.036 361.81 128.4 361.914 128.712C362.027 129.024 362.174 129.284 362.356 129.492C362.547 129.7 362.768 129.856 363.019 129.96C363.279 130.055 363.556 130.103 363.851 130.103ZM371.815 131.13C371.295 131.13 370.844 131.009 370.463 130.766C370.09 130.523 369.791 130.19 369.566 129.765V133.301H368.422V124.253H369.423L369.54 125.566C369.765 125.124 370.069 124.773 370.45 124.513C370.831 124.253 371.304 124.123 371.867 124.123C372.257 124.123 372.63 124.197 372.985 124.344C373.349 124.483 373.665 124.699 373.934 124.994C374.211 125.28 374.428 125.644 374.584 126.086C374.749 126.519 374.831 127.031 374.831 127.62C374.831 128.218 374.749 128.738 374.584 129.18C374.419 129.613 374.198 129.977 373.921 130.272C373.644 130.558 373.323 130.775 372.959 130.922C372.595 131.061 372.214 131.13 371.815 131.13ZM371.646 130.103C372.244 130.103 372.725 129.899 373.089 129.492C373.462 129.076 373.648 128.452 373.648 127.62C373.648 126.805 373.462 126.19 373.089 125.774C372.725 125.349 372.244 125.137 371.646 125.137C371.351 125.137 371.074 125.189 370.814 125.293C370.563 125.397 370.342 125.553 370.151 125.761C369.969 125.96 369.822 126.216 369.709 126.528C369.605 126.84 369.553 127.204 369.553 127.62C369.553 128.036 369.605 128.4 369.709 128.712C369.822 129.024 369.969 129.284 370.151 129.492C370.342 129.7 370.563 129.856 370.814 129.96C371.074 130.055 371.351 130.103 371.646 130.103ZM383.493 131H381.582L378.332 121.679H379.606L382.583 130.259L385.56 121.679H386.73L383.493 131ZM392.616 128.218L395.645 121.679H397.231V131H395.996V123.499L393.136 129.57L392.525 129.583H391.979L391.992 129.57L389.171 123.395V131H388.014V121.679H389.717L392.616 128.218Z" fill="black"/>
<rect x="323" y="184" width="100" height="75" rx="12" fill="white"/>
<rect x="323" y="304" width="100" height="75" rx="12" fill="white"/>
<rect x="357" y="197" width="32" height="32" rx="16" fill="#5282FF"/>
<path d="M381 212V210H379V208C379 207.4 378.6 207 378 207H376V205H374V207H372V205H370V207H368C367.4 207 367 207.4 367 208V210H365V212H367V214H365V216H367V218C367 218.6 367.4 219 368 219H370V221H372V219H374V221H376V219H378C378.6 219 379 218.6 379 218V216H381V214H379V212H381ZM376 216H370V210H376V216Z" fill="white"/>
<rect x="357" y="317" width="32" height="32" rx="16" fill="#5282FF"/>
<path d="M381 332V330H379V328C379 327.4 378.6 327 378 327H376V325H374V327H372V325H370V327H368C367.4 327 367 327.4 367 328V330H365V332H367V334H365V336H367V338C367 338.6 367.4 339 368 339H370V341H372V339H374V341H376V339H378C378.6 339 379 338.6 379 338V336H381V334H379V332H381ZM376 336H370V330H376V336Z" fill="white"/>
<path d="M354.265 237.679H356.085L359.426 247H358.126L357.164 244.335H353.043L352.094 247H350.95L354.265 237.679ZM356.774 243.23L355.11 238.589L353.446 243.23H356.774ZM364.02 247.13C363.5 247.13 363.049 247.009 362.668 246.766C362.295 246.523 361.996 246.19 361.771 245.765V249.301H360.627V240.253H361.628L361.745 241.566C361.97 241.124 362.274 240.773 362.655 240.513C363.036 240.253 363.509 240.123 364.072 240.123C364.462 240.123 364.835 240.197 365.19 240.344C365.554 240.483 365.87 240.699 366.139 240.994C366.416 241.28 366.633 241.644 366.789 242.086C366.954 242.519 367.036 243.031 367.036 243.62C367.036 244.218 366.954 244.738 366.789 245.18C366.624 245.613 366.403 245.977 366.126 246.272C365.849 246.558 365.528 246.775 365.164 246.922C364.8 247.061 364.419 247.13 364.02 247.13ZM363.851 246.103C364.449 246.103 364.93 245.899 365.294 245.492C365.667 245.076 365.853 244.452 365.853 243.62C365.853 242.805 365.667 242.19 365.294 241.774C364.93 241.349 364.449 241.137 363.851 241.137C363.556 241.137 363.279 241.189 363.019 241.293C362.768 241.397 362.547 241.553 362.356 241.761C362.174 241.96 362.027 242.216 361.914 242.528C361.81 242.84 361.758 243.204 361.758 243.62C361.758 244.036 361.81 244.4 361.914 244.712C362.027 245.024 362.174 245.284 362.356 245.492C362.547 245.7 362.768 245.856 363.019 245.96C363.279 246.055 363.556 246.103 363.851 246.103ZM371.815 247.13C371.295 247.13 370.844 247.009 370.463 246.766C370.09 246.523 369.791 246.19 369.566 245.765V249.301H368.422V240.253H369.423L369.54 241.566C369.765 241.124 370.069 240.773 370.45 240.513C370.831 240.253 371.304 240.123 371.867 240.123C372.257 240.123 372.63 240.197 372.985 240.344C373.349 240.483 373.665 240.699 373.934 240.994C374.211 241.28 374.428 241.644 374.584 242.086C374.749 242.519 374.831 243.031 374.831 243.62C374.831 244.218 374.749 244.738 374.584 245.18C374.419 245.613 374.198 245.977 373.921 246.272C373.644 246.558 373.323 246.775 372.959 246.922C372.595 247.061 372.214 247.13 371.815 247.13ZM371.646 246.103C372.244 246.103 372.725 245.899 373.089 245.492C373.462 245.076 373.648 244.452 373.648 243.62C373.648 242.805 373.462 242.19 373.089 241.774C372.725 241.349 372.244 241.137 371.646 241.137C371.351 241.137 371.074 241.189 370.814 241.293C370.563 241.397 370.342 241.553 370.151 241.761C369.969 241.96 369.822 242.216 369.709 242.528C369.605 242.84 369.553 243.204 369.553 243.62C369.553 244.036 369.605 244.4 369.709 244.712C369.822 245.024 369.969 245.284 370.151 245.492C370.342 245.7 370.563 245.856 370.814 245.96C371.074 246.055 371.351 246.103 371.646 246.103ZM383.493 247H381.582L378.332 237.679H379.606L382.583 246.259L385.56 237.679H386.73L383.493 247ZM392.616 244.218L395.645 237.679H397.231V247H395.996V239.499L393.136 245.57L392.525 245.583H391.979L391.992 245.57L389.171 239.395V247H388.014V237.679H389.717L392.616 244.218Z" fill="black"/>
<path d="M354.265 357.679H356.085L359.426 367H358.126L357.164 364.335H353.043L352.094 367H350.95L354.265 357.679ZM356.774 363.23L355.11 358.589L353.446 363.23H356.774ZM364.02 367.13C363.5 367.13 363.049 367.009 362.668 366.766C362.295 366.523 361.996 366.19 361.771 365.765V369.301H360.627V360.253H361.628L361.745 361.566C361.97 361.124 362.274 360.773 362.655 360.513C363.036 360.253 363.509 360.123 364.072 360.123C364.462 360.123 364.835 360.197 365.19 360.344C365.554 360.483 365.87 360.699 366.139 360.994C366.416 361.28 366.633 361.644 366.789 362.086C366.954 362.519 367.036 363.031 367.036 363.62C367.036 364.218 366.954 364.738 366.789 365.18C366.624 365.613 366.403 365.977 366.126 366.272C365.849 366.558 365.528 366.775 365.164 366.922C364.8 367.061 364.419 367.13 364.02 367.13ZM363.851 366.103C364.449 366.103 364.93 365.899 365.294 365.492C365.667 365.076 365.853 364.452 365.853 363.62C365.853 362.805 365.667 362.19 365.294 361.774C364.93 361.349 364.449 361.137 363.851 361.137C363.556 361.137 363.279 361.189 363.019 361.293C362.768 361.397 362.547 361.553 362.356 361.761C362.174 361.96 362.027 362.216 361.914 362.528C361.81 362.84 361.758 363.204 361.758 363.62C361.758 364.036 361.81 364.4 361.914 364.712C362.027 365.024 362.174 365.284 362.356 365.492C362.547 365.7 362.768 365.856 363.019 365.96C363.279 366.055 363.556 366.103 363.851 366.103ZM371.815 367.13C371.295 367.13 370.844 367.009 370.463 366.766C370.09 366.523 369.791 366.19 369.566 365.765V369.301H368.422V360.253H369.423L369.54 361.566C369.765 361.124 370.069 360.773 370.45 360.513C370.831 360.253 371.304 360.123 371.867 360.123C372.257 360.123 372.63 360.197 372.985 360.344C373.349 360.483 373.665 360.699 373.934 360.994C374.211 361.28 374.428 361.644 374.584 362.086C374.749 362.519 374.831 363.031 374.831 363.62C374.831 364.218 374.749 364.738 374.584 365.18C374.419 365.613 374.198 365.977 373.921 366.272C373.644 366.558 373.323 366.775 372.959 366.922C372.595 367.061 372.214 367.13 371.815 367.13ZM371.646 366.103C372.244 366.103 372.725 365.899 373.089 365.492C373.462 365.076 373.648 364.452 373.648 363.62C373.648 362.805 373.462 362.19 373.089 361.774C372.725 361.349 372.244 361.137 371.646 361.137C371.351 361.137 371.074 361.189 370.814 361.293C370.563 361.397 370.342 361.553 370.151 361.761C369.969 361.96 369.822 362.216 369.709 362.528C369.605 362.84 369.553 363.204 369.553 363.62C369.553 364.036 369.605 364.4 369.709 364.712C369.822 365.024 369.969 365.284 370.151 365.492C370.342 365.7 370.563 365.856 370.814 365.96C371.074 366.055 371.351 366.103 371.646 366.103ZM383.493 367H381.582L378.332 357.679H379.606L382.583 366.259L385.56 357.679H386.73L383.493 367ZM392.616 364.218L395.645 357.679H397.231V367H395.996V359.499L393.136 365.57L392.525 365.583H391.979L391.992 365.57L389.171 359.395V367H388.014V357.679H389.717L392.616 364.218Z" fill="black"/>
<g filter="url(#filter1_d_530_441)">
<rect x="83" y="129" width="135" height="28" rx="12" fill="white" shape-rendering="crispEdges"/>
<path d="M109.076 145.713C108.998 145.869 108.898 146.034 108.777 146.207C108.655 146.372 108.504 146.523 108.322 146.662C108.14 146.801 107.923 146.913 107.672 147C107.429 147.087 107.143 147.13 106.814 147.13C106.207 147.13 105.717 146.961 105.345 146.623C104.972 146.276 104.786 145.782 104.786 145.141C104.786 144.404 105.041 143.863 105.553 143.516C106.073 143.169 106.809 142.996 107.763 142.996H109.024V142.437C109.024 141.969 108.902 141.635 108.66 141.436C108.417 141.237 108.001 141.137 107.412 141.137C106.996 141.137 106.601 141.206 106.229 141.345C105.856 141.475 105.522 141.627 105.228 141.8V140.773C105.47 140.626 105.795 140.483 106.203 140.344C106.619 140.197 107.074 140.123 107.568 140.123C108.417 140.123 109.063 140.301 109.505 140.656C109.947 141.003 110.168 141.544 110.168 142.281V145.908C110.168 145.986 110.168 146.077 110.168 146.181C110.176 146.276 110.181 146.376 110.181 146.48C110.189 146.584 110.198 146.684 110.207 146.779C110.215 146.866 110.224 146.939 110.233 147H109.193C109.167 146.879 109.141 146.71 109.115 146.493C109.097 146.268 109.089 146.073 109.089 145.908L109.076 145.713ZM107.061 146.103C107.416 146.103 107.719 146.029 107.971 145.882C108.222 145.735 108.426 145.566 108.582 145.375C108.738 145.176 108.85 144.985 108.92 144.803C108.989 144.612 109.024 144.478 109.024 144.4V143.906H107.88C107.195 143.906 106.697 144.006 106.385 144.205C106.081 144.396 105.93 144.686 105.93 145.076C105.93 145.379 106.021 145.626 106.203 145.817C106.385 146.008 106.671 146.103 107.061 146.103ZM115.359 147.13C114.839 147.13 114.389 147.009 114.007 146.766C113.635 146.523 113.336 146.19 113.11 145.765V149.301H111.966V140.253H112.967L113.084 141.566C113.31 141.124 113.613 140.773 113.994 140.513C114.376 140.253 114.848 140.123 115.411 140.123C115.801 140.123 116.174 140.197 116.529 140.344C116.893 140.483 117.21 140.699 117.478 140.994C117.756 141.28 117.972 141.644 118.128 142.086C118.293 142.519 118.375 143.031 118.375 143.62C118.375 144.218 118.293 144.738 118.128 145.18C117.964 145.613 117.743 145.977 117.465 146.272C117.188 146.558 116.867 146.775 116.503 146.922C116.139 147.061 115.758 147.13 115.359 147.13ZM115.19 146.103C115.788 146.103 116.269 145.899 116.633 145.492C117.006 145.076 117.192 144.452 117.192 143.62C117.192 142.805 117.006 142.19 116.633 141.774C116.269 141.349 115.788 141.137 115.19 141.137C114.896 141.137 114.618 141.189 114.358 141.293C114.107 141.397 113.886 141.553 113.695 141.761C113.513 141.96 113.366 142.216 113.253 142.528C113.149 142.84 113.097 143.204 113.097 143.62C113.097 144.036 113.149 144.4 113.253 144.712C113.366 145.024 113.513 145.284 113.695 145.492C113.886 145.7 114.107 145.856 114.358 145.96C114.618 146.055 114.896 146.103 115.19 146.103ZM123.154 147.13C122.634 147.13 122.184 147.009 121.802 146.766C121.43 146.523 121.131 146.19 120.905 145.765V149.301H119.761V140.253H120.762L120.879 141.566C121.105 141.124 121.408 140.773 121.789 140.513C122.171 140.253 122.643 140.123 123.206 140.123C123.596 140.123 123.969 140.197 124.324 140.344C124.688 140.483 125.005 140.699 125.273 140.994C125.551 141.28 125.767 141.644 125.923 142.086C126.088 142.519 126.17 143.031 126.17 143.62C126.17 144.218 126.088 144.738 125.923 145.18C125.759 145.613 125.538 145.977 125.26 146.272C124.983 146.558 124.662 146.775 124.298 146.922C123.934 147.061 123.553 147.13 123.154 147.13ZM122.985 146.103C123.583 146.103 124.064 145.899 124.428 145.492C124.801 145.076 124.987 144.452 124.987 143.62C124.987 142.805 124.801 142.19 124.428 141.774C124.064 141.349 123.583 141.137 122.985 141.137C122.691 141.137 122.413 141.189 122.153 141.293C121.902 141.397 121.681 141.553 121.49 141.761C121.308 141.96 121.161 142.216 121.048 142.528C120.944 142.84 120.892 143.204 120.892 143.62C120.892 144.036 120.944 144.4 121.048 144.712C121.161 145.024 121.308 145.284 121.49 145.492C121.681 145.7 121.902 145.856 122.153 145.96C122.413 146.055 122.691 146.103 122.985 146.103ZM127.99 147.078C127.738 147.078 127.535 147 127.379 146.844C127.223 146.679 127.145 146.484 127.145 146.259C127.145 146.016 127.223 145.817 127.379 145.661C127.535 145.505 127.738 145.427 127.99 145.427C128.232 145.427 128.432 145.505 128.588 145.661C128.744 145.817 128.822 146.016 128.822 146.259C128.822 146.484 128.744 146.679 128.588 146.844C128.432 147 128.232 147.078 127.99 147.078ZM131.62 147H130.476V140.253H131.477L131.594 141.462H131.62C131.802 141.081 132.075 140.764 132.439 140.513C132.803 140.253 133.28 140.123 133.869 140.123C134.389 140.123 134.814 140.249 135.143 140.5C135.481 140.743 135.706 141.111 135.819 141.605C136.01 141.146 136.3 140.786 136.69 140.526C137.089 140.257 137.57 140.123 138.133 140.123C138.757 140.123 139.251 140.301 139.615 140.656C139.979 141.003 140.161 141.54 140.161 142.268V147H139.004V142.411C139.004 141.969 138.896 141.648 138.679 141.449C138.462 141.241 138.168 141.137 137.795 141.137C137.544 141.137 137.323 141.176 137.132 141.254C136.941 141.323 136.772 141.423 136.625 141.553C136.478 141.683 136.343 141.835 136.222 142.008C136.101 142.181 135.988 142.363 135.884 142.554V147H134.74V142.281C134.74 141.848 134.632 141.549 134.415 141.384C134.198 141.219 133.904 141.137 133.531 141.137C133.288 141.137 133.072 141.167 132.881 141.228C132.69 141.289 132.517 141.375 132.361 141.488C132.214 141.601 132.079 141.739 131.958 141.904C131.837 142.06 131.724 142.233 131.62 142.424V147ZM145.268 146.922C145.112 147.329 144.947 147.685 144.774 147.988C144.6 148.3 144.405 148.564 144.189 148.781C143.972 148.998 143.729 149.158 143.461 149.262C143.192 149.375 142.884 149.431 142.538 149.431C142.364 149.431 142.204 149.418 142.057 149.392C141.909 149.375 141.775 149.34 141.654 149.288V148.183C141.749 148.252 141.87 148.304 142.018 148.339C142.165 148.382 142.325 148.404 142.499 148.404C142.819 148.404 143.084 148.326 143.292 148.17C143.5 148.023 143.699 147.784 143.89 147.455L141.147 140.253H142.408L144.553 145.947L146.685 140.253H147.79L145.268 146.922ZM153.568 145.674C153.36 146.116 153.07 146.471 152.697 146.74C152.324 147 151.852 147.13 151.28 147.13C150.873 147.13 150.487 147.061 150.123 146.922C149.759 146.775 149.438 146.558 149.161 146.272C148.884 145.977 148.663 145.613 148.498 145.18C148.333 144.738 148.251 144.218 148.251 143.62C148.251 143.031 148.333 142.519 148.498 142.086C148.663 141.644 148.884 141.28 149.161 140.994C149.438 140.699 149.759 140.483 150.123 140.344C150.496 140.197 150.886 140.123 151.293 140.123C151.804 140.123 152.246 140.231 152.619 140.448C152.992 140.656 153.291 140.955 153.516 141.345V137.679H154.66V147H153.659L153.568 145.674ZM151.449 146.103C151.744 146.103 152.017 146.055 152.268 145.96C152.519 145.856 152.736 145.7 152.918 145.492C153.109 145.284 153.256 145.024 153.36 144.712C153.473 144.4 153.529 144.036 153.529 143.62C153.529 143.204 153.473 142.84 153.36 142.528C153.256 142.216 153.109 141.956 152.918 141.748C152.736 141.54 152.519 141.388 152.268 141.293C152.017 141.189 151.744 141.137 151.449 141.137C150.851 141.137 150.361 141.349 149.98 141.774C149.607 142.19 149.421 142.805 149.421 143.62C149.421 144.443 149.612 145.063 149.993 145.479C150.374 145.895 150.86 146.103 151.449 146.103ZM159.296 147.13C158.836 147.13 158.407 147.052 158.009 146.896C157.61 146.74 157.263 146.515 156.969 146.22C156.683 145.917 156.457 145.548 156.293 145.115C156.128 144.682 156.046 144.183 156.046 143.62C156.046 143.065 156.128 142.571 156.293 142.138C156.457 141.696 156.683 141.328 156.969 141.033C157.263 140.738 157.61 140.513 158.009 140.357C158.407 140.201 158.836 140.123 159.296 140.123C159.764 140.123 160.197 140.201 160.596 140.357C160.994 140.513 161.337 140.738 161.623 141.033C161.917 141.328 162.147 141.696 162.312 142.138C162.485 142.571 162.572 143.065 162.572 143.62C162.572 144.183 162.485 144.682 162.312 145.115C162.147 145.548 161.917 145.917 161.623 146.22C161.337 146.515 160.994 146.74 160.596 146.896C160.197 147.052 159.764 147.13 159.296 147.13ZM159.296 146.103C159.599 146.103 159.876 146.055 160.128 145.96C160.388 145.856 160.613 145.704 160.804 145.505C160.994 145.297 161.142 145.037 161.246 144.725C161.35 144.413 161.402 144.045 161.402 143.62C161.402 143.195 161.35 142.827 161.246 142.515C161.142 142.203 160.994 141.947 160.804 141.748C160.613 141.54 160.388 141.388 160.128 141.293C159.876 141.189 159.599 141.137 159.296 141.137C158.992 141.137 158.715 141.189 158.464 141.293C158.212 141.388 157.991 141.54 157.801 141.748C157.619 141.947 157.476 142.203 157.372 142.515C157.268 142.827 157.216 143.195 157.216 143.62C157.216 144.045 157.268 144.413 157.372 144.725C157.476 145.037 157.619 145.297 157.801 145.505C157.991 145.704 158.212 145.856 158.464 145.96C158.715 146.055 158.992 146.103 159.296 146.103ZM165.11 147H163.966V140.253H164.967L165.084 141.462H165.11C165.292 141.081 165.565 140.764 165.929 140.513C166.293 140.253 166.77 140.123 167.359 140.123C167.879 140.123 168.304 140.249 168.633 140.5C168.971 140.743 169.197 141.111 169.309 141.605C169.5 141.146 169.79 140.786 170.18 140.526C170.579 140.257 171.06 140.123 171.623 140.123C172.247 140.123 172.741 140.301 173.105 140.656C173.469 141.003 173.651 141.54 173.651 142.268V147H172.494V142.411C172.494 141.969 172.386 141.648 172.169 141.449C171.953 141.241 171.658 141.137 171.285 141.137C171.034 141.137 170.813 141.176 170.622 141.254C170.432 141.323 170.263 141.423 170.115 141.553C169.968 141.683 169.834 141.835 169.712 142.008C169.591 142.181 169.478 142.363 169.374 142.554V147H168.23V142.281C168.23 141.848 168.122 141.549 167.905 141.384C167.689 141.219 167.394 141.137 167.021 141.137C166.779 141.137 166.562 141.167 166.371 141.228C166.181 141.289 166.007 141.375 165.851 141.488C165.704 141.601 165.57 141.739 165.448 141.904C165.327 142.06 165.214 142.233 165.11 142.424V147ZM176.067 147.078C175.816 147.078 175.612 147 175.456 146.844C175.3 146.679 175.222 146.484 175.222 146.259C175.222 146.016 175.3 145.817 175.456 145.661C175.612 145.505 175.816 145.427 176.067 145.427C176.31 145.427 176.509 145.505 176.665 145.661C176.821 145.817 176.899 146.016 176.899 146.259C176.899 146.484 176.821 146.679 176.665 146.844C176.509 147 176.31 147.078 176.067 147.078ZM181.751 141.137C181.231 141.137 180.807 141.258 180.477 141.501C180.157 141.735 179.897 142.038 179.697 142.411V147H178.553V140.253H179.632L179.671 141.462H179.697C179.879 141.072 180.165 140.751 180.555 140.5C180.945 140.249 181.439 140.123 182.037 140.123C182.705 140.123 183.233 140.301 183.623 140.656C184.022 141.003 184.221 141.54 184.221 142.268V147H183.077V142.385C183.077 141.917 182.96 141.592 182.726 141.41C182.492 141.228 182.167 141.137 181.751 141.137ZM191.4 146.428C191.304 146.497 191.187 146.571 191.049 146.649C190.91 146.727 190.741 146.805 190.542 146.883C190.342 146.952 190.117 147.009 189.866 147.052C189.614 147.104 189.333 147.13 189.021 147.13C187.885 147.13 187.023 146.822 186.434 146.207C185.844 145.592 185.55 144.729 185.55 143.62C185.55 143.074 185.628 142.584 185.784 142.151C185.948 141.718 186.174 141.354 186.46 141.059C186.746 140.756 187.084 140.526 187.474 140.37C187.864 140.205 188.288 140.123 188.748 140.123C189.233 140.123 189.666 140.205 190.048 140.37C190.429 140.535 190.741 140.777 190.984 141.098C191.235 141.419 191.404 141.817 191.491 142.294C191.586 142.762 191.586 143.308 191.491 143.932H186.733C186.776 144.66 186.993 145.206 187.383 145.57C187.773 145.925 188.353 146.103 189.125 146.103C189.645 146.103 190.091 146.029 190.464 145.882C190.836 145.735 191.148 145.574 191.4 145.401V146.428ZM188.722 141.137C188.228 141.137 187.803 141.289 187.448 141.592C187.092 141.895 186.867 142.355 186.772 142.97H190.399C190.433 142.346 190.29 141.887 189.97 141.592C189.649 141.289 189.233 141.137 188.722 141.137ZM196.226 146.857C196.088 146.935 195.91 147 195.693 147.052C195.477 147.104 195.247 147.13 195.004 147.13C194.675 147.13 194.393 147.082 194.159 146.987C193.934 146.892 193.748 146.766 193.6 146.61C193.453 146.445 193.345 146.263 193.275 146.064C193.215 145.856 193.184 145.644 193.184 145.427V141.228H192.378V140.253H193.184V138.836H194.328V140.253H196.291V141.228H194.328V145.284C194.328 145.57 194.398 145.778 194.536 145.908C194.684 146.038 194.939 146.103 195.303 146.103C195.641 146.103 195.949 146.008 196.226 145.817V146.857Z" fill="black"/>
</g>
<g filter="url(#filter2_d_530_441)">
<rect x="306" y="11" width="135" height="28" rx="12" fill="white" shape-rendering="crispEdges"/>
<path d="M329.274 29H327.61L322.93 21.174V29H321.773V19.679H323.424L328.104 27.505V19.679H329.274V29ZM337.206 29H331.447V19.679H332.669V27.895H337.206V29ZM338.886 19.679H342.045C343.068 19.679 343.844 19.8523 344.372 20.199C344.91 20.5457 345.178 21.1307 345.178 21.954C345.178 22.292 345.131 22.5867 345.035 22.838C344.949 23.0807 344.823 23.293 344.658 23.475C344.502 23.6483 344.307 23.7913 344.073 23.904C343.848 24.0167 343.597 24.1033 343.319 24.164C344.047 24.2507 344.593 24.463 344.957 24.801C345.33 25.1303 345.516 25.633 345.516 26.309C345.516 26.7943 345.425 27.2103 345.243 27.557C345.07 27.895 344.827 28.1723 344.515 28.389C344.203 28.597 343.835 28.753 343.41 28.857C342.986 28.9523 342.522 29 342.019 29H338.886V19.679ZM340.108 20.797V23.657H341.954C342.249 23.657 342.518 23.6267 342.76 23.566C343.003 23.4967 343.211 23.397 343.384 23.267C343.558 23.1283 343.692 22.9593 343.787 22.76C343.891 22.552 343.943 22.305 343.943 22.019C343.943 21.5423 343.779 21.2217 343.449 21.057C343.12 20.8837 342.652 20.797 342.045 20.797H340.108ZM340.108 24.762V27.895H342.019C342.349 27.895 342.648 27.869 342.916 27.817C343.185 27.765 343.415 27.6783 343.605 27.557C343.805 27.4357 343.956 27.2753 344.06 27.076C344.173 26.8767 344.229 26.6297 344.229 26.335C344.229 25.7457 344.039 25.3383 343.657 25.113C343.285 24.879 342.691 24.762 341.876 24.762H340.108ZM353.528 20.81V29H352.293V20.81H349.42V19.679H356.401V20.81H353.528ZM360.786 27.713C360.708 27.869 360.608 28.0337 360.487 28.207C360.366 28.3717 360.214 28.5233 360.032 28.662C359.85 28.8007 359.633 28.9133 359.382 29C359.139 29.0867 358.853 29.13 358.524 29.13C357.917 29.13 357.428 28.961 357.055 28.623C356.682 28.2763 356.496 27.7823 356.496 27.141C356.496 26.4043 356.752 25.8627 357.263 25.516C357.783 25.1693 358.52 24.996 359.473 24.996H360.734V24.437C360.734 23.969 360.613 23.6353 360.37 23.436C360.127 23.2367 359.711 23.137 359.122 23.137C358.706 23.137 358.312 23.2063 357.939 23.345C357.566 23.475 357.233 23.6267 356.938 23.8V22.773C357.181 22.6257 357.506 22.4827 357.913 22.344C358.329 22.1967 358.784 22.123 359.278 22.123C360.127 22.123 360.773 22.3007 361.215 22.656C361.657 23.0027 361.878 23.5443 361.878 24.281V27.908C361.878 27.986 361.878 28.077 361.878 28.181C361.887 28.2763 361.891 28.376 361.891 28.48C361.9 28.584 361.908 28.6837 361.917 28.779C361.926 28.8657 361.934 28.9393 361.943 29H360.903C360.877 28.8787 360.851 28.7097 360.825 28.493C360.808 28.2677 360.799 28.0727 360.799 27.908L360.786 27.713ZM358.771 28.103C359.126 28.103 359.43 28.0293 359.681 27.882C359.932 27.7347 360.136 27.5657 360.292 27.375C360.448 27.1757 360.561 26.985 360.63 26.803C360.699 26.6123 360.734 26.478 360.734 26.4V25.906H359.59C358.905 25.906 358.407 26.0057 358.095 26.205C357.792 26.3957 357.64 26.686 357.64 27.076C357.64 27.3793 357.731 27.6263 357.913 27.817C358.095 28.0077 358.381 28.103 358.771 28.103ZM367.018 23.397C366.532 23.4403 366.09 23.566 365.692 23.774C365.302 23.9733 365.011 24.2853 364.821 24.71V29H363.677V22.253H364.678L364.795 23.722H364.821C365.011 23.3233 365.284 22.9767 365.64 22.682C366.004 22.3787 366.463 22.1923 367.018 22.123V23.397ZM374.083 28.428C374.083 28.8613 374.018 29.2557 373.888 29.611C373.767 29.975 373.567 30.2827 373.29 30.534C373.021 30.7853 372.67 30.9803 372.237 31.119C371.812 31.2577 371.297 31.327 370.69 31.327C370.361 31.327 370.07 31.3097 369.819 31.275C369.568 31.2403 369.347 31.1927 369.156 31.132C368.974 31.08 368.818 31.0193 368.688 30.95C368.558 30.8893 368.45 30.8287 368.363 30.768V29.741C368.502 29.819 368.645 29.8883 368.792 29.949C368.948 30.0183 369.117 30.079 369.299 30.131C369.481 30.183 369.685 30.222 369.91 30.248C370.144 30.2827 370.408 30.3 370.703 30.3C371.535 30.3 372.116 30.144 372.445 29.832C372.774 29.52 372.939 29.0563 372.939 28.441V27.401C372.74 27.7997 372.458 28.1203 372.094 28.363C371.739 28.6057 371.297 28.727 370.768 28.727C370.369 28.727 369.988 28.6577 369.624 28.519C369.269 28.3803 368.952 28.1767 368.675 27.908C368.406 27.6307 368.19 27.2883 368.025 26.881C367.869 26.465 367.791 25.984 367.791 25.438C367.791 24.8833 367.869 24.4023 368.025 23.995C368.19 23.579 368.406 23.2323 368.675 22.955C368.952 22.6777 369.273 22.4697 369.637 22.331C370.001 22.1923 370.387 22.123 370.794 22.123C371.331 22.123 371.782 22.2443 372.146 22.487C372.519 22.7297 372.809 23.059 373.017 23.475L373.03 23.332C373.03 23.176 373.039 22.9897 373.056 22.773C373.073 22.5477 373.091 22.3743 373.108 22.253H374.148C374.131 22.3743 374.113 22.5477 374.096 22.773C374.087 22.9983 374.083 23.1847 374.083 23.332V28.428ZM370.976 27.7C371.262 27.7 371.522 27.6567 371.756 27.57C371.999 27.4747 372.207 27.3317 372.38 27.141C372.562 26.9503 372.701 26.7163 372.796 26.439C372.9 26.153 372.952 25.8193 372.952 25.438C372.952 24.6667 372.761 24.0903 372.38 23.709C372.007 23.3277 371.535 23.137 370.963 23.137C370.677 23.137 370.408 23.1847 370.157 23.28C369.914 23.3753 369.702 23.5183 369.52 23.709C369.347 23.8997 369.208 24.1423 369.104 24.437C369 24.723 368.948 25.0567 368.948 25.438C368.948 25.8193 369 26.153 369.104 26.439C369.208 26.7163 369.351 26.9503 369.533 27.141C369.715 27.323 369.927 27.4617 370.17 27.557C370.421 27.6523 370.69 27.7 370.976 27.7ZM381.309 28.428C381.214 28.4973 381.097 28.571 380.958 28.649C380.82 28.727 380.651 28.805 380.451 28.883C380.252 28.9523 380.027 29.0087 379.775 29.052C379.524 29.104 379.242 29.13 378.93 29.13C377.795 29.13 376.933 28.8223 376.343 28.207C375.754 27.5917 375.459 26.7293 375.459 25.62C375.459 25.074 375.537 24.5843 375.693 24.151C375.858 23.7177 376.083 23.3537 376.369 23.059C376.655 22.7557 376.993 22.526 377.383 22.37C377.773 22.2053 378.198 22.123 378.657 22.123C379.143 22.123 379.576 22.2053 379.957 22.37C380.339 22.5347 380.651 22.7773 380.893 23.098C381.145 23.4187 381.314 23.8173 381.4 24.294C381.496 24.762 381.496 25.308 381.4 25.932H376.642C376.686 26.66 376.902 27.206 377.292 27.57C377.682 27.9253 378.263 28.103 379.034 28.103C379.554 28.103 380.001 28.0293 380.373 27.882C380.746 27.7347 381.058 27.5743 381.309 27.401V28.428ZM378.631 23.137C378.137 23.137 377.713 23.2887 377.357 23.592C377.002 23.8953 376.777 24.3547 376.681 24.97H380.308C380.343 24.346 380.2 23.8867 379.879 23.592C379.559 23.2887 379.143 23.137 378.631 23.137ZM386.136 28.857C385.997 28.935 385.82 29 385.603 29.052C385.386 29.104 385.157 29.13 384.914 29.13C384.585 29.13 384.303 29.0823 384.069 28.987C383.844 28.8917 383.657 28.766 383.51 28.61C383.363 28.4453 383.254 28.2633 383.185 28.064C383.124 27.856 383.094 27.6437 383.094 27.427V23.228H382.288V22.253H383.094V20.836H384.238V22.253H386.201V23.228H384.238V27.284C384.238 27.57 384.307 27.778 384.446 27.908C384.593 28.038 384.849 28.103 385.213 28.103C385.551 28.103 385.859 28.0077 386.136 27.817V28.857ZM398.549 25.347C398.549 25.893 398.466 26.3957 398.302 26.855C398.146 27.3143 397.903 27.713 397.574 28.051C397.244 28.389 396.828 28.6533 396.326 28.844C395.832 29.0347 395.247 29.13 394.571 29.13C393.912 29.13 393.31 29.0173 392.764 28.792C392.218 28.558 391.75 28.233 391.36 27.817C390.97 27.401 390.666 26.8983 390.45 26.309C390.233 25.7197 390.125 25.0653 390.125 24.346C390.125 23.6267 390.229 22.9723 390.437 22.383C390.645 21.7937 390.948 21.291 391.347 20.875C391.754 20.459 392.257 20.1383 392.855 19.913C393.453 19.679 394.142 19.562 394.922 19.562C395.32 19.562 395.676 19.588 395.988 19.64C396.308 19.692 396.59 19.757 396.833 19.835C397.075 19.913 397.283 19.9997 397.457 20.095C397.639 20.1903 397.795 20.2813 397.925 20.368V21.538C397.717 21.4167 397.504 21.304 397.288 21.2C397.071 21.0873 396.837 20.992 396.586 20.914C396.343 20.836 396.079 20.7753 395.793 20.732C395.515 20.6887 395.212 20.667 394.883 20.667C394.293 20.667 393.782 20.7493 393.349 20.914C392.924 21.0787 392.569 21.3213 392.283 21.642C392.005 21.954 391.797 22.3397 391.659 22.799C391.52 23.2497 391.451 23.7653 391.451 24.346C391.451 25.5073 391.724 26.413 392.27 27.063C392.824 27.7043 393.591 28.025 394.571 28.025C395.056 28.025 395.472 27.9643 395.819 27.843C396.165 27.713 396.447 27.5397 396.664 27.323C396.88 27.0977 397.036 26.8333 397.132 26.53C397.236 26.218 397.288 25.88 397.288 25.516V25.256H394.285V24.151H398.549V25.347ZM403.466 23.397C402.981 23.4403 402.539 23.566 402.14 23.774C401.75 23.9733 401.46 24.2853 401.269 24.71V29H400.125V22.253H401.126L401.243 23.722H401.269C401.46 23.3233 401.733 22.9767 402.088 22.682C402.452 22.3787 402.911 22.1923 403.466 22.123V23.397ZM407.439 29.13C406.98 29.13 406.551 29.052 406.152 28.896C405.753 28.74 405.407 28.5147 405.112 28.22C404.826 27.9167 404.601 27.5483 404.436 27.115C404.271 26.6817 404.189 26.1833 404.189 25.62C404.189 25.0653 404.271 24.5713 404.436 24.138C404.601 23.696 404.826 23.3277 405.112 23.033C405.407 22.7383 405.753 22.513 406.152 22.357C406.551 22.201 406.98 22.123 407.439 22.123C407.907 22.123 408.34 22.201 408.739 22.357C409.138 22.513 409.48 22.7383 409.766 23.033C410.061 23.3277 410.29 23.696 410.455 24.138C410.628 24.5713 410.715 25.0653 410.715 25.62C410.715 26.1833 410.628 26.6817 410.455 27.115C410.29 27.5483 410.061 27.9167 409.766 28.22C409.48 28.5147 409.138 28.74 408.739 28.896C408.34 29.052 407.907 29.13 407.439 29.13ZM407.439 28.103C407.742 28.103 408.02 28.0553 408.271 27.96C408.531 27.856 408.756 27.7043 408.947 27.505C409.138 27.297 409.285 27.037 409.389 26.725C409.493 26.413 409.545 26.0447 409.545 25.62C409.545 25.1953 409.493 24.827 409.389 24.515C409.285 24.203 409.138 23.9473 408.947 23.748C408.756 23.54 408.531 23.3883 408.271 23.293C408.02 23.189 407.742 23.137 407.439 23.137C407.136 23.137 406.858 23.189 406.607 23.293C406.356 23.3883 406.135 23.54 405.944 23.748C405.762 23.9473 405.619 24.203 405.515 24.515C405.411 24.827 405.359 25.1953 405.359 25.62C405.359 26.0447 405.411 26.413 405.515 26.725C405.619 27.037 405.762 27.297 405.944 27.505C406.135 27.7043 406.356 27.856 406.607 27.96C406.858 28.0553 407.136 28.103 407.439 28.103ZM416.438 27.791C416.256 28.1723 415.975 28.493 415.593 28.753C415.221 29.0043 414.731 29.13 414.124 29.13C413.5 29.13 412.993 28.9567 412.603 28.61C412.222 28.2547 412.031 27.7087 412.031 26.972V22.253H413.188V26.972C413.188 27.1973 413.219 27.3837 413.279 27.531C413.349 27.6697 413.44 27.7823 413.552 27.869C413.665 27.9557 413.795 28.0163 413.942 28.051C414.098 28.0857 414.267 28.103 414.449 28.103C414.952 28.103 415.355 27.9903 415.658 27.765C415.962 27.5397 416.222 27.232 416.438 26.842V22.253H417.582V29H416.568L416.464 27.791H416.438ZM422.853 29.13C422.333 29.13 421.882 29.0087 421.501 28.766C421.128 28.5233 420.829 28.1897 420.604 27.765V31.301H419.46V22.253H420.461L420.578 23.566C420.803 23.124 421.107 22.773 421.488 22.513C421.869 22.253 422.342 22.123 422.905 22.123C423.295 22.123 423.668 22.1967 424.023 22.344C424.387 22.4827 424.703 22.6993 424.972 22.994C425.249 23.28 425.466 23.644 425.622 24.086C425.787 24.5193 425.869 25.0307 425.869 25.62C425.869 26.218 425.787 26.738 425.622 27.18C425.457 27.6133 425.236 27.9773 424.959 28.272C424.682 28.558 424.361 28.7747 423.997 28.922C423.633 29.0607 423.252 29.13 422.853 29.13ZM422.684 28.103C423.282 28.103 423.763 27.8993 424.127 27.492C424.5 27.076 424.686 26.452 424.686 25.62C424.686 24.8053 424.5 24.19 424.127 23.774C423.763 23.3493 423.282 23.137 422.684 23.137C422.389 23.137 422.112 23.189 421.852 23.293C421.601 23.397 421.38 23.553 421.189 23.761C421.007 23.9603 420.86 24.216 420.747 24.528C420.643 24.84 420.591 25.204 420.591 25.62C420.591 26.036 420.643 26.4 420.747 26.712C420.86 27.024 421.007 27.284 421.189 27.492C421.38 27.7 421.601 27.856 421.852 27.96C422.112 28.0553 422.389 28.103 422.684 28.103Z" fill="black"/>
</g>
<defs>
<filter id="filter0_d_530_441" x="72" y="168" width="158" height="110" filterUnits="userSpaceOnUse" color-interpolation-filters="sRGB">
<feFlood flood-opacity="0" result="BackgroundImageFix"/>
<feColorMatrix in="SourceAlpha" type="matrix" values="0 0 0 0 0 0 0 0 0 0 0 0 0 0 0 0 0 0 127 0" result="hardAlpha"/>
<feOffset dy="4"/>
<feGaussianBlur stdDeviation="2"/>
<feComposite in2="hardAlpha" operator="out"/>
<feColorMatrix type="matrix" values="0 0 0 0 0 0 0 0 0 0 0 0 0 0 0 0 0 0 0.25 0"/>
<feBlend mode="normal" in2="BackgroundImageFix" result="effect1_dropShadow_530_441"/>
<feBlend mode="normal" in="SourceGraphic" in2="effect1_dropShadow_530_441" result="shape"/>
</filter>
<filter id="filter1_d_530_441" x="79" y="128" width="143" height="38" filterUnits="userSpaceOnUse" color-interpolation-filters="sRGB">
<feFlood flood-opacity="0" result="BackgroundImageFix"/>
<feColorMatrix in="SourceAlpha" type="matrix" values="0 0 0 0 0 0 0 0 0 0 0 0 0 0 0 0 0 0 127 0" result="hardAlpha"/>
<feOffset dy="4"/>
<feGaussianBlur stdDeviation="2"/>
<feComposite in2="hardAlpha" operator="out"/>
<feColorMatrix type="matrix" values="0 0 0 0 0 0 0 0 0 0 0 0 0 0 0 0 0 0 0.25 0"/>
<feBlend mode="normal" in2="BackgroundImageFix" result="effect1_dropShadow_530_441"/>
<feBlend mode="normal" in="SourceGraphic" in2="effect1_dropShadow_530_441" result="shape"/>
</filter>
<filter id="filter2_d_530_441" x="302" y="10" width="143" height="38" filterUnits="userSpaceOnUse" color-interpolation-filters="sRGB">
<feFlood flood-opacity="0" result="BackgroundImageFix"/>
<feColorMatrix in="SourceAlpha" type="matrix" values="0 0 0 0 0 0 0 0 0 0 0 0 0 0 0 0 0 0 127 0" result="hardAlpha"/>
<feOffset dy="4"/>
<feGaussianBlur stdDeviation="2"/>
<feComposite in2="hardAlpha" operator="out"/>
<feColorMatrix type="matrix" values="0 0 0 0 0 0 0 0 0 0 0 0 0 0 0 0 0 0 0.25 0"/>
<feBlend mode="normal" in2="BackgroundImageFix" result="effect1_dropShadow_530_441"/>
<feBlend mode="normal" in="SourceGraphic" in2="effect1_dropShadow_530_441" result="shape"/>
</filter>
</defs>
</svg>
